G04 #@! TF.GenerationSoftware,KiCad,Pcbnew,(5.1.5)-3*
G04 #@! TF.CreationDate,2020-02-25T19:23:58+01:00*
G04 #@! TF.ProjectId,redox_rev1,7265646f-785f-4726-9576-312e6b696361,1.0*
G04 #@! TF.SameCoordinates,Original*
G04 #@! TF.FileFunction,Paste,Bot*
G04 #@! TF.FilePolarity,Positive*
%FSLAX46Y46*%
G04 Gerber Fmt 4.6, Leading zero omitted, Abs format (unit mm)*
G04 Created by KiCad (PCBNEW (5.1.5)-3) date 2020-02-25 19:23:58*
%MOMM*%
%LPD*%
G04 APERTURE LIST*
%ADD10R,2.850000X2.500000*%
%ADD11R,1.200000X1.200000*%
%ADD12R,2.250000X2.500000*%
%ADD13R,2.500000X2.850000*%
%ADD14C,0.100000*%
G04 APERTURE END LIST*
D10*
X98090000Y-80645000D03*
X84074000Y-83185000D03*
X105664000Y-121285000D03*
X119680000Y-118745000D03*
D11*
X101600000Y-69291000D03*
X101600000Y-72441000D03*
X209855000Y-107950000D03*
X206705000Y-107950000D03*
D12*
X144064000Y-76200000D03*
D10*
X157780000Y-73660000D03*
X105664000Y-64135000D03*
X119680000Y-61595000D03*
X98090000Y-61595000D03*
X84074000Y-64135000D03*
X124714000Y-78740000D03*
X138730000Y-76200000D03*
X124714000Y-116840000D03*
X138730000Y-114300000D03*
X124714000Y-59690000D03*
X138730000Y-57150000D03*
X162814000Y-59690000D03*
X176830000Y-57150000D03*
X181864000Y-61595000D03*
X195880000Y-59055000D03*
X200914000Y-71120000D03*
X214930000Y-68580000D03*
X105664000Y-83185000D03*
X119680000Y-80645000D03*
X162814000Y-78740000D03*
X176830000Y-76200000D03*
X181864000Y-80645000D03*
X195880000Y-78105000D03*
D13*
X213360000Y-104440000D03*
X210820000Y-90424000D03*
D10*
X98090000Y-99695000D03*
X84074000Y-102235000D03*
X105664000Y-102235000D03*
X119680000Y-99695000D03*
X124714000Y-97790000D03*
X138730000Y-95250000D03*
X162814000Y-97790000D03*
X176830000Y-95250000D03*
X181864000Y-99695000D03*
X195880000Y-97155000D03*
D14*
G36*
X205121771Y-122122327D02*
G01*
X206371771Y-119957263D01*
X208839943Y-121382263D01*
X207589943Y-123547327D01*
X205121771Y-122122327D01*
G37*
G36*
X218529983Y-126930623D02*
G01*
X219779983Y-124765559D01*
X222248155Y-126190559D01*
X220998155Y-128355623D01*
X218529983Y-126930623D01*
G37*
D10*
X98090000Y-118745000D03*
X84074000Y-121285000D03*
X143764000Y-114300000D03*
X157780000Y-111760000D03*
X162814000Y-116840000D03*
X176830000Y-114300000D03*
X181864000Y-118745000D03*
X195880000Y-116205000D03*
D14*
G36*
X221631771Y-131647327D02*
G01*
X222881771Y-129482263D01*
X225349943Y-130907263D01*
X224099943Y-133072327D01*
X221631771Y-131647327D01*
G37*
G36*
X235039983Y-136455623D02*
G01*
X236289983Y-134290559D01*
X238758155Y-135715559D01*
X237508155Y-137880623D01*
X235039983Y-136455623D01*
G37*
D10*
X86614000Y-140335000D03*
X100630000Y-137795000D03*
X105664000Y-140335000D03*
X119680000Y-137795000D03*
X124714000Y-135890000D03*
X138730000Y-133350000D03*
X143764000Y-133350000D03*
X157780000Y-130810000D03*
D14*
G36*
X182568239Y-139257833D02*
G01*
X183215287Y-136843019D01*
X185968175Y-137580653D01*
X185321127Y-139995467D01*
X182568239Y-139257833D01*
G37*
G36*
X168372423Y-138083677D02*
G01*
X169019471Y-135668863D01*
X171772359Y-136406497D01*
X171125311Y-138821311D01*
X168372423Y-138083677D01*
G37*
G36*
X200729377Y-155029983D02*
G01*
X202894441Y-156279983D01*
X201469441Y-158748155D01*
X199304377Y-157498155D01*
X200729377Y-155029983D01*
G37*
G36*
X205537673Y-141621771D02*
G01*
X207702737Y-142871771D01*
X206277737Y-145339943D01*
X204112673Y-144089943D01*
X205537673Y-141621771D01*
G37*
G36*
X217239377Y-164554983D02*
G01*
X219404441Y-165804983D01*
X217979441Y-168273155D01*
X215814377Y-167023155D01*
X217239377Y-164554983D01*
G37*
G36*
X222047673Y-151146771D02*
G01*
X224212737Y-152396771D01*
X222787737Y-154864943D01*
X220622673Y-153614943D01*
X222047673Y-151146771D01*
G37*
D12*
X144064000Y-57150000D03*
D10*
X157780000Y-54610000D03*
D12*
X144064000Y-95250000D03*
D10*
X157780000Y-92710000D03*
D11*
X121666000Y-69291000D03*
X121666000Y-72441000D03*
X133655000Y-70485000D03*
X130505000Y-70485000D03*
X152705000Y-67945000D03*
X149555000Y-67945000D03*
X171755000Y-70485000D03*
X168605000Y-70485000D03*
X197866000Y-66751000D03*
X197866000Y-69901000D03*
X209855000Y-81915000D03*
X206705000Y-81915000D03*
X102108000Y-88595000D03*
X102108000Y-91745000D03*
X121666000Y-88341000D03*
X121666000Y-91491000D03*
X133655000Y-89535000D03*
X130505000Y-89535000D03*
X152705000Y-86995000D03*
X149555000Y-86995000D03*
X178816000Y-83515000D03*
X178816000Y-86665000D03*
X198374000Y-86055000D03*
X198374000Y-89205000D03*
X101854000Y-107391000D03*
X101854000Y-110541000D03*
X121412000Y-107645000D03*
X121412000Y-110795000D03*
X141224000Y-104343000D03*
X141224000Y-107493000D03*
X152705000Y-106045000D03*
X149555000Y-106045000D03*
X178562000Y-103327000D03*
X178562000Y-106477000D03*
X197866000Y-105105000D03*
X197866000Y-108255000D03*
D14*
G36*
X217737885Y-133452395D02*
G01*
X218777115Y-134052395D01*
X218177115Y-135091625D01*
X217137885Y-134491625D01*
X217737885Y-133452395D01*
G37*
G36*
X216162885Y-136180375D02*
G01*
X217202115Y-136780375D01*
X216602115Y-137819605D01*
X215562885Y-137219605D01*
X216162885Y-136180375D01*
G37*
D11*
X102108000Y-126441000D03*
X102108000Y-129591000D03*
X121666000Y-126695000D03*
X121666000Y-129845000D03*
X140208000Y-122377000D03*
X140208000Y-125527000D03*
X159766000Y-119837000D03*
X159766000Y-122987000D03*
X178816000Y-122377000D03*
X178816000Y-125527000D03*
X198120000Y-123647000D03*
X198120000Y-126797000D03*
D14*
G36*
X226338605Y-144712885D02*
G01*
X225738605Y-145752115D01*
X224699375Y-145152115D01*
X225299375Y-144112885D01*
X226338605Y-144712885D01*
G37*
G36*
X223610625Y-143137885D02*
G01*
X223010625Y-144177115D01*
X221971395Y-143577115D01*
X222571395Y-142537885D01*
X223610625Y-143137885D01*
G37*
D11*
X102362000Y-145237000D03*
X102362000Y-148387000D03*
X121412000Y-145237000D03*
X121412000Y-148387000D03*
X140462000Y-140665000D03*
X140462000Y-143815000D03*
X159512000Y-138125000D03*
X159512000Y-141275000D03*
D14*
G36*
X185657376Y-146333820D02*
G01*
X186816487Y-146644403D01*
X186505904Y-147803514D01*
X185346793Y-147492931D01*
X185657376Y-146333820D01*
G37*
G36*
X184842096Y-149376486D02*
G01*
X186001207Y-149687069D01*
X185690624Y-150846180D01*
X184531513Y-150535597D01*
X184842096Y-149376486D01*
G37*
G36*
X197001605Y-158047885D02*
G01*
X196401605Y-159087115D01*
X195362375Y-158487115D01*
X195962375Y-157447885D01*
X197001605Y-158047885D01*
G37*
G36*
X194273625Y-156472885D02*
G01*
X193673625Y-157512115D01*
X192634395Y-156912115D01*
X193234395Y-155872885D01*
X194273625Y-156472885D01*
G37*
G36*
X210209605Y-165159885D02*
G01*
X209609605Y-166199115D01*
X208570375Y-165599115D01*
X209170375Y-164559885D01*
X210209605Y-165159885D01*
G37*
G36*
X207481625Y-163584885D02*
G01*
X206881625Y-164624115D01*
X205842395Y-164024115D01*
X206442395Y-162984885D01*
X207481625Y-163584885D01*
G37*
M02*
