M48
; DRILL file {KiCad (5.1.5)-3} date 2/25/2020 7:24:32 PM
; FORMAT={-:-/ absolute / inch / decimal}
; #@! TF.CreationDate,2020-02-25T19:24:32+01:00
; #@! TF.GenerationSoftware,Kicad,Pcbnew,(5.1.5)-3
; #@! TF.FileFunction,NonPlated,1,2,NPTH
FMAT,2
INCH
T1C0.0591
T2C0.0689
T3C0.1181
T4C0.1570
%
G90
G05
T1
X8.0894Y-2.063
X8.0894Y-2.3386
X8.2706Y-2.063
X8.2706Y-2.3386
T2
X3.4Y-4.875
X3.8Y-4.875
X4.25Y-3.375
X4.65Y-3.375
X6.5Y-3.2
X6.9Y-3.2
X5.75Y-5.35
X6.15Y-5.35
X5.0Y-3.2
X5.4Y-3.2
X8.425Y-6.3982
X8.625Y-6.0518
X8.1768Y-4.925
X8.5232Y-5.125
X8.0Y-2.9
X8.4Y-2.9
X3.5Y-5.625
X3.9Y-5.625
X5.75Y-3.85
X6.15Y-3.85
X3.4Y-4.125
X3.8Y-4.125
X7.25Y-4.775
X7.65Y-4.775
X6.5Y-2.45
X6.9Y-2.45
X5.0Y-3.95
X5.4Y-3.95
X3.4Y-3.375
X3.8Y-3.375
X5.75Y-4.6
X6.15Y-4.6
X5.0Y-2.45
X5.4Y-2.45
X5.0Y-5.45
X5.4Y-5.45
X4.25Y-4.125
X4.65Y-4.125
X5.75Y-3.1
X6.15Y-3.1
X7.25Y-4.025
X7.65Y-4.025
X4.25Y-2.625
X4.65Y-2.625
X7.775Y-6.0232
X7.975Y-5.6768
X7.25Y-2.525
X7.65Y-2.525
X6.5Y-3.95
X6.9Y-3.95
X7.25Y-3.275
X7.65Y-3.275
X3.4Y-2.625
X3.8Y-2.625
X4.25Y-5.625
X4.65Y-5.625
X6.7568Y-5.5232
X7.1432Y-5.6268
X6.5Y-4.7
X6.9Y-4.7
X8.2Y-3.65
X8.2Y-4.05
X4.25Y-4.875
X4.65Y-4.875
X8.8268Y-5.3
X9.1732Y-5.5
X5.0Y-4.7
X5.4Y-4.7
X5.75Y-2.35
X6.15Y-2.35
T3
X4.325Y-3.975
X4.575Y-3.975
X5.825Y-2.95
X6.075Y-2.95
X7.325Y-3.875
X7.575Y-3.875
X4.325Y-2.475
X4.575Y-2.475
X7.9424Y-6.0333
X8.0674Y-5.8167
X7.325Y-2.375
X7.575Y-2.375
X6.575Y-3.8
X6.825Y-3.8
X7.325Y-3.125
X7.575Y-3.125
X3.475Y-2.475
X3.725Y-2.475
X4.325Y-5.475
X4.575Y-5.475
X6.8681Y-5.3978
X7.1096Y-5.4625
X6.575Y-4.55
X6.825Y-4.55
X8.35Y-3.725
X8.35Y-3.975
X4.325Y-4.725
X4.575Y-4.725
X8.9667Y-5.2076
X9.1833Y-5.3326
X5.075Y-4.55
X5.325Y-4.55
X5.825Y-2.2
X6.075Y-2.2
X3.475Y-4.725
X3.725Y-4.725
X4.325Y-3.225
X4.575Y-3.225
X6.575Y-3.05
X6.825Y-3.05
X5.825Y-5.2
X6.075Y-5.2
X5.075Y-3.05
X5.325Y-3.05
X8.5924Y-6.4083
X8.7174Y-6.1917
X8.3167Y-4.8326
X8.5333Y-4.9576
X8.075Y-2.75
X8.325Y-2.75
X3.575Y-5.475
X3.825Y-5.475
X5.825Y-3.7
X6.075Y-3.7
X3.475Y-3.975
X3.725Y-3.975
X7.325Y-4.625
X7.575Y-4.625
X6.575Y-2.3
X6.825Y-2.3
X5.075Y-3.8
X5.325Y-3.8
X3.475Y-3.225
X3.725Y-3.225
X5.825Y-4.45
X6.075Y-4.45
X5.075Y-2.3
X5.325Y-2.3
X5.075Y-5.3
X5.325Y-5.3
T4
X5.2Y-3.95
X3.6Y-3.375
X5.95Y-4.6
X5.2Y-2.45
X5.2Y-5.45
X4.45Y-4.125
X5.95Y-3.1
X7.45Y-4.025
X4.45Y-2.625
X7.875Y-5.85
X7.45Y-2.525
X6.7Y-3.95
X7.45Y-3.275
X3.6Y-2.625
X4.45Y-5.625
X6.95Y-5.575
X6.7Y-4.7
X8.2Y-3.85
X4.45Y-4.875
X9.0Y-5.4
X5.2Y-4.7
X5.95Y-2.35
X3.6Y-4.875
X4.45Y-3.375
X6.7Y-3.2
X5.95Y-5.35
X5.2Y-3.2
X8.525Y-6.225
X8.35Y-5.025
X8.2Y-2.9
X3.7Y-5.625
X5.95Y-3.85
X3.6Y-4.125
X7.45Y-4.775
X6.7Y-2.45
T0
M30
