G04 #@! TF.GenerationSoftware,KiCad,Pcbnew,(5.1.5)-3*
G04 #@! TF.CreationDate,2020-03-08T16:10:47+01:00*
G04 #@! TF.ProjectId,redox_hotswap_led,7265646f-785f-4686-9f74-737761705f6c,1.0*
G04 #@! TF.SameCoordinates,Original*
G04 #@! TF.FileFunction,Legend,Bot*
G04 #@! TF.FilePolarity,Positive*
%FSLAX46Y46*%
G04 Gerber Fmt 4.6, Leading zero omitted, Abs format (unit mm)*
G04 Created by KiCad (PCBNEW (5.1.5)-3) date 2020-03-08 16:10:47*
%MOMM*%
%LPD*%
G04 APERTURE LIST*
%ADD10C,0.300000*%
%ADD11C,0.500000*%
%ADD12C,0.150000*%
%ADD13C,0.120000*%
G04 APERTURE END LIST*
D10*
X224411169Y-147015070D02*
X224454743Y-147177692D01*
X224704514Y-147459362D01*
X224910711Y-147578409D01*
X225279529Y-147653882D01*
X225604774Y-147566733D01*
X225826919Y-147420061D01*
X226168113Y-147067191D01*
X226346684Y-146757897D01*
X226481681Y-146285980D01*
X226497631Y-146020260D01*
X226410482Y-145695015D01*
X226160711Y-145413346D01*
X225954514Y-145294298D01*
X225585696Y-145218825D01*
X225423074Y-145262399D01*
X223364237Y-146685552D02*
X224614237Y-144520489D01*
X224018999Y-145551471D02*
X222781820Y-144837185D01*
X222127058Y-145971266D02*
X223377058Y-143806203D01*
X221096075Y-145376028D02*
X222346075Y-143210965D01*
X220719854Y-143646709D02*
X219998167Y-143230043D01*
X219034110Y-144185552D02*
X220065093Y-144780790D01*
X221315093Y-142615727D01*
X220284110Y-142020489D01*
X217075243Y-143054600D02*
X218106226Y-143649838D01*
X219356226Y-141484774D01*
X216749999Y-143141749D02*
X215100427Y-142189368D01*
X214637057Y-140134804D02*
X214268238Y-140059331D01*
X214105616Y-140102906D01*
X213883470Y-140249578D01*
X213704899Y-140558873D01*
X213688950Y-140824594D01*
X213732524Y-140987216D01*
X213879197Y-141209362D01*
X214703983Y-141685552D01*
X215953983Y-139520489D01*
X215232295Y-139103822D01*
X214966575Y-139087873D01*
X214803953Y-139131447D01*
X214581807Y-139278120D01*
X214462759Y-139484316D01*
X214446810Y-139750037D01*
X214490384Y-139912659D01*
X214637057Y-140134804D01*
X215358745Y-140551471D01*
X211301740Y-139721266D02*
X212618666Y-139106950D01*
X212538919Y-140435552D02*
X213788919Y-138270489D01*
X212964133Y-137794298D01*
X212698413Y-137778349D01*
X212535791Y-137821923D01*
X212313645Y-137968596D01*
X212135074Y-138277891D01*
X212119124Y-138543611D01*
X212162699Y-138706233D01*
X212309371Y-138928379D01*
X213134157Y-139404569D01*
X211211463Y-136782393D02*
X210799070Y-136544298D01*
X210533349Y-136528349D01*
X210208105Y-136615498D01*
X209866912Y-136968367D01*
X209450245Y-137690055D01*
X209315248Y-138161972D01*
X209402397Y-138487216D01*
X209549070Y-138709362D01*
X209961463Y-138947457D01*
X210227183Y-138963406D01*
X210552427Y-138876257D01*
X210893621Y-138523388D01*
X211310287Y-137801700D01*
X211445284Y-137329783D01*
X211358136Y-137004539D01*
X211211463Y-136782393D01*
X208760456Y-136741947D02*
X208038768Y-136325281D01*
X207074711Y-137280790D02*
X208105694Y-137876028D01*
X209355694Y-135710965D01*
X208324711Y-135115727D01*
X204909648Y-136030790D02*
X206226574Y-135416474D01*
X206146827Y-136745076D02*
X207396827Y-134580012D01*
X206572041Y-134103822D01*
X206306321Y-134087873D01*
X206143699Y-134131447D01*
X205921553Y-134278120D01*
X205742981Y-134587414D01*
X205727032Y-134853135D01*
X205770606Y-135015757D01*
X205917279Y-135237903D01*
X206742065Y-135714093D01*
D11*
X209168928Y-86415428D02*
X209311785Y-86558285D01*
X209740357Y-86701142D01*
X210026071Y-86701142D01*
X210454642Y-86558285D01*
X210740357Y-86272571D01*
X210883214Y-85986857D01*
X211026071Y-85415428D01*
X211026071Y-84986857D01*
X210883214Y-84415428D01*
X210740357Y-84129714D01*
X210454642Y-83844000D01*
X210026071Y-83701142D01*
X209740357Y-83701142D01*
X209311785Y-83844000D01*
X209168928Y-83986857D01*
X206883214Y-85129714D02*
X206454642Y-85272571D01*
X206311785Y-85415428D01*
X206168928Y-85701142D01*
X206168928Y-86129714D01*
X206311785Y-86415428D01*
X206454642Y-86558285D01*
X206740357Y-86701142D01*
X207883214Y-86701142D01*
X207883214Y-83701142D01*
X206883214Y-83701142D01*
X206597500Y-83844000D01*
X206454642Y-83986857D01*
X206311785Y-84272571D01*
X206311785Y-84558285D01*
X206454642Y-84844000D01*
X206597500Y-84986857D01*
X206883214Y-85129714D01*
X207883214Y-85129714D01*
D10*
X103584261Y-103299142D02*
X102250928Y-103299142D01*
X102631880Y-103299142D02*
X102441404Y-103394380D01*
X102346166Y-103489619D01*
X102250928Y-103680095D01*
X102250928Y-103870571D01*
X103489023Y-105299142D02*
X103584261Y-105108666D01*
X103584261Y-104727714D01*
X103489023Y-104537238D01*
X103298547Y-104441999D01*
X102536642Y-104441999D01*
X102346166Y-104537238D01*
X102250928Y-104727714D01*
X102250928Y-105108666D01*
X102346166Y-105299142D01*
X102536642Y-105394380D01*
X102727119Y-105394380D01*
X102917595Y-104441999D01*
X102250928Y-106061047D02*
X103584261Y-106537238D01*
X102250928Y-107013428D01*
X103584261Y-108822952D02*
X103584261Y-107680095D01*
X103584261Y-108251523D02*
X101584261Y-108251523D01*
X101869976Y-108061047D01*
X102060452Y-107870571D01*
X102155690Y-107680095D01*
X103393785Y-109680095D02*
X103489023Y-109775333D01*
X103584261Y-109680095D01*
X103489023Y-109584857D01*
X103393785Y-109680095D01*
X103584261Y-109680095D01*
X101584261Y-111013428D02*
X101584261Y-111203904D01*
X101679500Y-111394380D01*
X101774738Y-111489619D01*
X101965214Y-111584857D01*
X102346166Y-111680095D01*
X102822357Y-111680095D01*
X103203309Y-111584857D01*
X103393785Y-111489619D01*
X103489023Y-111394380D01*
X103584261Y-111203904D01*
X103584261Y-111013428D01*
X103489023Y-110822952D01*
X103393785Y-110727714D01*
X103203309Y-110632476D01*
X102822357Y-110537238D01*
X102346166Y-110537238D01*
X101965214Y-110632476D01*
X101774738Y-110727714D01*
X101679500Y-110822952D01*
X101584261Y-111013428D01*
X103556452Y-71360000D02*
X101056452Y-71360000D01*
X102246928Y-71360000D02*
X102246928Y-72788571D01*
X103556452Y-72788571D02*
X101056452Y-72788571D01*
X101056452Y-74455238D02*
X101056452Y-74931428D01*
X101175500Y-75169523D01*
X101413595Y-75407619D01*
X101889785Y-75526666D01*
X102723119Y-75526666D01*
X103199309Y-75407619D01*
X103437404Y-75169523D01*
X103556452Y-74931428D01*
X103556452Y-74455238D01*
X103437404Y-74217142D01*
X103199309Y-73979047D01*
X102723119Y-73860000D01*
X101889785Y-73860000D01*
X101413595Y-73979047D01*
X101175500Y-74217142D01*
X101056452Y-74455238D01*
X101056452Y-76240952D02*
X101056452Y-77669523D01*
X103556452Y-76955238D02*
X101056452Y-76955238D01*
X103437404Y-78383809D02*
X103556452Y-78740952D01*
X103556452Y-79336190D01*
X103437404Y-79574285D01*
X103318357Y-79693333D01*
X103080261Y-79812380D01*
X102842166Y-79812380D01*
X102604071Y-79693333D01*
X102485023Y-79574285D01*
X102365976Y-79336190D01*
X102246928Y-78860000D01*
X102127880Y-78621904D01*
X102008833Y-78502857D01*
X101770738Y-78383809D01*
X101532642Y-78383809D01*
X101294547Y-78502857D01*
X101175500Y-78621904D01*
X101056452Y-78860000D01*
X101056452Y-79455238D01*
X101175500Y-79812380D01*
X101056452Y-80645714D02*
X103556452Y-81240952D01*
X101770738Y-81717142D01*
X103556452Y-82193333D01*
X101056452Y-82788571D01*
X102842166Y-83621904D02*
X102842166Y-84812380D01*
X103556452Y-83383809D02*
X101056452Y-84217142D01*
X103556452Y-85050476D01*
X103556452Y-85883809D02*
X101056452Y-85883809D01*
X101056452Y-86836190D01*
X101175500Y-87074285D01*
X101294547Y-87193333D01*
X101532642Y-87312380D01*
X101889785Y-87312380D01*
X102127880Y-87193333D01*
X102246928Y-87074285D01*
X102365976Y-86836190D01*
X102365976Y-85883809D01*
X103794547Y-87788571D02*
X103794547Y-89693333D01*
X103556452Y-91717142D02*
X102365976Y-90883809D01*
X103556452Y-90288571D02*
X101056452Y-90288571D01*
X101056452Y-91240952D01*
X101175500Y-91479047D01*
X101294547Y-91598095D01*
X101532642Y-91717142D01*
X101889785Y-91717142D01*
X102127880Y-91598095D01*
X102246928Y-91479047D01*
X102365976Y-91240952D01*
X102365976Y-90288571D01*
X102246928Y-92788571D02*
X102246928Y-93621904D01*
X103556452Y-93979047D02*
X103556452Y-92788571D01*
X101056452Y-92788571D01*
X101056452Y-93979047D01*
X103556452Y-95050476D02*
X101056452Y-95050476D01*
X101056452Y-95645714D01*
X101175500Y-96002857D01*
X101413595Y-96240952D01*
X101651690Y-96360000D01*
X102127880Y-96479047D01*
X102485023Y-96479047D01*
X102961214Y-96360000D01*
X103199309Y-96240952D01*
X103437404Y-96002857D01*
X103556452Y-95645714D01*
X103556452Y-95050476D01*
X101056452Y-98026666D02*
X101056452Y-98502857D01*
X101175500Y-98740952D01*
X101413595Y-98979047D01*
X101889785Y-99098095D01*
X102723119Y-99098095D01*
X103199309Y-98979047D01*
X103437404Y-98740952D01*
X103556452Y-98502857D01*
X103556452Y-98026666D01*
X103437404Y-97788571D01*
X103199309Y-97550476D01*
X102723119Y-97431428D01*
X101889785Y-97431428D01*
X101413595Y-97550476D01*
X101175500Y-97788571D01*
X101056452Y-98026666D01*
X101056452Y-99931428D02*
X103556452Y-101598095D01*
X101056452Y-101598095D02*
X103556452Y-99931428D01*
D11*
X183514500Y-53363642D02*
X184514500Y-51935071D01*
X185228785Y-53363642D02*
X185228785Y-50363642D01*
X184085928Y-50363642D01*
X183800214Y-50506500D01*
X183657357Y-50649357D01*
X183514500Y-50935071D01*
X183514500Y-51363642D01*
X183657357Y-51649357D01*
X183800214Y-51792214D01*
X184085928Y-51935071D01*
X185228785Y-51935071D01*
X182228785Y-53363642D02*
X182228785Y-50363642D01*
X179228785Y-50506500D02*
X179514500Y-50363642D01*
X179943071Y-50363642D01*
X180371642Y-50506500D01*
X180657357Y-50792214D01*
X180800214Y-51077928D01*
X180943071Y-51649357D01*
X180943071Y-52077928D01*
X180800214Y-52649357D01*
X180657357Y-52935071D01*
X180371642Y-53220785D01*
X179943071Y-53363642D01*
X179657357Y-53363642D01*
X179228785Y-53220785D01*
X179085928Y-53077928D01*
X179085928Y-52077928D01*
X179657357Y-52077928D01*
X177800214Y-53363642D02*
X177800214Y-50363642D01*
X177800214Y-51792214D02*
X176085928Y-51792214D01*
X176085928Y-53363642D02*
X176085928Y-50363642D01*
X175085928Y-50363642D02*
X173371642Y-50363642D01*
X174228785Y-53363642D02*
X174228785Y-50363642D01*
D12*
X213972822Y-148552822D02*
X212972822Y-150284873D01*
X219097178Y-167677178D02*
X217365127Y-166677178D01*
X220097178Y-165945127D02*
X219097178Y-167677178D01*
X207972822Y-158945127D02*
X206972822Y-160677178D01*
X224365127Y-154552822D02*
X226097178Y-155552822D01*
X215704873Y-149552822D02*
X213972822Y-148552822D01*
X226097178Y-155552822D02*
X225097178Y-157284873D01*
X206972822Y-160677178D02*
X208704873Y-161677178D01*
X197462822Y-139027822D02*
X196462822Y-140759873D01*
X202587178Y-158152178D02*
X200855127Y-157152178D01*
X203587178Y-156420127D02*
X202587178Y-158152178D01*
X191462822Y-149420127D02*
X190462822Y-151152178D01*
X207855127Y-145027822D02*
X209587178Y-146027822D01*
X199194873Y-140027822D02*
X197462822Y-139027822D01*
X209587178Y-146027822D02*
X208587178Y-147759873D01*
X190462822Y-151152178D02*
X192194873Y-152152178D01*
X144130000Y-130890000D02*
X144130000Y-128890000D01*
X144130000Y-128890000D02*
X146130000Y-128890000D01*
X156130000Y-128890000D02*
X158130000Y-128890000D01*
X158130000Y-128890000D02*
X158130000Y-130890000D01*
X156130000Y-142890000D02*
X158130000Y-142890000D01*
X158130000Y-142890000D02*
X158130000Y-140890000D01*
X144130000Y-142890000D02*
X146130000Y-142890000D01*
X144130000Y-140890000D02*
X144130000Y-142890000D01*
X125080000Y-133430000D02*
X125080000Y-131430000D01*
X125080000Y-131430000D02*
X127080000Y-131430000D01*
X137080000Y-131430000D02*
X139080000Y-131430000D01*
X139080000Y-131430000D02*
X139080000Y-133430000D01*
X137080000Y-145430000D02*
X139080000Y-145430000D01*
X139080000Y-145430000D02*
X139080000Y-143430000D01*
X125080000Y-145430000D02*
X127080000Y-145430000D01*
X125080000Y-143430000D02*
X125080000Y-145430000D01*
X106030000Y-137875000D02*
X106030000Y-135875000D01*
X106030000Y-135875000D02*
X108030000Y-135875000D01*
X118030000Y-135875000D02*
X120030000Y-135875000D01*
X120030000Y-135875000D02*
X120030000Y-137875000D01*
X118030000Y-149875000D02*
X120030000Y-149875000D01*
X120030000Y-149875000D02*
X120030000Y-147875000D01*
X106030000Y-149875000D02*
X108030000Y-149875000D01*
X106030000Y-147875000D02*
X106030000Y-149875000D01*
X86980000Y-137875000D02*
X86980000Y-135875000D01*
X86980000Y-135875000D02*
X88980000Y-135875000D01*
X98980000Y-135875000D02*
X100980000Y-135875000D01*
X100980000Y-135875000D02*
X100980000Y-137875000D01*
X98980000Y-149875000D02*
X100980000Y-149875000D01*
X100980000Y-149875000D02*
X100980000Y-147875000D01*
X86980000Y-149875000D02*
X88980000Y-149875000D01*
X86980000Y-147875000D02*
X86980000Y-149875000D01*
X225037822Y-129329873D02*
X226037822Y-127597822D01*
X226037822Y-127597822D02*
X227769873Y-128597822D01*
X236430127Y-133597822D02*
X238162178Y-134597822D01*
X238162178Y-134597822D02*
X237162178Y-136329873D01*
X229430127Y-145722178D02*
X231162178Y-146722178D01*
X231162178Y-146722178D02*
X232162178Y-144990127D01*
X219037822Y-139722178D02*
X220769873Y-140722178D01*
X220037822Y-137990127D02*
X219037822Y-139722178D01*
X182230000Y-116285000D02*
X182230000Y-114285000D01*
X182230000Y-114285000D02*
X184230000Y-114285000D01*
X194230000Y-114285000D02*
X196230000Y-114285000D01*
X196230000Y-114285000D02*
X196230000Y-116285000D01*
X194230000Y-128285000D02*
X196230000Y-128285000D01*
X196230000Y-128285000D02*
X196230000Y-126285000D01*
X182230000Y-128285000D02*
X184230000Y-128285000D01*
X182230000Y-126285000D02*
X182230000Y-128285000D01*
X163180000Y-114380000D02*
X163180000Y-112380000D01*
X163180000Y-112380000D02*
X165180000Y-112380000D01*
X175180000Y-112380000D02*
X177180000Y-112380000D01*
X177180000Y-112380000D02*
X177180000Y-114380000D01*
X175180000Y-126380000D02*
X177180000Y-126380000D01*
X177180000Y-126380000D02*
X177180000Y-124380000D01*
X163180000Y-126380000D02*
X165180000Y-126380000D01*
X163180000Y-124380000D02*
X163180000Y-126380000D01*
X144130000Y-111840000D02*
X144130000Y-109840000D01*
X144130000Y-109840000D02*
X146130000Y-109840000D01*
X156130000Y-109840000D02*
X158130000Y-109840000D01*
X158130000Y-109840000D02*
X158130000Y-111840000D01*
X156130000Y-123840000D02*
X158130000Y-123840000D01*
X158130000Y-123840000D02*
X158130000Y-121840000D01*
X144130000Y-123840000D02*
X146130000Y-123840000D01*
X144130000Y-121840000D02*
X144130000Y-123840000D01*
X125080000Y-114380000D02*
X125080000Y-112380000D01*
X125080000Y-112380000D02*
X127080000Y-112380000D01*
X137080000Y-112380000D02*
X139080000Y-112380000D01*
X139080000Y-112380000D02*
X139080000Y-114380000D01*
X137080000Y-126380000D02*
X139080000Y-126380000D01*
X139080000Y-126380000D02*
X139080000Y-124380000D01*
X125080000Y-126380000D02*
X127080000Y-126380000D01*
X125080000Y-124380000D02*
X125080000Y-126380000D01*
X106030000Y-118825000D02*
X106030000Y-116825000D01*
X106030000Y-116825000D02*
X108030000Y-116825000D01*
X118030000Y-116825000D02*
X120030000Y-116825000D01*
X120030000Y-116825000D02*
X120030000Y-118825000D01*
X118030000Y-130825000D02*
X120030000Y-130825000D01*
X120030000Y-130825000D02*
X120030000Y-128825000D01*
X106030000Y-130825000D02*
X108030000Y-130825000D01*
X106030000Y-128825000D02*
X106030000Y-130825000D01*
X208527822Y-119804873D02*
X209527822Y-118072822D01*
X209527822Y-118072822D02*
X211259873Y-119072822D01*
X219920127Y-124072822D02*
X221652178Y-125072822D01*
X221652178Y-125072822D02*
X220652178Y-126804873D01*
X212920127Y-136197178D02*
X214652178Y-137197178D01*
X214652178Y-137197178D02*
X215652178Y-135465127D01*
X202527822Y-130197178D02*
X204259873Y-131197178D01*
X203527822Y-128465127D02*
X202527822Y-130197178D01*
X182230000Y-97235000D02*
X182230000Y-95235000D01*
X182230000Y-95235000D02*
X184230000Y-95235000D01*
X194230000Y-95235000D02*
X196230000Y-95235000D01*
X196230000Y-95235000D02*
X196230000Y-97235000D01*
X194230000Y-109235000D02*
X196230000Y-109235000D01*
X196230000Y-109235000D02*
X196230000Y-107235000D01*
X182230000Y-109235000D02*
X184230000Y-109235000D01*
X182230000Y-107235000D02*
X182230000Y-109235000D01*
X163180000Y-95330000D02*
X163180000Y-93330000D01*
X163180000Y-93330000D02*
X165180000Y-93330000D01*
X175180000Y-93330000D02*
X177180000Y-93330000D01*
X177180000Y-93330000D02*
X177180000Y-95330000D01*
X175180000Y-107330000D02*
X177180000Y-107330000D01*
X177180000Y-107330000D02*
X177180000Y-105330000D01*
X163180000Y-107330000D02*
X165180000Y-107330000D01*
X163180000Y-105330000D02*
X163180000Y-107330000D01*
X144130000Y-104790000D02*
X146130000Y-104790000D01*
X158130000Y-90790000D02*
X158130000Y-92790000D01*
X156130000Y-90790000D02*
X158130000Y-90790000D01*
X156130000Y-104790000D02*
X158130000Y-104790000D01*
X144130000Y-92790000D02*
X144130000Y-90790000D01*
X144130000Y-102790000D02*
X144130000Y-104790000D01*
X144130000Y-90790000D02*
X146130000Y-90790000D01*
X158130000Y-104790000D02*
X158130000Y-102790000D01*
X125080000Y-95330000D02*
X125080000Y-93330000D01*
X125080000Y-93330000D02*
X127080000Y-93330000D01*
X137080000Y-93330000D02*
X139080000Y-93330000D01*
X139080000Y-93330000D02*
X139080000Y-95330000D01*
X137080000Y-107330000D02*
X139080000Y-107330000D01*
X139080000Y-107330000D02*
X139080000Y-105330000D01*
X125080000Y-107330000D02*
X127080000Y-107330000D01*
X125080000Y-105330000D02*
X125080000Y-107330000D01*
X106030000Y-99775000D02*
X106030000Y-97775000D01*
X106030000Y-97775000D02*
X108030000Y-97775000D01*
X118030000Y-97775000D02*
X120030000Y-97775000D01*
X120030000Y-97775000D02*
X120030000Y-99775000D01*
X118030000Y-111775000D02*
X120030000Y-111775000D01*
X120030000Y-111775000D02*
X120030000Y-109775000D01*
X106030000Y-111775000D02*
X108030000Y-111775000D01*
X106030000Y-109775000D02*
X106030000Y-111775000D01*
X201280000Y-90790000D02*
X201280000Y-92790000D01*
X215280000Y-104790000D02*
X213280000Y-104790000D01*
X215280000Y-102790000D02*
X215280000Y-104790000D01*
X201280000Y-102790000D02*
X201280000Y-104790000D01*
X213280000Y-90790000D02*
X215280000Y-90790000D01*
X203280000Y-90790000D02*
X201280000Y-90790000D01*
X215280000Y-90790000D02*
X215280000Y-92790000D01*
X201280000Y-104790000D02*
X203280000Y-104790000D01*
X182230000Y-78185000D02*
X182230000Y-76185000D01*
X182230000Y-76185000D02*
X184230000Y-76185000D01*
X194230000Y-76185000D02*
X196230000Y-76185000D01*
X196230000Y-76185000D02*
X196230000Y-78185000D01*
X194230000Y-90185000D02*
X196230000Y-90185000D01*
X196230000Y-90185000D02*
X196230000Y-88185000D01*
X182230000Y-90185000D02*
X184230000Y-90185000D01*
X182230000Y-88185000D02*
X182230000Y-90185000D01*
X163180000Y-76280000D02*
X163180000Y-74280000D01*
X163180000Y-74280000D02*
X165180000Y-74280000D01*
X175180000Y-74280000D02*
X177180000Y-74280000D01*
X177180000Y-74280000D02*
X177180000Y-76280000D01*
X175180000Y-88280000D02*
X177180000Y-88280000D01*
X177180000Y-88280000D02*
X177180000Y-86280000D01*
X163180000Y-88280000D02*
X165180000Y-88280000D01*
X163180000Y-86280000D02*
X163180000Y-88280000D01*
X144130000Y-85740000D02*
X146130000Y-85740000D01*
X158130000Y-71740000D02*
X158130000Y-73740000D01*
X156130000Y-71740000D02*
X158130000Y-71740000D01*
X156130000Y-85740000D02*
X158130000Y-85740000D01*
X144130000Y-73740000D02*
X144130000Y-71740000D01*
X144130000Y-83740000D02*
X144130000Y-85740000D01*
X144130000Y-71740000D02*
X146130000Y-71740000D01*
X158130000Y-85740000D02*
X158130000Y-83740000D01*
X125080000Y-76280000D02*
X125080000Y-74280000D01*
X125080000Y-74280000D02*
X127080000Y-74280000D01*
X137080000Y-74280000D02*
X139080000Y-74280000D01*
X139080000Y-74280000D02*
X139080000Y-76280000D01*
X137080000Y-88280000D02*
X139080000Y-88280000D01*
X139080000Y-88280000D02*
X139080000Y-86280000D01*
X125080000Y-88280000D02*
X127080000Y-88280000D01*
X125080000Y-86280000D02*
X125080000Y-88280000D01*
X106030000Y-80725000D02*
X106030000Y-78725000D01*
X106030000Y-78725000D02*
X108030000Y-78725000D01*
X118030000Y-78725000D02*
X120030000Y-78725000D01*
X120030000Y-78725000D02*
X120030000Y-80725000D01*
X118030000Y-92725000D02*
X120030000Y-92725000D01*
X120030000Y-92725000D02*
X120030000Y-90725000D01*
X106030000Y-92725000D02*
X108030000Y-92725000D01*
X106030000Y-90725000D02*
X106030000Y-92725000D01*
X201280000Y-68660000D02*
X201280000Y-66660000D01*
X201280000Y-66660000D02*
X203280000Y-66660000D01*
X213280000Y-66660000D02*
X215280000Y-66660000D01*
X215280000Y-66660000D02*
X215280000Y-68660000D01*
X213280000Y-80660000D02*
X215280000Y-80660000D01*
X215280000Y-80660000D02*
X215280000Y-78660000D01*
X201280000Y-80660000D02*
X203280000Y-80660000D01*
X201280000Y-78660000D02*
X201280000Y-80660000D01*
X182230000Y-59135000D02*
X182230000Y-57135000D01*
X182230000Y-57135000D02*
X184230000Y-57135000D01*
X194230000Y-57135000D02*
X196230000Y-57135000D01*
X196230000Y-57135000D02*
X196230000Y-59135000D01*
X194230000Y-71135000D02*
X196230000Y-71135000D01*
X196230000Y-71135000D02*
X196230000Y-69135000D01*
X182230000Y-71135000D02*
X184230000Y-71135000D01*
X182230000Y-69135000D02*
X182230000Y-71135000D01*
X163180000Y-57230000D02*
X163180000Y-55230000D01*
X163180000Y-55230000D02*
X165180000Y-55230000D01*
X175180000Y-55230000D02*
X177180000Y-55230000D01*
X177180000Y-55230000D02*
X177180000Y-57230000D01*
X175180000Y-69230000D02*
X177180000Y-69230000D01*
X177180000Y-69230000D02*
X177180000Y-67230000D01*
X163180000Y-69230000D02*
X165180000Y-69230000D01*
X163180000Y-67230000D02*
X163180000Y-69230000D01*
X144130000Y-66690000D02*
X146130000Y-66690000D01*
X158130000Y-52690000D02*
X158130000Y-54690000D01*
X156130000Y-52690000D02*
X158130000Y-52690000D01*
X156130000Y-66690000D02*
X158130000Y-66690000D01*
X144130000Y-54690000D02*
X144130000Y-52690000D01*
X144130000Y-64690000D02*
X144130000Y-66690000D01*
X144130000Y-52690000D02*
X146130000Y-52690000D01*
X158130000Y-66690000D02*
X158130000Y-64690000D01*
X125080000Y-57230000D02*
X125080000Y-55230000D01*
X125080000Y-55230000D02*
X127080000Y-55230000D01*
X137080000Y-55230000D02*
X139080000Y-55230000D01*
X139080000Y-55230000D02*
X139080000Y-57230000D01*
X137080000Y-69230000D02*
X139080000Y-69230000D01*
X139080000Y-69230000D02*
X139080000Y-67230000D01*
X125080000Y-69230000D02*
X127080000Y-69230000D01*
X125080000Y-67230000D02*
X125080000Y-69230000D01*
X106030000Y-61675000D02*
X106030000Y-59675000D01*
X106030000Y-59675000D02*
X108030000Y-59675000D01*
X118030000Y-59675000D02*
X120030000Y-59675000D01*
X120030000Y-59675000D02*
X120030000Y-61675000D01*
X118030000Y-73675000D02*
X120030000Y-73675000D01*
X120030000Y-73675000D02*
X120030000Y-71675000D01*
X106030000Y-73675000D02*
X108030000Y-73675000D01*
X106030000Y-71675000D02*
X106030000Y-73675000D01*
X199898000Y-61976000D02*
X201422000Y-61976000D01*
X201422000Y-61976000D02*
X201422000Y-56896000D01*
X199898000Y-56896000D02*
X199898000Y-61976000D01*
X201422000Y-56896000D02*
X199898000Y-56896000D01*
X214122000Y-61976000D02*
X215646000Y-61976000D01*
X215646000Y-61976000D02*
X215646000Y-56896000D01*
X214122000Y-56896000D02*
X214122000Y-61976000D01*
X215646000Y-56896000D02*
X214122000Y-56896000D01*
X81915000Y-60939000D02*
X80391000Y-60939000D01*
X80391000Y-60939000D02*
X80391000Y-66019000D01*
X81915000Y-66019000D02*
X81915000Y-60939000D01*
X80391000Y-66019000D02*
X81915000Y-66019000D01*
X82296000Y-80104000D02*
X80772000Y-80104000D01*
X80772000Y-80104000D02*
X80772000Y-85184000D01*
X82296000Y-85184000D02*
X82296000Y-80104000D01*
X80772000Y-85184000D02*
X82296000Y-85184000D01*
X82359500Y-99166000D02*
X80835500Y-99166000D01*
X80835500Y-99166000D02*
X80835500Y-104246000D01*
X82359500Y-104246000D02*
X82359500Y-99166000D01*
X80835500Y-104246000D02*
X82359500Y-104246000D01*
X82359500Y-118131000D02*
X80835500Y-118131000D01*
X80835500Y-118131000D02*
X80835500Y-123211000D01*
X82359500Y-123211000D02*
X82359500Y-118131000D01*
X80835500Y-123211000D02*
X82359500Y-123211000D01*
X86868000Y-144493000D02*
X85344000Y-144493000D01*
X85344000Y-144493000D02*
X85344000Y-149573000D01*
X86868000Y-149573000D02*
X86868000Y-144493000D01*
X85344000Y-149573000D02*
X86868000Y-149573000D01*
X90772000Y-55753000D02*
X90772000Y-57277000D01*
X90772000Y-57277000D02*
X95852000Y-57277000D01*
X95852000Y-55753000D02*
X90772000Y-55753000D01*
X95852000Y-57277000D02*
X95852000Y-55753000D01*
X106964500Y-57340500D02*
X106964500Y-55816500D01*
X106964500Y-55816500D02*
X101884500Y-55816500D01*
X101884500Y-57340500D02*
X106964500Y-57340500D01*
X101884500Y-55816500D02*
X101884500Y-57340500D01*
X131031000Y-54356000D02*
X131031000Y-52832000D01*
X131031000Y-52832000D02*
X125951000Y-52832000D01*
X125951000Y-54356000D02*
X131031000Y-54356000D01*
X125951000Y-52832000D02*
X125951000Y-54356000D01*
X161163000Y-142334000D02*
X162687000Y-142334000D01*
X162687000Y-142334000D02*
X162687000Y-137254000D01*
X161163000Y-137254000D02*
X161163000Y-142334000D01*
X162687000Y-137254000D02*
X161163000Y-137254000D01*
X189009000Y-136144000D02*
X189009000Y-137668000D01*
X189009000Y-137668000D02*
X194089000Y-137668000D01*
X194089000Y-136144000D02*
X189009000Y-136144000D01*
X194089000Y-137668000D02*
X194089000Y-136144000D01*
X206756000Y-110904000D02*
X205232000Y-110904000D01*
X205232000Y-110904000D02*
X205232000Y-115984000D01*
X206756000Y-115984000D02*
X206756000Y-110904000D01*
X205232000Y-115984000D02*
X206756000Y-115984000D01*
X209740500Y-115219500D02*
X211264500Y-115219500D01*
X211264500Y-115219500D02*
X211264500Y-110139500D01*
X209740500Y-110139500D02*
X209740500Y-115219500D01*
X211264500Y-110139500D02*
X209740500Y-110139500D01*
X90584000Y-50292000D02*
X90584000Y-51816000D01*
X90584000Y-51816000D02*
X95664000Y-51816000D01*
X95664000Y-50292000D02*
X90584000Y-50292000D01*
X95664000Y-51816000D02*
X95664000Y-50292000D01*
X101630500Y-50355500D02*
X101630500Y-51879500D01*
X101630500Y-51879500D02*
X106710500Y-51879500D01*
X106710500Y-50355500D02*
X101630500Y-50355500D01*
X106710500Y-51879500D02*
X106710500Y-50355500D01*
X133383000Y-49403000D02*
X133383000Y-50927000D01*
X133383000Y-50927000D02*
X138463000Y-50927000D01*
X138463000Y-49403000D02*
X133383000Y-49403000D01*
X138463000Y-50927000D02*
X138463000Y-49403000D01*
X160909000Y-131666000D02*
X162433000Y-131666000D01*
X162433000Y-131666000D02*
X162433000Y-126586000D01*
X160909000Y-126586000D02*
X160909000Y-131666000D01*
X162433000Y-126586000D02*
X160909000Y-126586000D01*
X194077000Y-132284000D02*
X194077000Y-130760000D01*
X194077000Y-130760000D02*
X188997000Y-130760000D01*
X188997000Y-132284000D02*
X194077000Y-132284000D01*
X188997000Y-130760000D02*
X188997000Y-132284000D01*
X199834500Y-115920500D02*
X201358500Y-115920500D01*
X201358500Y-115920500D02*
X201358500Y-110840500D01*
X199834500Y-110840500D02*
X199834500Y-115920500D01*
X201358500Y-110840500D02*
X199834500Y-110840500D01*
X214757000Y-115083000D02*
X216281000Y-115083000D01*
X216281000Y-115083000D02*
X216281000Y-110003000D01*
X214757000Y-110003000D02*
X214757000Y-115083000D01*
X216281000Y-110003000D02*
X214757000Y-110003000D01*
X99949000Y-67289000D02*
X98425000Y-67289000D01*
X98425000Y-72242000D02*
X99949000Y-72242000D01*
X98425000Y-67289000D02*
X98425000Y-72369000D01*
X99949000Y-72115000D02*
X98425000Y-72115000D01*
X99949000Y-72369000D02*
X99949000Y-67289000D01*
X98425000Y-72369000D02*
X99949000Y-72369000D01*
X121539000Y-67277000D02*
X120015000Y-67277000D01*
X120015000Y-72230000D02*
X121539000Y-72230000D01*
X120015000Y-67277000D02*
X120015000Y-72357000D01*
X121539000Y-72103000D02*
X120015000Y-72103000D01*
X121539000Y-72357000D02*
X121539000Y-67277000D01*
X120015000Y-72357000D02*
X121539000Y-72357000D01*
X134620000Y-71247000D02*
X134620000Y-69723000D01*
X129667000Y-69723000D02*
X129667000Y-71247000D01*
X134620000Y-69723000D02*
X129540000Y-69723000D01*
X129794000Y-71247000D02*
X129794000Y-69723000D01*
X129540000Y-71247000D02*
X134620000Y-71247000D01*
X129540000Y-69723000D02*
X129540000Y-71247000D01*
X153670000Y-68707000D02*
X153670000Y-67183000D01*
X148717000Y-67183000D02*
X148717000Y-68707000D01*
X153670000Y-67183000D02*
X148590000Y-67183000D01*
X148844000Y-68707000D02*
X148844000Y-67183000D01*
X148590000Y-68707000D02*
X153670000Y-68707000D01*
X148590000Y-67183000D02*
X148590000Y-68707000D01*
X178943000Y-62959000D02*
X177419000Y-62959000D01*
X177419000Y-67912000D02*
X178943000Y-67912000D01*
X177419000Y-62959000D02*
X177419000Y-68039000D01*
X178943000Y-67785000D02*
X177419000Y-67785000D01*
X178943000Y-68039000D02*
X178943000Y-62959000D01*
X177419000Y-68039000D02*
X178943000Y-68039000D01*
X197993000Y-64864000D02*
X196469000Y-64864000D01*
X196469000Y-69817000D02*
X197993000Y-69817000D01*
X196469000Y-64864000D02*
X196469000Y-69944000D01*
X197993000Y-69690000D02*
X196469000Y-69690000D01*
X197993000Y-69944000D02*
X197993000Y-64864000D01*
X196469000Y-69944000D02*
X197993000Y-69944000D01*
X217043000Y-74389000D02*
X215519000Y-74389000D01*
X215519000Y-79342000D02*
X217043000Y-79342000D01*
X215519000Y-74389000D02*
X215519000Y-79469000D01*
X217043000Y-79215000D02*
X215519000Y-79215000D01*
X217043000Y-79469000D02*
X217043000Y-74389000D01*
X215519000Y-79469000D02*
X217043000Y-79469000D01*
X100584000Y-86581000D02*
X99060000Y-86581000D01*
X99060000Y-91534000D02*
X100584000Y-91534000D01*
X99060000Y-86581000D02*
X99060000Y-91661000D01*
X100584000Y-91407000D02*
X99060000Y-91407000D01*
X100584000Y-91661000D02*
X100584000Y-86581000D01*
X99060000Y-91661000D02*
X100584000Y-91661000D01*
X121666000Y-86393000D02*
X120142000Y-86393000D01*
X120142000Y-91346000D02*
X121666000Y-91346000D01*
X120142000Y-86393000D02*
X120142000Y-91473000D01*
X121666000Y-91219000D02*
X120142000Y-91219000D01*
X121666000Y-91473000D02*
X121666000Y-86393000D01*
X120142000Y-91473000D02*
X121666000Y-91473000D01*
X140335000Y-82009000D02*
X138811000Y-82009000D01*
X138811000Y-86962000D02*
X140335000Y-86962000D01*
X138811000Y-82009000D02*
X138811000Y-87089000D01*
X140335000Y-86835000D02*
X138811000Y-86835000D01*
X140335000Y-87089000D02*
X140335000Y-82009000D01*
X138811000Y-87089000D02*
X140335000Y-87089000D01*
X153670000Y-87757000D02*
X153670000Y-86233000D01*
X148717000Y-86233000D02*
X148717000Y-87757000D01*
X153670000Y-86233000D02*
X148590000Y-86233000D01*
X148844000Y-87757000D02*
X148844000Y-86233000D01*
X148590000Y-87757000D02*
X153670000Y-87757000D01*
X148590000Y-86233000D02*
X148590000Y-87757000D01*
X178943000Y-82021000D02*
X177419000Y-82021000D01*
X177419000Y-86974000D02*
X178943000Y-86974000D01*
X177419000Y-82021000D02*
X177419000Y-87101000D01*
X178943000Y-86847000D02*
X177419000Y-86847000D01*
X178943000Y-87101000D02*
X178943000Y-82021000D01*
X177419000Y-87101000D02*
X178943000Y-87101000D01*
X197993000Y-83926000D02*
X196469000Y-83926000D01*
X196469000Y-88879000D02*
X197993000Y-88879000D01*
X196469000Y-83926000D02*
X196469000Y-89006000D01*
X197993000Y-88752000D02*
X196469000Y-88752000D01*
X197993000Y-89006000D02*
X197993000Y-83926000D01*
X196469000Y-89006000D02*
X197993000Y-89006000D01*
X207424000Y-106553000D02*
X207424000Y-105029000D01*
X202471000Y-105029000D02*
X202471000Y-106553000D01*
X207424000Y-105029000D02*
X202344000Y-105029000D01*
X202598000Y-106553000D02*
X202598000Y-105029000D01*
X202344000Y-106553000D02*
X207424000Y-106553000D01*
X202344000Y-105029000D02*
X202344000Y-106553000D01*
X99949000Y-105504000D02*
X98425000Y-105504000D01*
X98425000Y-110457000D02*
X99949000Y-110457000D01*
X98425000Y-105504000D02*
X98425000Y-110584000D01*
X99949000Y-110330000D02*
X98425000Y-110330000D01*
X99949000Y-110584000D02*
X99949000Y-105504000D01*
X98425000Y-110584000D02*
X99949000Y-110584000D01*
X121539000Y-105377000D02*
X120015000Y-105377000D01*
X120015000Y-110330000D02*
X121539000Y-110330000D01*
X120015000Y-105377000D02*
X120015000Y-110457000D01*
X121539000Y-110203000D02*
X120015000Y-110203000D01*
X121539000Y-110457000D02*
X121539000Y-105377000D01*
X120015000Y-110457000D02*
X121539000Y-110457000D01*
X140335000Y-101071000D02*
X138811000Y-101071000D01*
X138811000Y-106024000D02*
X140335000Y-106024000D01*
X138811000Y-101071000D02*
X138811000Y-106151000D01*
X140335000Y-105897000D02*
X138811000Y-105897000D01*
X140335000Y-106151000D02*
X140335000Y-101071000D01*
X138811000Y-106151000D02*
X140335000Y-106151000D01*
X153670000Y-106807000D02*
X153670000Y-105283000D01*
X148717000Y-105283000D02*
X148717000Y-106807000D01*
X153670000Y-105283000D02*
X148590000Y-105283000D01*
X148844000Y-106807000D02*
X148844000Y-105283000D01*
X148590000Y-106807000D02*
X153670000Y-106807000D01*
X148590000Y-105283000D02*
X148590000Y-106807000D01*
X178943000Y-100944000D02*
X177419000Y-100944000D01*
X177419000Y-105897000D02*
X178943000Y-105897000D01*
X177419000Y-100944000D02*
X177419000Y-106024000D01*
X178943000Y-105770000D02*
X177419000Y-105770000D01*
X178943000Y-106024000D02*
X178943000Y-100944000D01*
X177419000Y-106024000D02*
X178943000Y-106024000D01*
X197993000Y-102849000D02*
X196469000Y-102849000D01*
X196469000Y-107802000D02*
X197993000Y-107802000D01*
X196469000Y-102849000D02*
X196469000Y-107929000D01*
X197993000Y-107675000D02*
X196469000Y-107675000D01*
X197993000Y-107929000D02*
X197993000Y-102849000D01*
X196469000Y-107929000D02*
X197993000Y-107929000D01*
X219306911Y-132622026D02*
X217987089Y-131860026D01*
X215510589Y-136149450D02*
X216830411Y-136911450D01*
X217987089Y-131860026D02*
X215447089Y-136259436D01*
X216893911Y-136801465D02*
X215574089Y-136039465D01*
X216766911Y-137021436D02*
X219306911Y-132622026D01*
X215447089Y-136259436D02*
X216766911Y-137021436D01*
X100076000Y-124427000D02*
X98552000Y-124427000D01*
X98552000Y-129380000D02*
X100076000Y-129380000D01*
X98552000Y-124427000D02*
X98552000Y-129507000D01*
X100076000Y-129253000D02*
X98552000Y-129253000D01*
X100076000Y-129507000D02*
X100076000Y-124427000D01*
X98552000Y-129507000D02*
X100076000Y-129507000D01*
X121539000Y-124554000D02*
X120015000Y-124554000D01*
X120015000Y-129507000D02*
X121539000Y-129507000D01*
X120015000Y-124554000D02*
X120015000Y-129634000D01*
X121539000Y-129380000D02*
X120015000Y-129380000D01*
X121539000Y-129634000D02*
X121539000Y-124554000D01*
X120015000Y-129634000D02*
X121539000Y-129634000D01*
X140716000Y-120121000D02*
X139192000Y-120121000D01*
X139192000Y-125074000D02*
X140716000Y-125074000D01*
X139192000Y-120121000D02*
X139192000Y-125201000D01*
X140716000Y-124947000D02*
X139192000Y-124947000D01*
X140716000Y-125201000D02*
X140716000Y-120121000D01*
X139192000Y-125201000D02*
X140716000Y-125201000D01*
X159893000Y-117581000D02*
X158369000Y-117581000D01*
X158369000Y-122534000D02*
X159893000Y-122534000D01*
X158369000Y-117581000D02*
X158369000Y-122661000D01*
X159893000Y-122407000D02*
X158369000Y-122407000D01*
X159893000Y-122661000D02*
X159893000Y-117581000D01*
X158369000Y-122661000D02*
X159893000Y-122661000D01*
X179070000Y-120121000D02*
X177546000Y-120121000D01*
X177546000Y-125074000D02*
X179070000Y-125074000D01*
X177546000Y-120121000D02*
X177546000Y-125201000D01*
X179070000Y-124947000D02*
X177546000Y-124947000D01*
X179070000Y-125201000D02*
X179070000Y-120121000D01*
X177546000Y-125201000D02*
X179070000Y-125201000D01*
X197993000Y-122026000D02*
X196469000Y-122026000D01*
X196469000Y-126979000D02*
X197993000Y-126979000D01*
X196469000Y-122026000D02*
X196469000Y-127106000D01*
X197993000Y-126852000D02*
X196469000Y-126852000D01*
X197993000Y-127106000D02*
X197993000Y-122026000D01*
X196469000Y-127106000D02*
X197993000Y-127106000D01*
X235689911Y-142147026D02*
X234370089Y-141385026D01*
X231893589Y-145674450D02*
X233213411Y-146436450D01*
X234370089Y-141385026D02*
X231830089Y-145784436D01*
X233276911Y-146326465D02*
X231957089Y-145564465D01*
X233149911Y-146546436D02*
X235689911Y-142147026D01*
X231830089Y-145784436D02*
X233149911Y-146546436D01*
X102616000Y-143477000D02*
X101092000Y-143477000D01*
X101092000Y-148430000D02*
X102616000Y-148430000D01*
X101092000Y-143477000D02*
X101092000Y-148557000D01*
X102616000Y-148303000D02*
X101092000Y-148303000D01*
X102616000Y-148557000D02*
X102616000Y-143477000D01*
X101092000Y-148557000D02*
X102616000Y-148557000D01*
X121539000Y-143616000D02*
X120015000Y-143616000D01*
X120015000Y-148569000D02*
X121539000Y-148569000D01*
X120015000Y-143616000D02*
X120015000Y-148696000D01*
X121539000Y-148442000D02*
X120015000Y-148442000D01*
X121539000Y-148696000D02*
X121539000Y-143616000D01*
X120015000Y-148696000D02*
X121539000Y-148696000D01*
X140970000Y-139159000D02*
X139446000Y-139159000D01*
X139446000Y-144112000D02*
X140970000Y-144112000D01*
X139446000Y-139159000D02*
X139446000Y-144239000D01*
X140970000Y-143985000D02*
X139446000Y-143985000D01*
X140970000Y-144239000D02*
X140970000Y-139159000D01*
X139446000Y-144239000D02*
X140970000Y-144239000D01*
X160020000Y-136619000D02*
X158496000Y-136619000D01*
X158496000Y-141572000D02*
X160020000Y-141572000D01*
X158496000Y-136619000D02*
X158496000Y-141699000D01*
X160020000Y-141445000D02*
X158496000Y-141445000D01*
X160020000Y-141699000D02*
X160020000Y-136619000D01*
X158496000Y-141699000D02*
X160020000Y-141699000D01*
X184845247Y-144614769D02*
X183373176Y-144220328D01*
X182091245Y-149004559D02*
X183563316Y-149398999D01*
X183373176Y-144220328D02*
X182058375Y-149127231D01*
X183596186Y-149276327D02*
X182124115Y-148881886D01*
X183530446Y-149521672D02*
X184845247Y-144614769D01*
X182058375Y-149127231D02*
X183530446Y-149521672D01*
X194910974Y-155806911D02*
X195672974Y-154487089D01*
X191383550Y-152010589D02*
X190621550Y-153330411D01*
X195672974Y-154487089D02*
X191273564Y-151947089D01*
X190731535Y-153393911D02*
X191493535Y-152074089D01*
X190511564Y-153266911D02*
X194910974Y-155806911D01*
X191273564Y-151947089D02*
X190511564Y-153266911D01*
X211420974Y-165331911D02*
X212182974Y-164012089D01*
X207893550Y-161535589D02*
X207131550Y-162855411D01*
X212182974Y-164012089D02*
X207783564Y-161472089D01*
X207241535Y-162918911D02*
X208003535Y-161599089D01*
X207021564Y-162791911D02*
X211420974Y-165331911D01*
X207783564Y-161472089D02*
X207021564Y-162791911D01*
X84440000Y-73675000D02*
X86440000Y-73675000D01*
X98440000Y-59675000D02*
X98440000Y-61675000D01*
X96440000Y-59675000D02*
X98440000Y-59675000D01*
X96440000Y-73675000D02*
X98440000Y-73675000D01*
X84440000Y-61675000D02*
X84440000Y-59675000D01*
X84440000Y-71675000D02*
X84440000Y-73675000D01*
X84440000Y-59675000D02*
X86440000Y-59675000D01*
X98440000Y-73675000D02*
X98440000Y-71675000D01*
X84440000Y-92725000D02*
X86440000Y-92725000D01*
X98440000Y-78725000D02*
X98440000Y-80725000D01*
X96440000Y-78725000D02*
X98440000Y-78725000D01*
X96440000Y-92725000D02*
X98440000Y-92725000D01*
X84440000Y-80725000D02*
X84440000Y-78725000D01*
X84440000Y-90725000D02*
X84440000Y-92725000D01*
X84440000Y-78725000D02*
X86440000Y-78725000D01*
X98440000Y-92725000D02*
X98440000Y-90725000D01*
X84440000Y-111775000D02*
X86440000Y-111775000D01*
X98440000Y-97775000D02*
X98440000Y-99775000D01*
X96440000Y-97775000D02*
X98440000Y-97775000D01*
X96440000Y-111775000D02*
X98440000Y-111775000D01*
X84440000Y-99775000D02*
X84440000Y-97775000D01*
X84440000Y-109775000D02*
X84440000Y-111775000D01*
X84440000Y-97775000D02*
X86440000Y-97775000D01*
X98440000Y-111775000D02*
X98440000Y-109775000D01*
X84440000Y-130825000D02*
X86440000Y-130825000D01*
X98440000Y-116825000D02*
X98440000Y-118825000D01*
X96440000Y-116825000D02*
X98440000Y-116825000D01*
X96440000Y-130825000D02*
X98440000Y-130825000D01*
X84440000Y-118825000D02*
X84440000Y-116825000D01*
X84440000Y-128825000D02*
X84440000Y-130825000D01*
X84440000Y-116825000D02*
X86440000Y-116825000D01*
X98440000Y-130825000D02*
X98440000Y-128825000D01*
X167956786Y-146554747D02*
X169888638Y-147072386D01*
X185103214Y-136655253D02*
X184585576Y-138587104D01*
X183171362Y-136137614D02*
X185103214Y-136655253D01*
X179547896Y-149660576D02*
X181479747Y-150178214D01*
X171062614Y-134963638D02*
X171580253Y-133031786D01*
X168474424Y-144622896D02*
X167956786Y-146554747D01*
X171580253Y-133031786D02*
X173512104Y-133549424D01*
X181479747Y-150178214D02*
X181997386Y-148246362D01*
D13*
X81031000Y-71777000D02*
X81031000Y-68617000D01*
X84191000Y-71777000D02*
X84191000Y-70317000D01*
X81031000Y-71777000D02*
X81961000Y-71777000D01*
X84191000Y-71777000D02*
X83261000Y-71777000D01*
X81031000Y-90827000D02*
X81031000Y-87667000D01*
X84191000Y-90827000D02*
X84191000Y-89367000D01*
X81031000Y-90827000D02*
X81961000Y-90827000D01*
X84191000Y-90827000D02*
X83261000Y-90827000D01*
X81036000Y-109877000D02*
X81036000Y-106717000D01*
X84196000Y-109877000D02*
X84196000Y-108417000D01*
X81036000Y-109877000D02*
X81966000Y-109877000D01*
X84196000Y-109877000D02*
X83266000Y-109877000D01*
X81036000Y-128927000D02*
X81036000Y-125767000D01*
X84196000Y-128927000D02*
X84196000Y-127467000D01*
X81036000Y-128927000D02*
X81966000Y-128927000D01*
X84196000Y-128927000D02*
X83266000Y-128927000D01*
X87193000Y-149374000D02*
X87193000Y-146214000D01*
X90353000Y-149374000D02*
X90353000Y-147914000D01*
X87193000Y-149374000D02*
X88123000Y-149374000D01*
X90353000Y-149374000D02*
X89423000Y-149374000D01*
X92519000Y-52210999D02*
X95679000Y-52210999D01*
X92519000Y-55370999D02*
X93979000Y-55370999D01*
X92519000Y-52210999D02*
X92519000Y-53140999D01*
X92519000Y-55370999D02*
X92519000Y-54440999D01*
X103594500Y-52270500D02*
X106754500Y-52270500D01*
X103594500Y-55430500D02*
X105054500Y-55430500D01*
X103594500Y-52270500D02*
X103594500Y-53200500D01*
X103594500Y-55430500D02*
X103594500Y-54500500D01*
X127740000Y-49347000D02*
X130900000Y-49347000D01*
X127740000Y-52507000D02*
X129200000Y-52507000D01*
X127740000Y-49347000D02*
X127740000Y-50277000D01*
X127740000Y-52507000D02*
X127740000Y-51577000D01*
X164824000Y-132786000D02*
X167984000Y-132786000D01*
X164824000Y-135946000D02*
X166284000Y-135946000D01*
X164824000Y-132786000D02*
X164824000Y-133716000D01*
X164824000Y-135946000D02*
X164824000Y-135016000D01*
X190756000Y-132659000D02*
X193916000Y-132659000D01*
X190756000Y-135819000D02*
X192216000Y-135819000D01*
X190756000Y-132659000D02*
X190756000Y-133589000D01*
X190756000Y-135819000D02*
X190756000Y-134889000D01*
X201747000Y-114337500D02*
X201747000Y-111177500D01*
X204907000Y-114337500D02*
X204907000Y-112877500D01*
X201747000Y-114337500D02*
X202677000Y-114337500D01*
X204907000Y-114337500D02*
X203977000Y-114337500D01*
X214495500Y-111825500D02*
X214495500Y-114985500D01*
X211335500Y-111825500D02*
X211335500Y-113285500D01*
X214495500Y-111825500D02*
X213565500Y-111825500D01*
X211335500Y-111825500D02*
X212265500Y-111825500D01*
D12*
X212872000Y-50800000D02*
X212872000Y-48800000D01*
X207272000Y-48800000D02*
X212872000Y-48800000D01*
X207272000Y-50800000D02*
X207272000Y-48800000D01*
X207022000Y-62900000D02*
X213122000Y-62900000D01*
X213122000Y-50800000D02*
X213122000Y-62900000D01*
X207022000Y-50800000D02*
X213122000Y-50800000D01*
X207022000Y-50800000D02*
X207022000Y-62900000D01*
X214894271Y-155765588D02*
X214028245Y-155265588D01*
X214608556Y-156260459D02*
X214327971Y-155603591D01*
X213742531Y-155760459D02*
X214523117Y-155551302D01*
X213602635Y-156669434D02*
X214179985Y-157002767D01*
X213391768Y-156272761D02*
X214129405Y-156423707D01*
X213819881Y-156959818D01*
X212837769Y-157327553D02*
X212933007Y-157162596D01*
X213021866Y-157103927D01*
X213086914Y-157086497D01*
X213258251Y-157075447D01*
X213447018Y-157129446D01*
X213776933Y-157319922D01*
X213835602Y-157408780D01*
X213853031Y-157473829D01*
X213846652Y-157580117D01*
X213751414Y-157745074D01*
X213662555Y-157803743D01*
X213597506Y-157821173D01*
X213491218Y-157814793D01*
X213285022Y-157695746D01*
X213226353Y-157606887D01*
X213208923Y-157541839D01*
X213215303Y-157435551D01*
X213310541Y-157270593D01*
X213399399Y-157211924D01*
X213464448Y-157194494D01*
X213570736Y-157200874D01*
X198384271Y-146240588D02*
X197518245Y-145740588D01*
X198098556Y-146735459D02*
X197817971Y-146078591D01*
X197232531Y-146235459D02*
X198013117Y-146026302D01*
X197092635Y-147144434D02*
X197669985Y-147477767D01*
X196881768Y-146747761D02*
X197619405Y-146898707D01*
X197309881Y-147434818D01*
X196303960Y-147843792D02*
X196542055Y-147431399D01*
X196978257Y-147628255D01*
X196913209Y-147645685D01*
X196824350Y-147704354D01*
X196705303Y-147910551D01*
X196698923Y-148016839D01*
X196716353Y-148081887D01*
X196775022Y-148170746D01*
X196981218Y-148289793D01*
X197087506Y-148296173D01*
X197152555Y-148278743D01*
X197241414Y-148220074D01*
X197360461Y-148013878D01*
X197366841Y-147907590D01*
X197349411Y-147842541D01*
X152344285Y-139540380D02*
X152344285Y-138540380D01*
X151772857Y-139540380D02*
X152201428Y-138968952D01*
X151772857Y-138540380D02*
X152344285Y-139111809D01*
X150915714Y-138873714D02*
X150915714Y-139540380D01*
X151153809Y-138492761D02*
X151391904Y-139207047D01*
X150772857Y-139207047D01*
X150487142Y-138540380D02*
X149868095Y-138540380D01*
X150201428Y-138921333D01*
X150058571Y-138921333D01*
X149963333Y-138968952D01*
X149915714Y-139016571D01*
X149868095Y-139111809D01*
X149868095Y-139349904D01*
X149915714Y-139445142D01*
X149963333Y-139492761D01*
X150058571Y-139540380D01*
X150344285Y-139540380D01*
X150439523Y-139492761D01*
X150487142Y-139445142D01*
X133294285Y-142080380D02*
X133294285Y-141080380D01*
X132722857Y-142080380D02*
X133151428Y-141508952D01*
X132722857Y-141080380D02*
X133294285Y-141651809D01*
X131865714Y-141413714D02*
X131865714Y-142080380D01*
X132103809Y-141032761D02*
X132341904Y-141747047D01*
X131722857Y-141747047D01*
X131389523Y-141175619D02*
X131341904Y-141128000D01*
X131246666Y-141080380D01*
X131008571Y-141080380D01*
X130913333Y-141128000D01*
X130865714Y-141175619D01*
X130818095Y-141270857D01*
X130818095Y-141366095D01*
X130865714Y-141508952D01*
X131437142Y-142080380D01*
X130818095Y-142080380D01*
X114244285Y-146525380D02*
X114244285Y-145525380D01*
X113672857Y-146525380D02*
X114101428Y-145953952D01*
X113672857Y-145525380D02*
X114244285Y-146096809D01*
X112815714Y-145858714D02*
X112815714Y-146525380D01*
X113053809Y-145477761D02*
X113291904Y-146192047D01*
X112672857Y-146192047D01*
X111768095Y-146525380D02*
X112339523Y-146525380D01*
X112053809Y-146525380D02*
X112053809Y-145525380D01*
X112149047Y-145668238D01*
X112244285Y-145763476D01*
X112339523Y-145811095D01*
X95194285Y-146525380D02*
X95194285Y-145525380D01*
X94622857Y-146525380D02*
X95051428Y-145953952D01*
X94622857Y-145525380D02*
X95194285Y-146096809D01*
X93765714Y-145858714D02*
X93765714Y-146525380D01*
X94003809Y-145477761D02*
X94241904Y-146192047D01*
X93622857Y-146192047D01*
X93051428Y-145525380D02*
X92956190Y-145525380D01*
X92860952Y-145573000D01*
X92813333Y-145620619D01*
X92765714Y-145715857D01*
X92718095Y-145906333D01*
X92718095Y-146144428D01*
X92765714Y-146334904D01*
X92813333Y-146430142D01*
X92860952Y-146477761D01*
X92956190Y-146525380D01*
X93051428Y-146525380D01*
X93146666Y-146477761D01*
X93194285Y-146430142D01*
X93241904Y-146334904D01*
X93289523Y-146144428D01*
X93289523Y-145906333D01*
X93241904Y-145715857D01*
X93194285Y-145620619D01*
X93146666Y-145573000D01*
X93051428Y-145525380D01*
X227826411Y-140928465D02*
X228326411Y-140062439D01*
X227331540Y-140642750D02*
X227988408Y-140362165D01*
X227831540Y-139776725D02*
X228040697Y-140557311D01*
X227542865Y-139610058D02*
X227006754Y-139300535D01*
X227104952Y-139797116D01*
X226981235Y-139725687D01*
X226874946Y-139719307D01*
X226809898Y-139736737D01*
X226721039Y-139795406D01*
X226601992Y-140001603D01*
X226595612Y-140107891D01*
X226613042Y-140172940D01*
X226671711Y-140261798D01*
X226919147Y-140404655D01*
X227025435Y-140411035D01*
X227090484Y-140393605D01*
X226264446Y-138871963D02*
X226429403Y-138967201D01*
X226488072Y-139056060D01*
X226505502Y-139121108D01*
X226516552Y-139292445D01*
X226462553Y-139481212D01*
X226272077Y-139811127D01*
X226183219Y-139869796D01*
X226118170Y-139887225D01*
X226011882Y-139880846D01*
X225846925Y-139785608D01*
X225788256Y-139696749D01*
X225770826Y-139631700D01*
X225777206Y-139525412D01*
X225896253Y-139319216D01*
X225985112Y-139260547D01*
X226050160Y-139243117D01*
X226156448Y-139249497D01*
X226321406Y-139344735D01*
X226380075Y-139433593D01*
X226397505Y-139498642D01*
X226391125Y-139604930D01*
X190444285Y-124935380D02*
X190444285Y-123935380D01*
X189872857Y-124935380D02*
X190301428Y-124363952D01*
X189872857Y-123935380D02*
X190444285Y-124506809D01*
X189539523Y-123935380D02*
X188920476Y-123935380D01*
X189253809Y-124316333D01*
X189110952Y-124316333D01*
X189015714Y-124363952D01*
X188968095Y-124411571D01*
X188920476Y-124506809D01*
X188920476Y-124744904D01*
X188968095Y-124840142D01*
X189015714Y-124887761D01*
X189110952Y-124935380D01*
X189396666Y-124935380D01*
X189491904Y-124887761D01*
X189539523Y-124840142D01*
X188015714Y-123935380D02*
X188491904Y-123935380D01*
X188539523Y-124411571D01*
X188491904Y-124363952D01*
X188396666Y-124316333D01*
X188158571Y-124316333D01*
X188063333Y-124363952D01*
X188015714Y-124411571D01*
X187968095Y-124506809D01*
X187968095Y-124744904D01*
X188015714Y-124840142D01*
X188063333Y-124887761D01*
X188158571Y-124935380D01*
X188396666Y-124935380D01*
X188491904Y-124887761D01*
X188539523Y-124840142D01*
X171394285Y-123030380D02*
X171394285Y-122030380D01*
X170822857Y-123030380D02*
X171251428Y-122458952D01*
X170822857Y-122030380D02*
X171394285Y-122601809D01*
X170489523Y-122030380D02*
X169870476Y-122030380D01*
X170203809Y-122411333D01*
X170060952Y-122411333D01*
X169965714Y-122458952D01*
X169918095Y-122506571D01*
X169870476Y-122601809D01*
X169870476Y-122839904D01*
X169918095Y-122935142D01*
X169965714Y-122982761D01*
X170060952Y-123030380D01*
X170346666Y-123030380D01*
X170441904Y-122982761D01*
X170489523Y-122935142D01*
X169013333Y-122363714D02*
X169013333Y-123030380D01*
X169251428Y-121982761D02*
X169489523Y-122697047D01*
X168870476Y-122697047D01*
X152344285Y-120490380D02*
X152344285Y-119490380D01*
X151772857Y-120490380D02*
X152201428Y-119918952D01*
X151772857Y-119490380D02*
X152344285Y-120061809D01*
X151439523Y-119490380D02*
X150820476Y-119490380D01*
X151153809Y-119871333D01*
X151010952Y-119871333D01*
X150915714Y-119918952D01*
X150868095Y-119966571D01*
X150820476Y-120061809D01*
X150820476Y-120299904D01*
X150868095Y-120395142D01*
X150915714Y-120442761D01*
X151010952Y-120490380D01*
X151296666Y-120490380D01*
X151391904Y-120442761D01*
X151439523Y-120395142D01*
X150487142Y-119490380D02*
X149868095Y-119490380D01*
X150201428Y-119871333D01*
X150058571Y-119871333D01*
X149963333Y-119918952D01*
X149915714Y-119966571D01*
X149868095Y-120061809D01*
X149868095Y-120299904D01*
X149915714Y-120395142D01*
X149963333Y-120442761D01*
X150058571Y-120490380D01*
X150344285Y-120490380D01*
X150439523Y-120442761D01*
X150487142Y-120395142D01*
X133294285Y-123030380D02*
X133294285Y-122030380D01*
X132722857Y-123030380D02*
X133151428Y-122458952D01*
X132722857Y-122030380D02*
X133294285Y-122601809D01*
X132389523Y-122030380D02*
X131770476Y-122030380D01*
X132103809Y-122411333D01*
X131960952Y-122411333D01*
X131865714Y-122458952D01*
X131818095Y-122506571D01*
X131770476Y-122601809D01*
X131770476Y-122839904D01*
X131818095Y-122935142D01*
X131865714Y-122982761D01*
X131960952Y-123030380D01*
X132246666Y-123030380D01*
X132341904Y-122982761D01*
X132389523Y-122935142D01*
X131389523Y-122125619D02*
X131341904Y-122078000D01*
X131246666Y-122030380D01*
X131008571Y-122030380D01*
X130913333Y-122078000D01*
X130865714Y-122125619D01*
X130818095Y-122220857D01*
X130818095Y-122316095D01*
X130865714Y-122458952D01*
X131437142Y-123030380D01*
X130818095Y-123030380D01*
X114244285Y-127475380D02*
X114244285Y-126475380D01*
X113672857Y-127475380D02*
X114101428Y-126903952D01*
X113672857Y-126475380D02*
X114244285Y-127046809D01*
X113339523Y-126475380D02*
X112720476Y-126475380D01*
X113053809Y-126856333D01*
X112910952Y-126856333D01*
X112815714Y-126903952D01*
X112768095Y-126951571D01*
X112720476Y-127046809D01*
X112720476Y-127284904D01*
X112768095Y-127380142D01*
X112815714Y-127427761D01*
X112910952Y-127475380D01*
X113196666Y-127475380D01*
X113291904Y-127427761D01*
X113339523Y-127380142D01*
X111768095Y-127475380D02*
X112339523Y-127475380D01*
X112053809Y-127475380D02*
X112053809Y-126475380D01*
X112149047Y-126618238D01*
X112244285Y-126713476D01*
X112339523Y-126761095D01*
X211316411Y-131403465D02*
X211816411Y-130537439D01*
X210821540Y-131117750D02*
X211478408Y-130837165D01*
X211321540Y-130251725D02*
X211530697Y-131032311D01*
X210944006Y-130143727D02*
X210926576Y-130078679D01*
X210867907Y-129989820D01*
X210661711Y-129870773D01*
X210555423Y-129864393D01*
X210490374Y-129881823D01*
X210401515Y-129940492D01*
X210353896Y-130022970D01*
X210323707Y-130170498D01*
X210532865Y-130951084D01*
X209996754Y-130641560D01*
X209754446Y-129346963D02*
X209919403Y-129442201D01*
X209978072Y-129531060D01*
X209995502Y-129596108D01*
X210006552Y-129767445D01*
X209952553Y-129956212D01*
X209762077Y-130286127D01*
X209673219Y-130344796D01*
X209608170Y-130362225D01*
X209501882Y-130355846D01*
X209336925Y-130260608D01*
X209278256Y-130171749D01*
X209260826Y-130106700D01*
X209267206Y-130000412D01*
X209386253Y-129794216D01*
X209475112Y-129735547D01*
X209540160Y-129718117D01*
X209646448Y-129724497D01*
X209811406Y-129819735D01*
X209870075Y-129908593D01*
X209887505Y-129973642D01*
X209881125Y-130079930D01*
X190444285Y-105885380D02*
X190444285Y-104885380D01*
X189872857Y-105885380D02*
X190301428Y-105313952D01*
X189872857Y-104885380D02*
X190444285Y-105456809D01*
X189491904Y-104980619D02*
X189444285Y-104933000D01*
X189349047Y-104885380D01*
X189110952Y-104885380D01*
X189015714Y-104933000D01*
X188968095Y-104980619D01*
X188920476Y-105075857D01*
X188920476Y-105171095D01*
X188968095Y-105313952D01*
X189539523Y-105885380D01*
X188920476Y-105885380D01*
X188015714Y-104885380D02*
X188491904Y-104885380D01*
X188539523Y-105361571D01*
X188491904Y-105313952D01*
X188396666Y-105266333D01*
X188158571Y-105266333D01*
X188063333Y-105313952D01*
X188015714Y-105361571D01*
X187968095Y-105456809D01*
X187968095Y-105694904D01*
X188015714Y-105790142D01*
X188063333Y-105837761D01*
X188158571Y-105885380D01*
X188396666Y-105885380D01*
X188491904Y-105837761D01*
X188539523Y-105790142D01*
X171394285Y-103980380D02*
X171394285Y-102980380D01*
X170822857Y-103980380D02*
X171251428Y-103408952D01*
X170822857Y-102980380D02*
X171394285Y-103551809D01*
X170441904Y-103075619D02*
X170394285Y-103028000D01*
X170299047Y-102980380D01*
X170060952Y-102980380D01*
X169965714Y-103028000D01*
X169918095Y-103075619D01*
X169870476Y-103170857D01*
X169870476Y-103266095D01*
X169918095Y-103408952D01*
X170489523Y-103980380D01*
X169870476Y-103980380D01*
X169013333Y-103313714D02*
X169013333Y-103980380D01*
X169251428Y-102932761D02*
X169489523Y-103647047D01*
X168870476Y-103647047D01*
X152344285Y-101440380D02*
X152344285Y-100440380D01*
X151772857Y-101440380D02*
X152201428Y-100868952D01*
X151772857Y-100440380D02*
X152344285Y-101011809D01*
X151391904Y-100535619D02*
X151344285Y-100488000D01*
X151249047Y-100440380D01*
X151010952Y-100440380D01*
X150915714Y-100488000D01*
X150868095Y-100535619D01*
X150820476Y-100630857D01*
X150820476Y-100726095D01*
X150868095Y-100868952D01*
X151439523Y-101440380D01*
X150820476Y-101440380D01*
X150487142Y-100440380D02*
X149868095Y-100440380D01*
X150201428Y-100821333D01*
X150058571Y-100821333D01*
X149963333Y-100868952D01*
X149915714Y-100916571D01*
X149868095Y-101011809D01*
X149868095Y-101249904D01*
X149915714Y-101345142D01*
X149963333Y-101392761D01*
X150058571Y-101440380D01*
X150344285Y-101440380D01*
X150439523Y-101392761D01*
X150487142Y-101345142D01*
X133294285Y-103980380D02*
X133294285Y-102980380D01*
X132722857Y-103980380D02*
X133151428Y-103408952D01*
X132722857Y-102980380D02*
X133294285Y-103551809D01*
X132341904Y-103075619D02*
X132294285Y-103028000D01*
X132199047Y-102980380D01*
X131960952Y-102980380D01*
X131865714Y-103028000D01*
X131818095Y-103075619D01*
X131770476Y-103170857D01*
X131770476Y-103266095D01*
X131818095Y-103408952D01*
X132389523Y-103980380D01*
X131770476Y-103980380D01*
X131389523Y-103075619D02*
X131341904Y-103028000D01*
X131246666Y-102980380D01*
X131008571Y-102980380D01*
X130913333Y-103028000D01*
X130865714Y-103075619D01*
X130818095Y-103170857D01*
X130818095Y-103266095D01*
X130865714Y-103408952D01*
X131437142Y-103980380D01*
X130818095Y-103980380D01*
X114244285Y-108425380D02*
X114244285Y-107425380D01*
X113672857Y-108425380D02*
X114101428Y-107853952D01*
X113672857Y-107425380D02*
X114244285Y-107996809D01*
X113291904Y-107520619D02*
X113244285Y-107473000D01*
X113149047Y-107425380D01*
X112910952Y-107425380D01*
X112815714Y-107473000D01*
X112768095Y-107520619D01*
X112720476Y-107615857D01*
X112720476Y-107711095D01*
X112768095Y-107853952D01*
X113339523Y-108425380D01*
X112720476Y-108425380D01*
X111768095Y-108425380D02*
X112339523Y-108425380D01*
X112053809Y-108425380D02*
X112053809Y-107425380D01*
X112149047Y-107568238D01*
X112244285Y-107663476D01*
X112339523Y-107711095D01*
X205684380Y-96575714D02*
X204684380Y-96575714D01*
X205684380Y-97147142D02*
X205112952Y-96718571D01*
X204684380Y-97147142D02*
X205255809Y-96575714D01*
X205684380Y-98099523D02*
X205684380Y-97528095D01*
X205684380Y-97813809D02*
X204684380Y-97813809D01*
X204827238Y-97718571D01*
X204922476Y-97623333D01*
X204970095Y-97528095D01*
X204684380Y-98956666D02*
X204684380Y-98766190D01*
X204732000Y-98670952D01*
X204779619Y-98623333D01*
X204922476Y-98528095D01*
X205112952Y-98480476D01*
X205493904Y-98480476D01*
X205589142Y-98528095D01*
X205636761Y-98575714D01*
X205684380Y-98670952D01*
X205684380Y-98861428D01*
X205636761Y-98956666D01*
X205589142Y-99004285D01*
X205493904Y-99051904D01*
X205255809Y-99051904D01*
X205160571Y-99004285D01*
X205112952Y-98956666D01*
X205065333Y-98861428D01*
X205065333Y-98670952D01*
X205112952Y-98575714D01*
X205160571Y-98528095D01*
X205255809Y-98480476D01*
X190444285Y-86835380D02*
X190444285Y-85835380D01*
X189872857Y-86835380D02*
X190301428Y-86263952D01*
X189872857Y-85835380D02*
X190444285Y-86406809D01*
X188920476Y-86835380D02*
X189491904Y-86835380D01*
X189206190Y-86835380D02*
X189206190Y-85835380D01*
X189301428Y-85978238D01*
X189396666Y-86073476D01*
X189491904Y-86121095D01*
X188015714Y-85835380D02*
X188491904Y-85835380D01*
X188539523Y-86311571D01*
X188491904Y-86263952D01*
X188396666Y-86216333D01*
X188158571Y-86216333D01*
X188063333Y-86263952D01*
X188015714Y-86311571D01*
X187968095Y-86406809D01*
X187968095Y-86644904D01*
X188015714Y-86740142D01*
X188063333Y-86787761D01*
X188158571Y-86835380D01*
X188396666Y-86835380D01*
X188491904Y-86787761D01*
X188539523Y-86740142D01*
X171394285Y-84930380D02*
X171394285Y-83930380D01*
X170822857Y-84930380D02*
X171251428Y-84358952D01*
X170822857Y-83930380D02*
X171394285Y-84501809D01*
X169870476Y-84930380D02*
X170441904Y-84930380D01*
X170156190Y-84930380D02*
X170156190Y-83930380D01*
X170251428Y-84073238D01*
X170346666Y-84168476D01*
X170441904Y-84216095D01*
X169013333Y-84263714D02*
X169013333Y-84930380D01*
X169251428Y-83882761D02*
X169489523Y-84597047D01*
X168870476Y-84597047D01*
X152344285Y-82390380D02*
X152344285Y-81390380D01*
X151772857Y-82390380D02*
X152201428Y-81818952D01*
X151772857Y-81390380D02*
X152344285Y-81961809D01*
X150820476Y-82390380D02*
X151391904Y-82390380D01*
X151106190Y-82390380D02*
X151106190Y-81390380D01*
X151201428Y-81533238D01*
X151296666Y-81628476D01*
X151391904Y-81676095D01*
X150487142Y-81390380D02*
X149868095Y-81390380D01*
X150201428Y-81771333D01*
X150058571Y-81771333D01*
X149963333Y-81818952D01*
X149915714Y-81866571D01*
X149868095Y-81961809D01*
X149868095Y-82199904D01*
X149915714Y-82295142D01*
X149963333Y-82342761D01*
X150058571Y-82390380D01*
X150344285Y-82390380D01*
X150439523Y-82342761D01*
X150487142Y-82295142D01*
X133294285Y-84930380D02*
X133294285Y-83930380D01*
X132722857Y-84930380D02*
X133151428Y-84358952D01*
X132722857Y-83930380D02*
X133294285Y-84501809D01*
X131770476Y-84930380D02*
X132341904Y-84930380D01*
X132056190Y-84930380D02*
X132056190Y-83930380D01*
X132151428Y-84073238D01*
X132246666Y-84168476D01*
X132341904Y-84216095D01*
X131389523Y-84025619D02*
X131341904Y-83978000D01*
X131246666Y-83930380D01*
X131008571Y-83930380D01*
X130913333Y-83978000D01*
X130865714Y-84025619D01*
X130818095Y-84120857D01*
X130818095Y-84216095D01*
X130865714Y-84358952D01*
X131437142Y-84930380D01*
X130818095Y-84930380D01*
X114244285Y-89375380D02*
X114244285Y-88375380D01*
X113672857Y-89375380D02*
X114101428Y-88803952D01*
X113672857Y-88375380D02*
X114244285Y-88946809D01*
X112720476Y-89375380D02*
X113291904Y-89375380D01*
X113006190Y-89375380D02*
X113006190Y-88375380D01*
X113101428Y-88518238D01*
X113196666Y-88613476D01*
X113291904Y-88661095D01*
X111768095Y-89375380D02*
X112339523Y-89375380D01*
X112053809Y-89375380D02*
X112053809Y-88375380D01*
X112149047Y-88518238D01*
X112244285Y-88613476D01*
X112339523Y-88661095D01*
X209018095Y-77310380D02*
X209018095Y-76310380D01*
X208446666Y-77310380D02*
X208875238Y-76738952D01*
X208446666Y-76310380D02*
X209018095Y-76881809D01*
X207589523Y-76310380D02*
X207780000Y-76310380D01*
X207875238Y-76358000D01*
X207922857Y-76405619D01*
X208018095Y-76548476D01*
X208065714Y-76738952D01*
X208065714Y-77119904D01*
X208018095Y-77215142D01*
X207970476Y-77262761D01*
X207875238Y-77310380D01*
X207684761Y-77310380D01*
X207589523Y-77262761D01*
X207541904Y-77215142D01*
X207494285Y-77119904D01*
X207494285Y-76881809D01*
X207541904Y-76786571D01*
X207589523Y-76738952D01*
X207684761Y-76691333D01*
X207875238Y-76691333D01*
X207970476Y-76738952D01*
X208018095Y-76786571D01*
X208065714Y-76881809D01*
X189968095Y-67785380D02*
X189968095Y-66785380D01*
X189396666Y-67785380D02*
X189825238Y-67213952D01*
X189396666Y-66785380D02*
X189968095Y-67356809D01*
X188491904Y-66785380D02*
X188968095Y-66785380D01*
X189015714Y-67261571D01*
X188968095Y-67213952D01*
X188872857Y-67166333D01*
X188634761Y-67166333D01*
X188539523Y-67213952D01*
X188491904Y-67261571D01*
X188444285Y-67356809D01*
X188444285Y-67594904D01*
X188491904Y-67690142D01*
X188539523Y-67737761D01*
X188634761Y-67785380D01*
X188872857Y-67785380D01*
X188968095Y-67737761D01*
X189015714Y-67690142D01*
X170918095Y-65880380D02*
X170918095Y-64880380D01*
X170346666Y-65880380D02*
X170775238Y-65308952D01*
X170346666Y-64880380D02*
X170918095Y-65451809D01*
X169489523Y-65213714D02*
X169489523Y-65880380D01*
X169727619Y-64832761D02*
X169965714Y-65547047D01*
X169346666Y-65547047D01*
X151868095Y-63340380D02*
X151868095Y-62340380D01*
X151296666Y-63340380D02*
X151725238Y-62768952D01*
X151296666Y-62340380D02*
X151868095Y-62911809D01*
X150963333Y-62340380D02*
X150344285Y-62340380D01*
X150677619Y-62721333D01*
X150534761Y-62721333D01*
X150439523Y-62768952D01*
X150391904Y-62816571D01*
X150344285Y-62911809D01*
X150344285Y-63149904D01*
X150391904Y-63245142D01*
X150439523Y-63292761D01*
X150534761Y-63340380D01*
X150820476Y-63340380D01*
X150915714Y-63292761D01*
X150963333Y-63245142D01*
X132818095Y-65880380D02*
X132818095Y-64880380D01*
X132246666Y-65880380D02*
X132675238Y-65308952D01*
X132246666Y-64880380D02*
X132818095Y-65451809D01*
X131865714Y-64975619D02*
X131818095Y-64928000D01*
X131722857Y-64880380D01*
X131484761Y-64880380D01*
X131389523Y-64928000D01*
X131341904Y-64975619D01*
X131294285Y-65070857D01*
X131294285Y-65166095D01*
X131341904Y-65308952D01*
X131913333Y-65880380D01*
X131294285Y-65880380D01*
X113768095Y-70325380D02*
X113768095Y-69325380D01*
X113196666Y-70325380D02*
X113625238Y-69753952D01*
X113196666Y-69325380D02*
X113768095Y-69896809D01*
X112244285Y-70325380D02*
X112815714Y-70325380D01*
X112530000Y-70325380D02*
X112530000Y-69325380D01*
X112625238Y-69468238D01*
X112720476Y-69563476D01*
X112815714Y-69611095D01*
X201931428Y-58878857D02*
X202331428Y-58878857D01*
X201702857Y-58736000D02*
X202131428Y-58593142D01*
X202131428Y-58964571D01*
X202274285Y-59193142D02*
X202302857Y-59221714D01*
X202331428Y-59193142D01*
X202302857Y-59164571D01*
X202274285Y-59193142D01*
X202331428Y-59193142D01*
X201731428Y-59421714D02*
X201731428Y-59821714D01*
X202331428Y-59564571D01*
X202331428Y-60050285D02*
X201731428Y-60050285D01*
X202102857Y-60107428D02*
X202331428Y-60278857D01*
X201931428Y-60278857D02*
X202160000Y-60050285D01*
X200931428Y-59336000D02*
X200645714Y-59136000D01*
X200931428Y-58993142D02*
X200331428Y-58993142D01*
X200331428Y-59221714D01*
X200360000Y-59278857D01*
X200388571Y-59307428D01*
X200445714Y-59336000D01*
X200531428Y-59336000D01*
X200588571Y-59307428D01*
X200617142Y-59278857D01*
X200645714Y-59221714D01*
X200645714Y-58993142D01*
X200931428Y-59907428D02*
X200931428Y-59564571D01*
X200931428Y-59736000D02*
X200331428Y-59736000D01*
X200417142Y-59678857D01*
X200474285Y-59621714D01*
X200502857Y-59564571D01*
X216155428Y-58878857D02*
X216555428Y-58878857D01*
X215926857Y-58736000D02*
X216355428Y-58593142D01*
X216355428Y-58964571D01*
X216498285Y-59193142D02*
X216526857Y-59221714D01*
X216555428Y-59193142D01*
X216526857Y-59164571D01*
X216498285Y-59193142D01*
X216555428Y-59193142D01*
X215955428Y-59421714D02*
X215955428Y-59821714D01*
X216555428Y-59564571D01*
X216555428Y-60050285D02*
X215955428Y-60050285D01*
X216326857Y-60107428D02*
X216555428Y-60278857D01*
X216155428Y-60278857D02*
X216384000Y-60050285D01*
X215155428Y-59336000D02*
X214869714Y-59136000D01*
X215155428Y-58993142D02*
X214555428Y-58993142D01*
X214555428Y-59221714D01*
X214584000Y-59278857D01*
X214612571Y-59307428D01*
X214669714Y-59336000D01*
X214755428Y-59336000D01*
X214812571Y-59307428D01*
X214841142Y-59278857D01*
X214869714Y-59221714D01*
X214869714Y-58993142D01*
X214612571Y-59564571D02*
X214584000Y-59593142D01*
X214555428Y-59650285D01*
X214555428Y-59793142D01*
X214584000Y-59850285D01*
X214612571Y-59878857D01*
X214669714Y-59907428D01*
X214726857Y-59907428D01*
X214812571Y-59878857D01*
X215155428Y-59536000D01*
X215155428Y-59907428D01*
X82884928Y-60482214D02*
X82884928Y-60139357D01*
X82884928Y-60310785D02*
X82284928Y-60310785D01*
X82370642Y-60253642D01*
X82427785Y-60196500D01*
X82456357Y-60139357D01*
X82284928Y-60853642D02*
X82284928Y-60910785D01*
X82313500Y-60967928D01*
X82342071Y-60996500D01*
X82399214Y-61025071D01*
X82513500Y-61053642D01*
X82656357Y-61053642D01*
X82770642Y-61025071D01*
X82827785Y-60996500D01*
X82856357Y-60967928D01*
X82884928Y-60910785D01*
X82884928Y-60853642D01*
X82856357Y-60796500D01*
X82827785Y-60767928D01*
X82770642Y-60739357D01*
X82656357Y-60710785D01*
X82513500Y-60710785D01*
X82399214Y-60739357D01*
X82342071Y-60767928D01*
X82313500Y-60796500D01*
X82284928Y-60853642D01*
X82884928Y-61310785D02*
X82284928Y-61310785D01*
X82884928Y-61653642D02*
X82542071Y-61396500D01*
X82284928Y-61653642D02*
X82627785Y-61310785D01*
X81424428Y-63379000D02*
X81138714Y-63179000D01*
X81424428Y-63036142D02*
X80824428Y-63036142D01*
X80824428Y-63264714D01*
X80853000Y-63321857D01*
X80881571Y-63350428D01*
X80938714Y-63379000D01*
X81024428Y-63379000D01*
X81081571Y-63350428D01*
X81110142Y-63321857D01*
X81138714Y-63264714D01*
X81138714Y-63036142D01*
X80824428Y-63579000D02*
X80824428Y-63950428D01*
X81053000Y-63750428D01*
X81053000Y-63836142D01*
X81081571Y-63893285D01*
X81110142Y-63921857D01*
X81167285Y-63950428D01*
X81310142Y-63950428D01*
X81367285Y-63921857D01*
X81395857Y-63893285D01*
X81424428Y-63836142D01*
X81424428Y-63664714D01*
X81395857Y-63607571D01*
X81367285Y-63579000D01*
X80405428Y-82229714D02*
X80405428Y-81886857D01*
X80405428Y-82058285D02*
X79805428Y-82058285D01*
X79891142Y-82001142D01*
X79948285Y-81944000D01*
X79976857Y-81886857D01*
X79805428Y-82601142D02*
X79805428Y-82658285D01*
X79834000Y-82715428D01*
X79862571Y-82744000D01*
X79919714Y-82772571D01*
X80034000Y-82801142D01*
X80176857Y-82801142D01*
X80291142Y-82772571D01*
X80348285Y-82744000D01*
X80376857Y-82715428D01*
X80405428Y-82658285D01*
X80405428Y-82601142D01*
X80376857Y-82544000D01*
X80348285Y-82515428D01*
X80291142Y-82486857D01*
X80176857Y-82458285D01*
X80034000Y-82458285D01*
X79919714Y-82486857D01*
X79862571Y-82515428D01*
X79834000Y-82544000D01*
X79805428Y-82601142D01*
X80405428Y-83058285D02*
X79805428Y-83058285D01*
X80405428Y-83401142D02*
X80062571Y-83144000D01*
X79805428Y-83401142D02*
X80148285Y-83058285D01*
X81805428Y-82544000D02*
X81519714Y-82344000D01*
X81805428Y-82201142D02*
X81205428Y-82201142D01*
X81205428Y-82429714D01*
X81234000Y-82486857D01*
X81262571Y-82515428D01*
X81319714Y-82544000D01*
X81405428Y-82544000D01*
X81462571Y-82515428D01*
X81491142Y-82486857D01*
X81519714Y-82429714D01*
X81519714Y-82201142D01*
X81405428Y-83058285D02*
X81805428Y-83058285D01*
X81176857Y-82915428D02*
X81605428Y-82772571D01*
X81605428Y-83144000D01*
X80468928Y-101291714D02*
X80468928Y-100948857D01*
X80468928Y-101120285D02*
X79868928Y-101120285D01*
X79954642Y-101063142D01*
X80011785Y-101006000D01*
X80040357Y-100948857D01*
X79868928Y-101663142D02*
X79868928Y-101720285D01*
X79897500Y-101777428D01*
X79926071Y-101806000D01*
X79983214Y-101834571D01*
X80097500Y-101863142D01*
X80240357Y-101863142D01*
X80354642Y-101834571D01*
X80411785Y-101806000D01*
X80440357Y-101777428D01*
X80468928Y-101720285D01*
X80468928Y-101663142D01*
X80440357Y-101606000D01*
X80411785Y-101577428D01*
X80354642Y-101548857D01*
X80240357Y-101520285D01*
X80097500Y-101520285D01*
X79983214Y-101548857D01*
X79926071Y-101577428D01*
X79897500Y-101606000D01*
X79868928Y-101663142D01*
X80468928Y-102120285D02*
X79868928Y-102120285D01*
X80468928Y-102463142D02*
X80126071Y-102206000D01*
X79868928Y-102463142D02*
X80211785Y-102120285D01*
X81868928Y-101606000D02*
X81583214Y-101406000D01*
X81868928Y-101263142D02*
X81268928Y-101263142D01*
X81268928Y-101491714D01*
X81297500Y-101548857D01*
X81326071Y-101577428D01*
X81383214Y-101606000D01*
X81468928Y-101606000D01*
X81526071Y-101577428D01*
X81554642Y-101548857D01*
X81583214Y-101491714D01*
X81583214Y-101263142D01*
X81268928Y-102148857D02*
X81268928Y-101863142D01*
X81554642Y-101834571D01*
X81526071Y-101863142D01*
X81497500Y-101920285D01*
X81497500Y-102063142D01*
X81526071Y-102120285D01*
X81554642Y-102148857D01*
X81611785Y-102177428D01*
X81754642Y-102177428D01*
X81811785Y-102148857D01*
X81840357Y-102120285D01*
X81868928Y-102063142D01*
X81868928Y-101920285D01*
X81840357Y-101863142D01*
X81811785Y-101834571D01*
X80468928Y-120256714D02*
X80468928Y-119913857D01*
X80468928Y-120085285D02*
X79868928Y-120085285D01*
X79954642Y-120028142D01*
X80011785Y-119971000D01*
X80040357Y-119913857D01*
X79868928Y-120628142D02*
X79868928Y-120685285D01*
X79897500Y-120742428D01*
X79926071Y-120771000D01*
X79983214Y-120799571D01*
X80097500Y-120828142D01*
X80240357Y-120828142D01*
X80354642Y-120799571D01*
X80411785Y-120771000D01*
X80440357Y-120742428D01*
X80468928Y-120685285D01*
X80468928Y-120628142D01*
X80440357Y-120571000D01*
X80411785Y-120542428D01*
X80354642Y-120513857D01*
X80240357Y-120485285D01*
X80097500Y-120485285D01*
X79983214Y-120513857D01*
X79926071Y-120542428D01*
X79897500Y-120571000D01*
X79868928Y-120628142D01*
X80468928Y-121085285D02*
X79868928Y-121085285D01*
X80468928Y-121428142D02*
X80126071Y-121171000D01*
X79868928Y-121428142D02*
X80211785Y-121085285D01*
X81868928Y-120571000D02*
X81583214Y-120371000D01*
X81868928Y-120228142D02*
X81268928Y-120228142D01*
X81268928Y-120456714D01*
X81297500Y-120513857D01*
X81326071Y-120542428D01*
X81383214Y-120571000D01*
X81468928Y-120571000D01*
X81526071Y-120542428D01*
X81554642Y-120513857D01*
X81583214Y-120456714D01*
X81583214Y-120228142D01*
X81268928Y-121085285D02*
X81268928Y-120971000D01*
X81297500Y-120913857D01*
X81326071Y-120885285D01*
X81411785Y-120828142D01*
X81526071Y-120799571D01*
X81754642Y-120799571D01*
X81811785Y-120828142D01*
X81840357Y-120856714D01*
X81868928Y-120913857D01*
X81868928Y-121028142D01*
X81840357Y-121085285D01*
X81811785Y-121113857D01*
X81754642Y-121142428D01*
X81611785Y-121142428D01*
X81554642Y-121113857D01*
X81526071Y-121085285D01*
X81497500Y-121028142D01*
X81497500Y-120913857D01*
X81526071Y-120856714D01*
X81554642Y-120828142D01*
X81611785Y-120799571D01*
X87710928Y-144492714D02*
X87710928Y-144149857D01*
X87710928Y-144321285D02*
X87110928Y-144321285D01*
X87196642Y-144264142D01*
X87253785Y-144207000D01*
X87282357Y-144149857D01*
X87110928Y-144864142D02*
X87110928Y-144921285D01*
X87139500Y-144978428D01*
X87168071Y-145007000D01*
X87225214Y-145035571D01*
X87339500Y-145064142D01*
X87482357Y-145064142D01*
X87596642Y-145035571D01*
X87653785Y-145007000D01*
X87682357Y-144978428D01*
X87710928Y-144921285D01*
X87710928Y-144864142D01*
X87682357Y-144807000D01*
X87653785Y-144778428D01*
X87596642Y-144749857D01*
X87482357Y-144721285D01*
X87339500Y-144721285D01*
X87225214Y-144749857D01*
X87168071Y-144778428D01*
X87139500Y-144807000D01*
X87110928Y-144864142D01*
X87710928Y-145321285D02*
X87110928Y-145321285D01*
X87710928Y-145664142D02*
X87368071Y-145407000D01*
X87110928Y-145664142D02*
X87453785Y-145321285D01*
X86377428Y-146933000D02*
X86091714Y-146733000D01*
X86377428Y-146590142D02*
X85777428Y-146590142D01*
X85777428Y-146818714D01*
X85806000Y-146875857D01*
X85834571Y-146904428D01*
X85891714Y-146933000D01*
X85977428Y-146933000D01*
X86034571Y-146904428D01*
X86063142Y-146875857D01*
X86091714Y-146818714D01*
X86091714Y-146590142D01*
X85777428Y-147133000D02*
X85777428Y-147533000D01*
X86377428Y-147275857D01*
X94083428Y-57586428D02*
X93712000Y-57586428D01*
X93912000Y-57815000D01*
X93826285Y-57815000D01*
X93769142Y-57843571D01*
X93740571Y-57872142D01*
X93712000Y-57929285D01*
X93712000Y-58072142D01*
X93740571Y-58129285D01*
X93769142Y-58157857D01*
X93826285Y-58186428D01*
X93997714Y-58186428D01*
X94054857Y-58157857D01*
X94083428Y-58129285D01*
X93340571Y-57586428D02*
X93283428Y-57586428D01*
X93226285Y-57615000D01*
X93197714Y-57643571D01*
X93169142Y-57700714D01*
X93140571Y-57815000D01*
X93140571Y-57957857D01*
X93169142Y-58072142D01*
X93197714Y-58129285D01*
X93226285Y-58157857D01*
X93283428Y-58186428D01*
X93340571Y-58186428D01*
X93397714Y-58157857D01*
X93426285Y-58129285D01*
X93454857Y-58072142D01*
X93483428Y-57957857D01*
X93483428Y-57815000D01*
X93454857Y-57700714D01*
X93426285Y-57643571D01*
X93397714Y-57615000D01*
X93340571Y-57586428D01*
X92769142Y-57586428D02*
X92712000Y-57586428D01*
X92654857Y-57615000D01*
X92626285Y-57643571D01*
X92597714Y-57700714D01*
X92569142Y-57815000D01*
X92569142Y-57957857D01*
X92597714Y-58072142D01*
X92626285Y-58129285D01*
X92654857Y-58157857D01*
X92712000Y-58186428D01*
X92769142Y-58186428D01*
X92826285Y-58157857D01*
X92854857Y-58129285D01*
X92883428Y-58072142D01*
X92912000Y-57957857D01*
X92912000Y-57815000D01*
X92883428Y-57700714D01*
X92854857Y-57643571D01*
X92826285Y-57615000D01*
X92769142Y-57586428D01*
X93412000Y-56786428D02*
X93612000Y-56500714D01*
X93754857Y-56786428D02*
X93754857Y-56186428D01*
X93526285Y-56186428D01*
X93469142Y-56215000D01*
X93440571Y-56243571D01*
X93412000Y-56300714D01*
X93412000Y-56386428D01*
X93440571Y-56443571D01*
X93469142Y-56472142D01*
X93526285Y-56500714D01*
X93754857Y-56500714D01*
X93069142Y-56443571D02*
X93126285Y-56415000D01*
X93154857Y-56386428D01*
X93183428Y-56329285D01*
X93183428Y-56300714D01*
X93154857Y-56243571D01*
X93126285Y-56215000D01*
X93069142Y-56186428D01*
X92954857Y-56186428D01*
X92897714Y-56215000D01*
X92869142Y-56243571D01*
X92840571Y-56300714D01*
X92840571Y-56329285D01*
X92869142Y-56386428D01*
X92897714Y-56415000D01*
X92954857Y-56443571D01*
X93069142Y-56443571D01*
X93126285Y-56472142D01*
X93154857Y-56500714D01*
X93183428Y-56557857D01*
X93183428Y-56672142D01*
X93154857Y-56729285D01*
X93126285Y-56757857D01*
X93069142Y-56786428D01*
X92954857Y-56786428D01*
X92897714Y-56757857D01*
X92869142Y-56729285D01*
X92840571Y-56672142D01*
X92840571Y-56557857D01*
X92869142Y-56500714D01*
X92897714Y-56472142D01*
X92954857Y-56443571D01*
X105165428Y-57646928D02*
X104794000Y-57646928D01*
X104994000Y-57875500D01*
X104908285Y-57875500D01*
X104851142Y-57904071D01*
X104822571Y-57932642D01*
X104794000Y-57989785D01*
X104794000Y-58132642D01*
X104822571Y-58189785D01*
X104851142Y-58218357D01*
X104908285Y-58246928D01*
X105079714Y-58246928D01*
X105136857Y-58218357D01*
X105165428Y-58189785D01*
X104422571Y-57646928D02*
X104365428Y-57646928D01*
X104308285Y-57675500D01*
X104279714Y-57704071D01*
X104251142Y-57761214D01*
X104222571Y-57875500D01*
X104222571Y-58018357D01*
X104251142Y-58132642D01*
X104279714Y-58189785D01*
X104308285Y-58218357D01*
X104365428Y-58246928D01*
X104422571Y-58246928D01*
X104479714Y-58218357D01*
X104508285Y-58189785D01*
X104536857Y-58132642D01*
X104565428Y-58018357D01*
X104565428Y-57875500D01*
X104536857Y-57761214D01*
X104508285Y-57704071D01*
X104479714Y-57675500D01*
X104422571Y-57646928D01*
X103851142Y-57646928D02*
X103794000Y-57646928D01*
X103736857Y-57675500D01*
X103708285Y-57704071D01*
X103679714Y-57761214D01*
X103651142Y-57875500D01*
X103651142Y-58018357D01*
X103679714Y-58132642D01*
X103708285Y-58189785D01*
X103736857Y-58218357D01*
X103794000Y-58246928D01*
X103851142Y-58246928D01*
X103908285Y-58218357D01*
X103936857Y-58189785D01*
X103965428Y-58132642D01*
X103994000Y-58018357D01*
X103994000Y-57875500D01*
X103965428Y-57761214D01*
X103936857Y-57704071D01*
X103908285Y-57675500D01*
X103851142Y-57646928D01*
X104524500Y-56849928D02*
X104724500Y-56564214D01*
X104867357Y-56849928D02*
X104867357Y-56249928D01*
X104638785Y-56249928D01*
X104581642Y-56278500D01*
X104553071Y-56307071D01*
X104524500Y-56364214D01*
X104524500Y-56449928D01*
X104553071Y-56507071D01*
X104581642Y-56535642D01*
X104638785Y-56564214D01*
X104867357Y-56564214D01*
X104238785Y-56849928D02*
X104124500Y-56849928D01*
X104067357Y-56821357D01*
X104038785Y-56792785D01*
X103981642Y-56707071D01*
X103953071Y-56592785D01*
X103953071Y-56364214D01*
X103981642Y-56307071D01*
X104010214Y-56278500D01*
X104067357Y-56249928D01*
X104181642Y-56249928D01*
X104238785Y-56278500D01*
X104267357Y-56307071D01*
X104295928Y-56364214D01*
X104295928Y-56507071D01*
X104267357Y-56564214D01*
X104238785Y-56592785D01*
X104181642Y-56621357D01*
X104067357Y-56621357D01*
X104010214Y-56592785D01*
X103981642Y-56564214D01*
X103953071Y-56507071D01*
X129262428Y-51865428D02*
X128891000Y-51865428D01*
X129091000Y-52094000D01*
X129005285Y-52094000D01*
X128948142Y-52122571D01*
X128919571Y-52151142D01*
X128891000Y-52208285D01*
X128891000Y-52351142D01*
X128919571Y-52408285D01*
X128948142Y-52436857D01*
X129005285Y-52465428D01*
X129176714Y-52465428D01*
X129233857Y-52436857D01*
X129262428Y-52408285D01*
X128519571Y-51865428D02*
X128462428Y-51865428D01*
X128405285Y-51894000D01*
X128376714Y-51922571D01*
X128348142Y-51979714D01*
X128319571Y-52094000D01*
X128319571Y-52236857D01*
X128348142Y-52351142D01*
X128376714Y-52408285D01*
X128405285Y-52436857D01*
X128462428Y-52465428D01*
X128519571Y-52465428D01*
X128576714Y-52436857D01*
X128605285Y-52408285D01*
X128633857Y-52351142D01*
X128662428Y-52236857D01*
X128662428Y-52094000D01*
X128633857Y-51979714D01*
X128605285Y-51922571D01*
X128576714Y-51894000D01*
X128519571Y-51865428D01*
X127948142Y-51865428D02*
X127891000Y-51865428D01*
X127833857Y-51894000D01*
X127805285Y-51922571D01*
X127776714Y-51979714D01*
X127748142Y-52094000D01*
X127748142Y-52236857D01*
X127776714Y-52351142D01*
X127805285Y-52408285D01*
X127833857Y-52436857D01*
X127891000Y-52465428D01*
X127948142Y-52465428D01*
X128005285Y-52436857D01*
X128033857Y-52408285D01*
X128062428Y-52351142D01*
X128091000Y-52236857D01*
X128091000Y-52094000D01*
X128062428Y-51979714D01*
X128033857Y-51922571D01*
X128005285Y-51894000D01*
X127948142Y-51865428D01*
X128876714Y-53865428D02*
X129076714Y-53579714D01*
X129219571Y-53865428D02*
X129219571Y-53265428D01*
X128991000Y-53265428D01*
X128933857Y-53294000D01*
X128905285Y-53322571D01*
X128876714Y-53379714D01*
X128876714Y-53465428D01*
X128905285Y-53522571D01*
X128933857Y-53551142D01*
X128991000Y-53579714D01*
X129219571Y-53579714D01*
X128305285Y-53865428D02*
X128648142Y-53865428D01*
X128476714Y-53865428D02*
X128476714Y-53265428D01*
X128533857Y-53351142D01*
X128591000Y-53408285D01*
X128648142Y-53436857D01*
X127933857Y-53265428D02*
X127876714Y-53265428D01*
X127819571Y-53294000D01*
X127791000Y-53322571D01*
X127762428Y-53379714D01*
X127733857Y-53494000D01*
X127733857Y-53636857D01*
X127762428Y-53751142D01*
X127791000Y-53808285D01*
X127819571Y-53836857D01*
X127876714Y-53865428D01*
X127933857Y-53865428D01*
X127991000Y-53836857D01*
X128019571Y-53808285D01*
X128048142Y-53751142D01*
X128076714Y-53636857D01*
X128076714Y-53494000D01*
X128048142Y-53379714D01*
X128019571Y-53322571D01*
X127991000Y-53294000D01*
X127933857Y-53265428D01*
X162996428Y-139022571D02*
X162996428Y-139394000D01*
X163225000Y-139194000D01*
X163225000Y-139279714D01*
X163253571Y-139336857D01*
X163282142Y-139365428D01*
X163339285Y-139394000D01*
X163482142Y-139394000D01*
X163539285Y-139365428D01*
X163567857Y-139336857D01*
X163596428Y-139279714D01*
X163596428Y-139108285D01*
X163567857Y-139051142D01*
X163539285Y-139022571D01*
X162996428Y-139765428D02*
X162996428Y-139822571D01*
X163025000Y-139879714D01*
X163053571Y-139908285D01*
X163110714Y-139936857D01*
X163225000Y-139965428D01*
X163367857Y-139965428D01*
X163482142Y-139936857D01*
X163539285Y-139908285D01*
X163567857Y-139879714D01*
X163596428Y-139822571D01*
X163596428Y-139765428D01*
X163567857Y-139708285D01*
X163539285Y-139679714D01*
X163482142Y-139651142D01*
X163367857Y-139622571D01*
X163225000Y-139622571D01*
X163110714Y-139651142D01*
X163053571Y-139679714D01*
X163025000Y-139708285D01*
X162996428Y-139765428D01*
X162996428Y-140336857D02*
X162996428Y-140394000D01*
X163025000Y-140451142D01*
X163053571Y-140479714D01*
X163110714Y-140508285D01*
X163225000Y-140536857D01*
X163367857Y-140536857D01*
X163482142Y-140508285D01*
X163539285Y-140479714D01*
X163567857Y-140451142D01*
X163596428Y-140394000D01*
X163596428Y-140336857D01*
X163567857Y-140279714D01*
X163539285Y-140251142D01*
X163482142Y-140222571D01*
X163367857Y-140194000D01*
X163225000Y-140194000D01*
X163110714Y-140222571D01*
X163053571Y-140251142D01*
X163025000Y-140279714D01*
X162996428Y-140336857D01*
X162196428Y-139408285D02*
X161910714Y-139208285D01*
X162196428Y-139065428D02*
X161596428Y-139065428D01*
X161596428Y-139294000D01*
X161625000Y-139351142D01*
X161653571Y-139379714D01*
X161710714Y-139408285D01*
X161796428Y-139408285D01*
X161853571Y-139379714D01*
X161882142Y-139351142D01*
X161910714Y-139294000D01*
X161910714Y-139065428D01*
X162196428Y-139979714D02*
X162196428Y-139636857D01*
X162196428Y-139808285D02*
X161596428Y-139808285D01*
X161682142Y-139751142D01*
X161739285Y-139694000D01*
X161767857Y-139636857D01*
X162196428Y-140551142D02*
X162196428Y-140208285D01*
X162196428Y-140379714D02*
X161596428Y-140379714D01*
X161682142Y-140322571D01*
X161739285Y-140265428D01*
X161767857Y-140208285D01*
X192320428Y-137977428D02*
X191949000Y-137977428D01*
X192149000Y-138206000D01*
X192063285Y-138206000D01*
X192006142Y-138234571D01*
X191977571Y-138263142D01*
X191949000Y-138320285D01*
X191949000Y-138463142D01*
X191977571Y-138520285D01*
X192006142Y-138548857D01*
X192063285Y-138577428D01*
X192234714Y-138577428D01*
X192291857Y-138548857D01*
X192320428Y-138520285D01*
X191577571Y-137977428D02*
X191520428Y-137977428D01*
X191463285Y-138006000D01*
X191434714Y-138034571D01*
X191406142Y-138091714D01*
X191377571Y-138206000D01*
X191377571Y-138348857D01*
X191406142Y-138463142D01*
X191434714Y-138520285D01*
X191463285Y-138548857D01*
X191520428Y-138577428D01*
X191577571Y-138577428D01*
X191634714Y-138548857D01*
X191663285Y-138520285D01*
X191691857Y-138463142D01*
X191720428Y-138348857D01*
X191720428Y-138206000D01*
X191691857Y-138091714D01*
X191663285Y-138034571D01*
X191634714Y-138006000D01*
X191577571Y-137977428D01*
X191006142Y-137977428D02*
X190949000Y-137977428D01*
X190891857Y-138006000D01*
X190863285Y-138034571D01*
X190834714Y-138091714D01*
X190806142Y-138206000D01*
X190806142Y-138348857D01*
X190834714Y-138463142D01*
X190863285Y-138520285D01*
X190891857Y-138548857D01*
X190949000Y-138577428D01*
X191006142Y-138577428D01*
X191063285Y-138548857D01*
X191091857Y-138520285D01*
X191120428Y-138463142D01*
X191149000Y-138348857D01*
X191149000Y-138206000D01*
X191120428Y-138091714D01*
X191091857Y-138034571D01*
X191063285Y-138006000D01*
X191006142Y-137977428D01*
X191934714Y-137177428D02*
X192134714Y-136891714D01*
X192277571Y-137177428D02*
X192277571Y-136577428D01*
X192049000Y-136577428D01*
X191991857Y-136606000D01*
X191963285Y-136634571D01*
X191934714Y-136691714D01*
X191934714Y-136777428D01*
X191963285Y-136834571D01*
X191991857Y-136863142D01*
X192049000Y-136891714D01*
X192277571Y-136891714D01*
X191363285Y-137177428D02*
X191706142Y-137177428D01*
X191534714Y-137177428D02*
X191534714Y-136577428D01*
X191591857Y-136663142D01*
X191649000Y-136720285D01*
X191706142Y-136748857D01*
X191134714Y-136634571D02*
X191106142Y-136606000D01*
X191049000Y-136577428D01*
X190906142Y-136577428D01*
X190849000Y-136606000D01*
X190820428Y-136634571D01*
X190791857Y-136691714D01*
X190791857Y-136748857D01*
X190820428Y-136834571D01*
X191163285Y-137177428D01*
X190791857Y-137177428D01*
X206998928Y-112703071D02*
X206998928Y-113074500D01*
X207227500Y-112874500D01*
X207227500Y-112960214D01*
X207256071Y-113017357D01*
X207284642Y-113045928D01*
X207341785Y-113074500D01*
X207484642Y-113074500D01*
X207541785Y-113045928D01*
X207570357Y-113017357D01*
X207598928Y-112960214D01*
X207598928Y-112788785D01*
X207570357Y-112731642D01*
X207541785Y-112703071D01*
X206998928Y-113445928D02*
X206998928Y-113503071D01*
X207027500Y-113560214D01*
X207056071Y-113588785D01*
X207113214Y-113617357D01*
X207227500Y-113645928D01*
X207370357Y-113645928D01*
X207484642Y-113617357D01*
X207541785Y-113588785D01*
X207570357Y-113560214D01*
X207598928Y-113503071D01*
X207598928Y-113445928D01*
X207570357Y-113388785D01*
X207541785Y-113360214D01*
X207484642Y-113331642D01*
X207370357Y-113303071D01*
X207227500Y-113303071D01*
X207113214Y-113331642D01*
X207056071Y-113360214D01*
X207027500Y-113388785D01*
X206998928Y-113445928D01*
X206998928Y-114017357D02*
X206998928Y-114074500D01*
X207027500Y-114131642D01*
X207056071Y-114160214D01*
X207113214Y-114188785D01*
X207227500Y-114217357D01*
X207370357Y-114217357D01*
X207484642Y-114188785D01*
X207541785Y-114160214D01*
X207570357Y-114131642D01*
X207598928Y-114074500D01*
X207598928Y-114017357D01*
X207570357Y-113960214D01*
X207541785Y-113931642D01*
X207484642Y-113903071D01*
X207370357Y-113874500D01*
X207227500Y-113874500D01*
X207113214Y-113903071D01*
X207056071Y-113931642D01*
X207027500Y-113960214D01*
X206998928Y-114017357D01*
X206265428Y-113058285D02*
X205979714Y-112858285D01*
X206265428Y-112715428D02*
X205665428Y-112715428D01*
X205665428Y-112944000D01*
X205694000Y-113001142D01*
X205722571Y-113029714D01*
X205779714Y-113058285D01*
X205865428Y-113058285D01*
X205922571Y-113029714D01*
X205951142Y-113001142D01*
X205979714Y-112944000D01*
X205979714Y-112715428D01*
X206265428Y-113629714D02*
X206265428Y-113286857D01*
X206265428Y-113458285D02*
X205665428Y-113458285D01*
X205751142Y-113401142D01*
X205808285Y-113344000D01*
X205836857Y-113286857D01*
X205665428Y-113829714D02*
X205665428Y-114201142D01*
X205894000Y-114001142D01*
X205894000Y-114086857D01*
X205922571Y-114144000D01*
X205951142Y-114172571D01*
X206008285Y-114201142D01*
X206151142Y-114201142D01*
X206208285Y-114172571D01*
X206236857Y-114144000D01*
X206265428Y-114086857D01*
X206265428Y-113915428D01*
X206236857Y-113858285D01*
X206208285Y-113829714D01*
X208840428Y-111908071D02*
X208840428Y-112279500D01*
X209069000Y-112079500D01*
X209069000Y-112165214D01*
X209097571Y-112222357D01*
X209126142Y-112250928D01*
X209183285Y-112279500D01*
X209326142Y-112279500D01*
X209383285Y-112250928D01*
X209411857Y-112222357D01*
X209440428Y-112165214D01*
X209440428Y-111993785D01*
X209411857Y-111936642D01*
X209383285Y-111908071D01*
X208840428Y-112650928D02*
X208840428Y-112708071D01*
X208869000Y-112765214D01*
X208897571Y-112793785D01*
X208954714Y-112822357D01*
X209069000Y-112850928D01*
X209211857Y-112850928D01*
X209326142Y-112822357D01*
X209383285Y-112793785D01*
X209411857Y-112765214D01*
X209440428Y-112708071D01*
X209440428Y-112650928D01*
X209411857Y-112593785D01*
X209383285Y-112565214D01*
X209326142Y-112536642D01*
X209211857Y-112508071D01*
X209069000Y-112508071D01*
X208954714Y-112536642D01*
X208897571Y-112565214D01*
X208869000Y-112593785D01*
X208840428Y-112650928D01*
X208840428Y-113222357D02*
X208840428Y-113279500D01*
X208869000Y-113336642D01*
X208897571Y-113365214D01*
X208954714Y-113393785D01*
X209069000Y-113422357D01*
X209211857Y-113422357D01*
X209326142Y-113393785D01*
X209383285Y-113365214D01*
X209411857Y-113336642D01*
X209440428Y-113279500D01*
X209440428Y-113222357D01*
X209411857Y-113165214D01*
X209383285Y-113136642D01*
X209326142Y-113108071D01*
X209211857Y-113079500D01*
X209069000Y-113079500D01*
X208954714Y-113108071D01*
X208897571Y-113136642D01*
X208869000Y-113165214D01*
X208840428Y-113222357D01*
X210773928Y-112293785D02*
X210488214Y-112093785D01*
X210773928Y-111950928D02*
X210173928Y-111950928D01*
X210173928Y-112179500D01*
X210202500Y-112236642D01*
X210231071Y-112265214D01*
X210288214Y-112293785D01*
X210373928Y-112293785D01*
X210431071Y-112265214D01*
X210459642Y-112236642D01*
X210488214Y-112179500D01*
X210488214Y-111950928D01*
X210773928Y-112865214D02*
X210773928Y-112522357D01*
X210773928Y-112693785D02*
X210173928Y-112693785D01*
X210259642Y-112636642D01*
X210316785Y-112579500D01*
X210345357Y-112522357D01*
X210373928Y-113379500D02*
X210773928Y-113379500D01*
X210145357Y-113236642D02*
X210573928Y-113093785D01*
X210573928Y-113465214D01*
X98902785Y-51261928D02*
X99245642Y-51261928D01*
X99074214Y-51261928D02*
X99074214Y-50661928D01*
X99131357Y-50747642D01*
X99188500Y-50804785D01*
X99245642Y-50833357D01*
X98531357Y-50661928D02*
X98474214Y-50661928D01*
X98417071Y-50690500D01*
X98388500Y-50719071D01*
X98359928Y-50776214D01*
X98331357Y-50890500D01*
X98331357Y-51033357D01*
X98359928Y-51147642D01*
X98388500Y-51204785D01*
X98417071Y-51233357D01*
X98474214Y-51261928D01*
X98531357Y-51261928D01*
X98588500Y-51233357D01*
X98617071Y-51204785D01*
X98645642Y-51147642D01*
X98674214Y-51033357D01*
X98674214Y-50890500D01*
X98645642Y-50776214D01*
X98617071Y-50719071D01*
X98588500Y-50690500D01*
X98531357Y-50661928D01*
X98074214Y-51261928D02*
X98074214Y-50661928D01*
X97731357Y-51261928D02*
X97988500Y-50919071D01*
X97731357Y-50661928D02*
X98074214Y-51004785D01*
X93509714Y-51325428D02*
X93709714Y-51039714D01*
X93852571Y-51325428D02*
X93852571Y-50725428D01*
X93624000Y-50725428D01*
X93566857Y-50754000D01*
X93538285Y-50782571D01*
X93509714Y-50839714D01*
X93509714Y-50925428D01*
X93538285Y-50982571D01*
X93566857Y-51011142D01*
X93624000Y-51039714D01*
X93852571Y-51039714D01*
X92938285Y-51325428D02*
X93281142Y-51325428D01*
X93109714Y-51325428D02*
X93109714Y-50725428D01*
X93166857Y-50811142D01*
X93224000Y-50868285D01*
X93281142Y-50896857D01*
X92395428Y-50725428D02*
X92681142Y-50725428D01*
X92709714Y-51011142D01*
X92681142Y-50982571D01*
X92624000Y-50954000D01*
X92481142Y-50954000D01*
X92424000Y-50982571D01*
X92395428Y-51011142D01*
X92366857Y-51068285D01*
X92366857Y-51211142D01*
X92395428Y-51268285D01*
X92424000Y-51296857D01*
X92481142Y-51325428D01*
X92624000Y-51325428D01*
X92681142Y-51296857D01*
X92709714Y-51268285D01*
X109951785Y-51452428D02*
X110294642Y-51452428D01*
X110123214Y-51452428D02*
X110123214Y-50852428D01*
X110180357Y-50938142D01*
X110237500Y-50995285D01*
X110294642Y-51023857D01*
X109580357Y-50852428D02*
X109523214Y-50852428D01*
X109466071Y-50881000D01*
X109437500Y-50909571D01*
X109408928Y-50966714D01*
X109380357Y-51081000D01*
X109380357Y-51223857D01*
X109408928Y-51338142D01*
X109437500Y-51395285D01*
X109466071Y-51423857D01*
X109523214Y-51452428D01*
X109580357Y-51452428D01*
X109637500Y-51423857D01*
X109666071Y-51395285D01*
X109694642Y-51338142D01*
X109723214Y-51223857D01*
X109723214Y-51081000D01*
X109694642Y-50966714D01*
X109666071Y-50909571D01*
X109637500Y-50881000D01*
X109580357Y-50852428D01*
X109123214Y-51452428D02*
X109123214Y-50852428D01*
X108780357Y-51452428D02*
X109037500Y-51109571D01*
X108780357Y-50852428D02*
X109123214Y-51195285D01*
X104556214Y-51388928D02*
X104756214Y-51103214D01*
X104899071Y-51388928D02*
X104899071Y-50788928D01*
X104670500Y-50788928D01*
X104613357Y-50817500D01*
X104584785Y-50846071D01*
X104556214Y-50903214D01*
X104556214Y-50988928D01*
X104584785Y-51046071D01*
X104613357Y-51074642D01*
X104670500Y-51103214D01*
X104899071Y-51103214D01*
X103984785Y-51388928D02*
X104327642Y-51388928D01*
X104156214Y-51388928D02*
X104156214Y-50788928D01*
X104213357Y-50874642D01*
X104270500Y-50931785D01*
X104327642Y-50960357D01*
X103470500Y-50788928D02*
X103584785Y-50788928D01*
X103641928Y-50817500D01*
X103670500Y-50846071D01*
X103727642Y-50931785D01*
X103756214Y-51046071D01*
X103756214Y-51274642D01*
X103727642Y-51331785D01*
X103699071Y-51360357D01*
X103641928Y-51388928D01*
X103527642Y-51388928D01*
X103470500Y-51360357D01*
X103441928Y-51331785D01*
X103413357Y-51274642D01*
X103413357Y-51131785D01*
X103441928Y-51074642D01*
X103470500Y-51046071D01*
X103527642Y-51017500D01*
X103641928Y-51017500D01*
X103699071Y-51046071D01*
X103727642Y-51074642D01*
X103756214Y-51131785D01*
X136337285Y-51836428D02*
X136680142Y-51836428D01*
X136508714Y-51836428D02*
X136508714Y-51236428D01*
X136565857Y-51322142D01*
X136623000Y-51379285D01*
X136680142Y-51407857D01*
X135965857Y-51236428D02*
X135908714Y-51236428D01*
X135851571Y-51265000D01*
X135823000Y-51293571D01*
X135794428Y-51350714D01*
X135765857Y-51465000D01*
X135765857Y-51607857D01*
X135794428Y-51722142D01*
X135823000Y-51779285D01*
X135851571Y-51807857D01*
X135908714Y-51836428D01*
X135965857Y-51836428D01*
X136023000Y-51807857D01*
X136051571Y-51779285D01*
X136080142Y-51722142D01*
X136108714Y-51607857D01*
X136108714Y-51465000D01*
X136080142Y-51350714D01*
X136051571Y-51293571D01*
X136023000Y-51265000D01*
X135965857Y-51236428D01*
X135508714Y-51836428D02*
X135508714Y-51236428D01*
X135165857Y-51836428D02*
X135423000Y-51493571D01*
X135165857Y-51236428D02*
X135508714Y-51579285D01*
X136308714Y-50436428D02*
X136508714Y-50150714D01*
X136651571Y-50436428D02*
X136651571Y-49836428D01*
X136423000Y-49836428D01*
X136365857Y-49865000D01*
X136337285Y-49893571D01*
X136308714Y-49950714D01*
X136308714Y-50036428D01*
X136337285Y-50093571D01*
X136365857Y-50122142D01*
X136423000Y-50150714D01*
X136651571Y-50150714D01*
X135737285Y-50436428D02*
X136080142Y-50436428D01*
X135908714Y-50436428D02*
X135908714Y-49836428D01*
X135965857Y-49922142D01*
X136023000Y-49979285D01*
X136080142Y-50007857D01*
X135537285Y-49836428D02*
X135137285Y-49836428D01*
X135394428Y-50436428D01*
X163342428Y-128711714D02*
X163342428Y-128368857D01*
X163342428Y-128540285D02*
X162742428Y-128540285D01*
X162828142Y-128483142D01*
X162885285Y-128426000D01*
X162913857Y-128368857D01*
X162742428Y-129083142D02*
X162742428Y-129140285D01*
X162771000Y-129197428D01*
X162799571Y-129226000D01*
X162856714Y-129254571D01*
X162971000Y-129283142D01*
X163113857Y-129283142D01*
X163228142Y-129254571D01*
X163285285Y-129226000D01*
X163313857Y-129197428D01*
X163342428Y-129140285D01*
X163342428Y-129083142D01*
X163313857Y-129026000D01*
X163285285Y-128997428D01*
X163228142Y-128968857D01*
X163113857Y-128940285D01*
X162971000Y-128940285D01*
X162856714Y-128968857D01*
X162799571Y-128997428D01*
X162771000Y-129026000D01*
X162742428Y-129083142D01*
X163342428Y-129540285D02*
X162742428Y-129540285D01*
X163342428Y-129883142D02*
X162999571Y-129626000D01*
X162742428Y-129883142D02*
X163085285Y-129540285D01*
X161942428Y-128740285D02*
X161656714Y-128540285D01*
X161942428Y-128397428D02*
X161342428Y-128397428D01*
X161342428Y-128626000D01*
X161371000Y-128683142D01*
X161399571Y-128711714D01*
X161456714Y-128740285D01*
X161542428Y-128740285D01*
X161599571Y-128711714D01*
X161628142Y-128683142D01*
X161656714Y-128626000D01*
X161656714Y-128397428D01*
X161942428Y-129311714D02*
X161942428Y-128968857D01*
X161942428Y-129140285D02*
X161342428Y-129140285D01*
X161428142Y-129083142D01*
X161485285Y-129026000D01*
X161513857Y-128968857D01*
X161599571Y-129654571D02*
X161571000Y-129597428D01*
X161542428Y-129568857D01*
X161485285Y-129540285D01*
X161456714Y-129540285D01*
X161399571Y-129568857D01*
X161371000Y-129597428D01*
X161342428Y-129654571D01*
X161342428Y-129768857D01*
X161371000Y-129826000D01*
X161399571Y-129854571D01*
X161456714Y-129883142D01*
X161485285Y-129883142D01*
X161542428Y-129854571D01*
X161571000Y-129826000D01*
X161599571Y-129768857D01*
X161599571Y-129654571D01*
X161628142Y-129597428D01*
X161656714Y-129568857D01*
X161713857Y-129540285D01*
X161828142Y-129540285D01*
X161885285Y-129568857D01*
X161913857Y-129597428D01*
X161942428Y-129654571D01*
X161942428Y-129768857D01*
X161913857Y-129826000D01*
X161885285Y-129854571D01*
X161828142Y-129883142D01*
X161713857Y-129883142D01*
X161656714Y-129854571D01*
X161628142Y-129826000D01*
X161599571Y-129768857D01*
X191951285Y-130393428D02*
X192294142Y-130393428D01*
X192122714Y-130393428D02*
X192122714Y-129793428D01*
X192179857Y-129879142D01*
X192237000Y-129936285D01*
X192294142Y-129964857D01*
X191579857Y-129793428D02*
X191522714Y-129793428D01*
X191465571Y-129822000D01*
X191437000Y-129850571D01*
X191408428Y-129907714D01*
X191379857Y-130022000D01*
X191379857Y-130164857D01*
X191408428Y-130279142D01*
X191437000Y-130336285D01*
X191465571Y-130364857D01*
X191522714Y-130393428D01*
X191579857Y-130393428D01*
X191637000Y-130364857D01*
X191665571Y-130336285D01*
X191694142Y-130279142D01*
X191722714Y-130164857D01*
X191722714Y-130022000D01*
X191694142Y-129907714D01*
X191665571Y-129850571D01*
X191637000Y-129822000D01*
X191579857Y-129793428D01*
X191122714Y-130393428D02*
X191122714Y-129793428D01*
X190779857Y-130393428D02*
X191037000Y-130050571D01*
X190779857Y-129793428D02*
X191122714Y-130136285D01*
X191922714Y-131793428D02*
X192122714Y-131507714D01*
X192265571Y-131793428D02*
X192265571Y-131193428D01*
X192037000Y-131193428D01*
X191979857Y-131222000D01*
X191951285Y-131250571D01*
X191922714Y-131307714D01*
X191922714Y-131393428D01*
X191951285Y-131450571D01*
X191979857Y-131479142D01*
X192037000Y-131507714D01*
X192265571Y-131507714D01*
X191351285Y-131793428D02*
X191694142Y-131793428D01*
X191522714Y-131793428D02*
X191522714Y-131193428D01*
X191579857Y-131279142D01*
X191637000Y-131336285D01*
X191694142Y-131364857D01*
X191065571Y-131793428D02*
X190951285Y-131793428D01*
X190894142Y-131764857D01*
X190865571Y-131736285D01*
X190808428Y-131650571D01*
X190779857Y-131536285D01*
X190779857Y-131307714D01*
X190808428Y-131250571D01*
X190837000Y-131222000D01*
X190894142Y-131193428D01*
X191008428Y-131193428D01*
X191065571Y-131222000D01*
X191094142Y-131250571D01*
X191122714Y-131307714D01*
X191122714Y-131450571D01*
X191094142Y-131507714D01*
X191065571Y-131536285D01*
X191008428Y-131564857D01*
X190894142Y-131564857D01*
X190837000Y-131536285D01*
X190808428Y-131507714D01*
X190779857Y-131450571D01*
X199534428Y-113060214D02*
X199534428Y-112717357D01*
X199534428Y-112888785D02*
X198934428Y-112888785D01*
X199020142Y-112831642D01*
X199077285Y-112774500D01*
X199105857Y-112717357D01*
X198934428Y-113431642D02*
X198934428Y-113488785D01*
X198963000Y-113545928D01*
X198991571Y-113574500D01*
X199048714Y-113603071D01*
X199163000Y-113631642D01*
X199305857Y-113631642D01*
X199420142Y-113603071D01*
X199477285Y-113574500D01*
X199505857Y-113545928D01*
X199534428Y-113488785D01*
X199534428Y-113431642D01*
X199505857Y-113374500D01*
X199477285Y-113345928D01*
X199420142Y-113317357D01*
X199305857Y-113288785D01*
X199163000Y-113288785D01*
X199048714Y-113317357D01*
X198991571Y-113345928D01*
X198963000Y-113374500D01*
X198934428Y-113431642D01*
X199534428Y-113888785D02*
X198934428Y-113888785D01*
X199534428Y-114231642D02*
X199191571Y-113974500D01*
X198934428Y-114231642D02*
X199277285Y-113888785D01*
X200867928Y-112994785D02*
X200582214Y-112794785D01*
X200867928Y-112651928D02*
X200267928Y-112651928D01*
X200267928Y-112880500D01*
X200296500Y-112937642D01*
X200325071Y-112966214D01*
X200382214Y-112994785D01*
X200467928Y-112994785D01*
X200525071Y-112966214D01*
X200553642Y-112937642D01*
X200582214Y-112880500D01*
X200582214Y-112651928D01*
X200325071Y-113223357D02*
X200296500Y-113251928D01*
X200267928Y-113309071D01*
X200267928Y-113451928D01*
X200296500Y-113509071D01*
X200325071Y-113537642D01*
X200382214Y-113566214D01*
X200439357Y-113566214D01*
X200525071Y-113537642D01*
X200867928Y-113194785D01*
X200867928Y-113566214D01*
X200267928Y-113937642D02*
X200267928Y-113994785D01*
X200296500Y-114051928D01*
X200325071Y-114080500D01*
X200382214Y-114109071D01*
X200496500Y-114137642D01*
X200639357Y-114137642D01*
X200753642Y-114109071D01*
X200810785Y-114080500D01*
X200839357Y-114051928D01*
X200867928Y-113994785D01*
X200867928Y-113937642D01*
X200839357Y-113880500D01*
X200810785Y-113851928D01*
X200753642Y-113823357D01*
X200639357Y-113794785D01*
X200496500Y-113794785D01*
X200382214Y-113823357D01*
X200325071Y-113851928D01*
X200296500Y-113880500D01*
X200267928Y-113937642D01*
X217190428Y-112128714D02*
X217190428Y-111785857D01*
X217190428Y-111957285D02*
X216590428Y-111957285D01*
X216676142Y-111900142D01*
X216733285Y-111843000D01*
X216761857Y-111785857D01*
X216590428Y-112500142D02*
X216590428Y-112557285D01*
X216619000Y-112614428D01*
X216647571Y-112643000D01*
X216704714Y-112671571D01*
X216819000Y-112700142D01*
X216961857Y-112700142D01*
X217076142Y-112671571D01*
X217133285Y-112643000D01*
X217161857Y-112614428D01*
X217190428Y-112557285D01*
X217190428Y-112500142D01*
X217161857Y-112443000D01*
X217133285Y-112414428D01*
X217076142Y-112385857D01*
X216961857Y-112357285D01*
X216819000Y-112357285D01*
X216704714Y-112385857D01*
X216647571Y-112414428D01*
X216619000Y-112443000D01*
X216590428Y-112500142D01*
X217190428Y-112957285D02*
X216590428Y-112957285D01*
X217190428Y-113300142D02*
X216847571Y-113043000D01*
X216590428Y-113300142D02*
X216933285Y-112957285D01*
X215790428Y-112157285D02*
X215504714Y-111957285D01*
X215790428Y-111814428D02*
X215190428Y-111814428D01*
X215190428Y-112043000D01*
X215219000Y-112100142D01*
X215247571Y-112128714D01*
X215304714Y-112157285D01*
X215390428Y-112157285D01*
X215447571Y-112128714D01*
X215476142Y-112100142D01*
X215504714Y-112043000D01*
X215504714Y-111814428D01*
X215247571Y-112385857D02*
X215219000Y-112414428D01*
X215190428Y-112471571D01*
X215190428Y-112614428D01*
X215219000Y-112671571D01*
X215247571Y-112700142D01*
X215304714Y-112728714D01*
X215361857Y-112728714D01*
X215447571Y-112700142D01*
X215790428Y-112357285D01*
X215790428Y-112728714D01*
X215790428Y-113300142D02*
X215790428Y-112957285D01*
X215790428Y-113128714D02*
X215190428Y-113128714D01*
X215276142Y-113071571D01*
X215333285Y-113014428D01*
X215361857Y-112957285D01*
X99458428Y-69386142D02*
X98858428Y-69386142D01*
X98858428Y-69529000D01*
X98887000Y-69614714D01*
X98944142Y-69671857D01*
X99001285Y-69700428D01*
X99115571Y-69729000D01*
X99201285Y-69729000D01*
X99315571Y-69700428D01*
X99372714Y-69671857D01*
X99429857Y-69614714D01*
X99458428Y-69529000D01*
X99458428Y-69386142D01*
X98858428Y-70100428D02*
X98858428Y-70157571D01*
X98887000Y-70214714D01*
X98915571Y-70243285D01*
X98972714Y-70271857D01*
X99087000Y-70300428D01*
X99229857Y-70300428D01*
X99344142Y-70271857D01*
X99401285Y-70243285D01*
X99429857Y-70214714D01*
X99458428Y-70157571D01*
X99458428Y-70100428D01*
X99429857Y-70043285D01*
X99401285Y-70014714D01*
X99344142Y-69986142D01*
X99229857Y-69957571D01*
X99087000Y-69957571D01*
X98972714Y-69986142D01*
X98915571Y-70014714D01*
X98887000Y-70043285D01*
X98858428Y-70100428D01*
X121048428Y-69374142D02*
X120448428Y-69374142D01*
X120448428Y-69517000D01*
X120477000Y-69602714D01*
X120534142Y-69659857D01*
X120591285Y-69688428D01*
X120705571Y-69717000D01*
X120791285Y-69717000D01*
X120905571Y-69688428D01*
X120962714Y-69659857D01*
X121019857Y-69602714D01*
X121048428Y-69517000D01*
X121048428Y-69374142D01*
X121048428Y-70288428D02*
X121048428Y-69945571D01*
X121048428Y-70117000D02*
X120448428Y-70117000D01*
X120534142Y-70059857D01*
X120591285Y-70002714D01*
X120619857Y-69945571D01*
X132522857Y-70756428D02*
X132522857Y-70156428D01*
X132380000Y-70156428D01*
X132294285Y-70185000D01*
X132237142Y-70242142D01*
X132208571Y-70299285D01*
X132180000Y-70413571D01*
X132180000Y-70499285D01*
X132208571Y-70613571D01*
X132237142Y-70670714D01*
X132294285Y-70727857D01*
X132380000Y-70756428D01*
X132522857Y-70756428D01*
X131951428Y-70213571D02*
X131922857Y-70185000D01*
X131865714Y-70156428D01*
X131722857Y-70156428D01*
X131665714Y-70185000D01*
X131637142Y-70213571D01*
X131608571Y-70270714D01*
X131608571Y-70327857D01*
X131637142Y-70413571D01*
X131980000Y-70756428D01*
X131608571Y-70756428D01*
X151572857Y-68216428D02*
X151572857Y-67616428D01*
X151430000Y-67616428D01*
X151344285Y-67645000D01*
X151287142Y-67702142D01*
X151258571Y-67759285D01*
X151230000Y-67873571D01*
X151230000Y-67959285D01*
X151258571Y-68073571D01*
X151287142Y-68130714D01*
X151344285Y-68187857D01*
X151430000Y-68216428D01*
X151572857Y-68216428D01*
X151030000Y-67616428D02*
X150658571Y-67616428D01*
X150858571Y-67845000D01*
X150772857Y-67845000D01*
X150715714Y-67873571D01*
X150687142Y-67902142D01*
X150658571Y-67959285D01*
X150658571Y-68102142D01*
X150687142Y-68159285D01*
X150715714Y-68187857D01*
X150772857Y-68216428D01*
X150944285Y-68216428D01*
X151001428Y-68187857D01*
X151030000Y-68159285D01*
X178452428Y-65056142D02*
X177852428Y-65056142D01*
X177852428Y-65199000D01*
X177881000Y-65284714D01*
X177938142Y-65341857D01*
X177995285Y-65370428D01*
X178109571Y-65399000D01*
X178195285Y-65399000D01*
X178309571Y-65370428D01*
X178366714Y-65341857D01*
X178423857Y-65284714D01*
X178452428Y-65199000D01*
X178452428Y-65056142D01*
X178052428Y-65913285D02*
X178452428Y-65913285D01*
X177823857Y-65770428D02*
X178252428Y-65627571D01*
X178252428Y-65999000D01*
X197502428Y-66961142D02*
X196902428Y-66961142D01*
X196902428Y-67104000D01*
X196931000Y-67189714D01*
X196988142Y-67246857D01*
X197045285Y-67275428D01*
X197159571Y-67304000D01*
X197245285Y-67304000D01*
X197359571Y-67275428D01*
X197416714Y-67246857D01*
X197473857Y-67189714D01*
X197502428Y-67104000D01*
X197502428Y-66961142D01*
X196902428Y-67846857D02*
X196902428Y-67561142D01*
X197188142Y-67532571D01*
X197159571Y-67561142D01*
X197131000Y-67618285D01*
X197131000Y-67761142D01*
X197159571Y-67818285D01*
X197188142Y-67846857D01*
X197245285Y-67875428D01*
X197388142Y-67875428D01*
X197445285Y-67846857D01*
X197473857Y-67818285D01*
X197502428Y-67761142D01*
X197502428Y-67618285D01*
X197473857Y-67561142D01*
X197445285Y-67532571D01*
X216552428Y-76486142D02*
X215952428Y-76486142D01*
X215952428Y-76629000D01*
X215981000Y-76714714D01*
X216038142Y-76771857D01*
X216095285Y-76800428D01*
X216209571Y-76829000D01*
X216295285Y-76829000D01*
X216409571Y-76800428D01*
X216466714Y-76771857D01*
X216523857Y-76714714D01*
X216552428Y-76629000D01*
X216552428Y-76486142D01*
X215952428Y-77343285D02*
X215952428Y-77229000D01*
X215981000Y-77171857D01*
X216009571Y-77143285D01*
X216095285Y-77086142D01*
X216209571Y-77057571D01*
X216438142Y-77057571D01*
X216495285Y-77086142D01*
X216523857Y-77114714D01*
X216552428Y-77171857D01*
X216552428Y-77286142D01*
X216523857Y-77343285D01*
X216495285Y-77371857D01*
X216438142Y-77400428D01*
X216295285Y-77400428D01*
X216238142Y-77371857D01*
X216209571Y-77343285D01*
X216181000Y-77286142D01*
X216181000Y-77171857D01*
X216209571Y-77114714D01*
X216238142Y-77086142D01*
X216295285Y-77057571D01*
X100093428Y-88392428D02*
X99493428Y-88392428D01*
X99493428Y-88535285D01*
X99522000Y-88621000D01*
X99579142Y-88678142D01*
X99636285Y-88706714D01*
X99750571Y-88735285D01*
X99836285Y-88735285D01*
X99950571Y-88706714D01*
X100007714Y-88678142D01*
X100064857Y-88621000D01*
X100093428Y-88535285D01*
X100093428Y-88392428D01*
X100093428Y-89306714D02*
X100093428Y-88963857D01*
X100093428Y-89135285D02*
X99493428Y-89135285D01*
X99579142Y-89078142D01*
X99636285Y-89021000D01*
X99664857Y-88963857D01*
X99493428Y-89678142D02*
X99493428Y-89735285D01*
X99522000Y-89792428D01*
X99550571Y-89821000D01*
X99607714Y-89849571D01*
X99722000Y-89878142D01*
X99864857Y-89878142D01*
X99979142Y-89849571D01*
X100036285Y-89821000D01*
X100064857Y-89792428D01*
X100093428Y-89735285D01*
X100093428Y-89678142D01*
X100064857Y-89621000D01*
X100036285Y-89592428D01*
X99979142Y-89563857D01*
X99864857Y-89535285D01*
X99722000Y-89535285D01*
X99607714Y-89563857D01*
X99550571Y-89592428D01*
X99522000Y-89621000D01*
X99493428Y-89678142D01*
X121175428Y-88204428D02*
X120575428Y-88204428D01*
X120575428Y-88347285D01*
X120604000Y-88433000D01*
X120661142Y-88490142D01*
X120718285Y-88518714D01*
X120832571Y-88547285D01*
X120918285Y-88547285D01*
X121032571Y-88518714D01*
X121089714Y-88490142D01*
X121146857Y-88433000D01*
X121175428Y-88347285D01*
X121175428Y-88204428D01*
X121175428Y-89118714D02*
X121175428Y-88775857D01*
X121175428Y-88947285D02*
X120575428Y-88947285D01*
X120661142Y-88890142D01*
X120718285Y-88833000D01*
X120746857Y-88775857D01*
X121175428Y-89690142D02*
X121175428Y-89347285D01*
X121175428Y-89518714D02*
X120575428Y-89518714D01*
X120661142Y-89461571D01*
X120718285Y-89404428D01*
X120746857Y-89347285D01*
X139844428Y-83820428D02*
X139244428Y-83820428D01*
X139244428Y-83963285D01*
X139273000Y-84049000D01*
X139330142Y-84106142D01*
X139387285Y-84134714D01*
X139501571Y-84163285D01*
X139587285Y-84163285D01*
X139701571Y-84134714D01*
X139758714Y-84106142D01*
X139815857Y-84049000D01*
X139844428Y-83963285D01*
X139844428Y-83820428D01*
X139844428Y-84734714D02*
X139844428Y-84391857D01*
X139844428Y-84563285D02*
X139244428Y-84563285D01*
X139330142Y-84506142D01*
X139387285Y-84449000D01*
X139415857Y-84391857D01*
X139301571Y-84963285D02*
X139273000Y-84991857D01*
X139244428Y-85049000D01*
X139244428Y-85191857D01*
X139273000Y-85249000D01*
X139301571Y-85277571D01*
X139358714Y-85306142D01*
X139415857Y-85306142D01*
X139501571Y-85277571D01*
X139844428Y-84934714D01*
X139844428Y-85306142D01*
X151858571Y-87266428D02*
X151858571Y-86666428D01*
X151715714Y-86666428D01*
X151630000Y-86695000D01*
X151572857Y-86752142D01*
X151544285Y-86809285D01*
X151515714Y-86923571D01*
X151515714Y-87009285D01*
X151544285Y-87123571D01*
X151572857Y-87180714D01*
X151630000Y-87237857D01*
X151715714Y-87266428D01*
X151858571Y-87266428D01*
X150944285Y-87266428D02*
X151287142Y-87266428D01*
X151115714Y-87266428D02*
X151115714Y-86666428D01*
X151172857Y-86752142D01*
X151230000Y-86809285D01*
X151287142Y-86837857D01*
X150744285Y-86666428D02*
X150372857Y-86666428D01*
X150572857Y-86895000D01*
X150487142Y-86895000D01*
X150430000Y-86923571D01*
X150401428Y-86952142D01*
X150372857Y-87009285D01*
X150372857Y-87152142D01*
X150401428Y-87209285D01*
X150430000Y-87237857D01*
X150487142Y-87266428D01*
X150658571Y-87266428D01*
X150715714Y-87237857D01*
X150744285Y-87209285D01*
X178452428Y-83832428D02*
X177852428Y-83832428D01*
X177852428Y-83975285D01*
X177881000Y-84061000D01*
X177938142Y-84118142D01*
X177995285Y-84146714D01*
X178109571Y-84175285D01*
X178195285Y-84175285D01*
X178309571Y-84146714D01*
X178366714Y-84118142D01*
X178423857Y-84061000D01*
X178452428Y-83975285D01*
X178452428Y-83832428D01*
X178452428Y-84746714D02*
X178452428Y-84403857D01*
X178452428Y-84575285D02*
X177852428Y-84575285D01*
X177938142Y-84518142D01*
X177995285Y-84461000D01*
X178023857Y-84403857D01*
X178052428Y-85261000D02*
X178452428Y-85261000D01*
X177823857Y-85118142D02*
X178252428Y-84975285D01*
X178252428Y-85346714D01*
X197502428Y-85737428D02*
X196902428Y-85737428D01*
X196902428Y-85880285D01*
X196931000Y-85966000D01*
X196988142Y-86023142D01*
X197045285Y-86051714D01*
X197159571Y-86080285D01*
X197245285Y-86080285D01*
X197359571Y-86051714D01*
X197416714Y-86023142D01*
X197473857Y-85966000D01*
X197502428Y-85880285D01*
X197502428Y-85737428D01*
X197502428Y-86651714D02*
X197502428Y-86308857D01*
X197502428Y-86480285D02*
X196902428Y-86480285D01*
X196988142Y-86423142D01*
X197045285Y-86366000D01*
X197073857Y-86308857D01*
X196902428Y-87194571D02*
X196902428Y-86908857D01*
X197188142Y-86880285D01*
X197159571Y-86908857D01*
X197131000Y-86966000D01*
X197131000Y-87108857D01*
X197159571Y-87166000D01*
X197188142Y-87194571D01*
X197245285Y-87223142D01*
X197388142Y-87223142D01*
X197445285Y-87194571D01*
X197473857Y-87166000D01*
X197502428Y-87108857D01*
X197502428Y-86966000D01*
X197473857Y-86908857D01*
X197445285Y-86880285D01*
X205612571Y-106062428D02*
X205612571Y-105462428D01*
X205469714Y-105462428D01*
X205384000Y-105491000D01*
X205326857Y-105548142D01*
X205298285Y-105605285D01*
X205269714Y-105719571D01*
X205269714Y-105805285D01*
X205298285Y-105919571D01*
X205326857Y-105976714D01*
X205384000Y-106033857D01*
X205469714Y-106062428D01*
X205612571Y-106062428D01*
X204698285Y-106062428D02*
X205041142Y-106062428D01*
X204869714Y-106062428D02*
X204869714Y-105462428D01*
X204926857Y-105548142D01*
X204984000Y-105605285D01*
X205041142Y-105633857D01*
X204184000Y-105462428D02*
X204298285Y-105462428D01*
X204355428Y-105491000D01*
X204384000Y-105519571D01*
X204441142Y-105605285D01*
X204469714Y-105719571D01*
X204469714Y-105948142D01*
X204441142Y-106005285D01*
X204412571Y-106033857D01*
X204355428Y-106062428D01*
X204241142Y-106062428D01*
X204184000Y-106033857D01*
X204155428Y-106005285D01*
X204126857Y-105948142D01*
X204126857Y-105805285D01*
X204155428Y-105748142D01*
X204184000Y-105719571D01*
X204241142Y-105691000D01*
X204355428Y-105691000D01*
X204412571Y-105719571D01*
X204441142Y-105748142D01*
X204469714Y-105805285D01*
X99458428Y-107315428D02*
X98858428Y-107315428D01*
X98858428Y-107458285D01*
X98887000Y-107544000D01*
X98944142Y-107601142D01*
X99001285Y-107629714D01*
X99115571Y-107658285D01*
X99201285Y-107658285D01*
X99315571Y-107629714D01*
X99372714Y-107601142D01*
X99429857Y-107544000D01*
X99458428Y-107458285D01*
X99458428Y-107315428D01*
X98915571Y-107886857D02*
X98887000Y-107915428D01*
X98858428Y-107972571D01*
X98858428Y-108115428D01*
X98887000Y-108172571D01*
X98915571Y-108201142D01*
X98972714Y-108229714D01*
X99029857Y-108229714D01*
X99115571Y-108201142D01*
X99458428Y-107858285D01*
X99458428Y-108229714D01*
X98858428Y-108601142D02*
X98858428Y-108658285D01*
X98887000Y-108715428D01*
X98915571Y-108744000D01*
X98972714Y-108772571D01*
X99087000Y-108801142D01*
X99229857Y-108801142D01*
X99344142Y-108772571D01*
X99401285Y-108744000D01*
X99429857Y-108715428D01*
X99458428Y-108658285D01*
X99458428Y-108601142D01*
X99429857Y-108544000D01*
X99401285Y-108515428D01*
X99344142Y-108486857D01*
X99229857Y-108458285D01*
X99087000Y-108458285D01*
X98972714Y-108486857D01*
X98915571Y-108515428D01*
X98887000Y-108544000D01*
X98858428Y-108601142D01*
X121048428Y-107188428D02*
X120448428Y-107188428D01*
X120448428Y-107331285D01*
X120477000Y-107417000D01*
X120534142Y-107474142D01*
X120591285Y-107502714D01*
X120705571Y-107531285D01*
X120791285Y-107531285D01*
X120905571Y-107502714D01*
X120962714Y-107474142D01*
X121019857Y-107417000D01*
X121048428Y-107331285D01*
X121048428Y-107188428D01*
X120505571Y-107759857D02*
X120477000Y-107788428D01*
X120448428Y-107845571D01*
X120448428Y-107988428D01*
X120477000Y-108045571D01*
X120505571Y-108074142D01*
X120562714Y-108102714D01*
X120619857Y-108102714D01*
X120705571Y-108074142D01*
X121048428Y-107731285D01*
X121048428Y-108102714D01*
X121048428Y-108674142D02*
X121048428Y-108331285D01*
X121048428Y-108502714D02*
X120448428Y-108502714D01*
X120534142Y-108445571D01*
X120591285Y-108388428D01*
X120619857Y-108331285D01*
X139844428Y-102882428D02*
X139244428Y-102882428D01*
X139244428Y-103025285D01*
X139273000Y-103111000D01*
X139330142Y-103168142D01*
X139387285Y-103196714D01*
X139501571Y-103225285D01*
X139587285Y-103225285D01*
X139701571Y-103196714D01*
X139758714Y-103168142D01*
X139815857Y-103111000D01*
X139844428Y-103025285D01*
X139844428Y-102882428D01*
X139301571Y-103453857D02*
X139273000Y-103482428D01*
X139244428Y-103539571D01*
X139244428Y-103682428D01*
X139273000Y-103739571D01*
X139301571Y-103768142D01*
X139358714Y-103796714D01*
X139415857Y-103796714D01*
X139501571Y-103768142D01*
X139844428Y-103425285D01*
X139844428Y-103796714D01*
X139301571Y-104025285D02*
X139273000Y-104053857D01*
X139244428Y-104111000D01*
X139244428Y-104253857D01*
X139273000Y-104311000D01*
X139301571Y-104339571D01*
X139358714Y-104368142D01*
X139415857Y-104368142D01*
X139501571Y-104339571D01*
X139844428Y-103996714D01*
X139844428Y-104368142D01*
X151858571Y-106316428D02*
X151858571Y-105716428D01*
X151715714Y-105716428D01*
X151630000Y-105745000D01*
X151572857Y-105802142D01*
X151544285Y-105859285D01*
X151515714Y-105973571D01*
X151515714Y-106059285D01*
X151544285Y-106173571D01*
X151572857Y-106230714D01*
X151630000Y-106287857D01*
X151715714Y-106316428D01*
X151858571Y-106316428D01*
X151287142Y-105773571D02*
X151258571Y-105745000D01*
X151201428Y-105716428D01*
X151058571Y-105716428D01*
X151001428Y-105745000D01*
X150972857Y-105773571D01*
X150944285Y-105830714D01*
X150944285Y-105887857D01*
X150972857Y-105973571D01*
X151315714Y-106316428D01*
X150944285Y-106316428D01*
X150744285Y-105716428D02*
X150372857Y-105716428D01*
X150572857Y-105945000D01*
X150487142Y-105945000D01*
X150430000Y-105973571D01*
X150401428Y-106002142D01*
X150372857Y-106059285D01*
X150372857Y-106202142D01*
X150401428Y-106259285D01*
X150430000Y-106287857D01*
X150487142Y-106316428D01*
X150658571Y-106316428D01*
X150715714Y-106287857D01*
X150744285Y-106259285D01*
X178452428Y-102755428D02*
X177852428Y-102755428D01*
X177852428Y-102898285D01*
X177881000Y-102984000D01*
X177938142Y-103041142D01*
X177995285Y-103069714D01*
X178109571Y-103098285D01*
X178195285Y-103098285D01*
X178309571Y-103069714D01*
X178366714Y-103041142D01*
X178423857Y-102984000D01*
X178452428Y-102898285D01*
X178452428Y-102755428D01*
X177909571Y-103326857D02*
X177881000Y-103355428D01*
X177852428Y-103412571D01*
X177852428Y-103555428D01*
X177881000Y-103612571D01*
X177909571Y-103641142D01*
X177966714Y-103669714D01*
X178023857Y-103669714D01*
X178109571Y-103641142D01*
X178452428Y-103298285D01*
X178452428Y-103669714D01*
X178052428Y-104184000D02*
X178452428Y-104184000D01*
X177823857Y-104041142D02*
X178252428Y-103898285D01*
X178252428Y-104269714D01*
X197502428Y-104660428D02*
X196902428Y-104660428D01*
X196902428Y-104803285D01*
X196931000Y-104889000D01*
X196988142Y-104946142D01*
X197045285Y-104974714D01*
X197159571Y-105003285D01*
X197245285Y-105003285D01*
X197359571Y-104974714D01*
X197416714Y-104946142D01*
X197473857Y-104889000D01*
X197502428Y-104803285D01*
X197502428Y-104660428D01*
X196959571Y-105231857D02*
X196931000Y-105260428D01*
X196902428Y-105317571D01*
X196902428Y-105460428D01*
X196931000Y-105517571D01*
X196959571Y-105546142D01*
X197016714Y-105574714D01*
X197073857Y-105574714D01*
X197159571Y-105546142D01*
X197502428Y-105203285D01*
X197502428Y-105574714D01*
X196902428Y-106117571D02*
X196902428Y-105831857D01*
X197188142Y-105803285D01*
X197159571Y-105831857D01*
X197131000Y-105889000D01*
X197131000Y-106031857D01*
X197159571Y-106089000D01*
X197188142Y-106117571D01*
X197245285Y-106146142D01*
X197388142Y-106146142D01*
X197445285Y-106117571D01*
X197473857Y-106089000D01*
X197502428Y-106031857D01*
X197502428Y-105889000D01*
X197473857Y-105831857D01*
X197445285Y-105803285D01*
X217976349Y-133945483D02*
X217456734Y-133645483D01*
X217385305Y-133769201D01*
X217367192Y-133857718D01*
X217388108Y-133935776D01*
X217423309Y-133989091D01*
X217507998Y-134070978D01*
X217582228Y-134113835D01*
X217695488Y-134146234D01*
X217759261Y-134150062D01*
X217837320Y-134129146D01*
X217904921Y-134069201D01*
X217976349Y-133945483D01*
X217220507Y-134168927D02*
X217181478Y-134179384D01*
X217128163Y-134214586D01*
X217056734Y-134338304D01*
X217052906Y-134402077D01*
X217063364Y-134441106D01*
X217098565Y-134494421D01*
X217148053Y-134522992D01*
X217236569Y-134541106D01*
X217704921Y-134415611D01*
X217519206Y-134737278D01*
X216742448Y-134882663D02*
X216799591Y-134783688D01*
X216852906Y-134748487D01*
X216891935Y-134738029D01*
X216994738Y-134731399D01*
X217107998Y-134763798D01*
X217305946Y-134878084D01*
X217341148Y-134931399D01*
X217351606Y-134970428D01*
X217347778Y-135034201D01*
X217290635Y-135133175D01*
X217237320Y-135168377D01*
X217198291Y-135178835D01*
X217134518Y-135175007D01*
X217010800Y-135103578D01*
X216975598Y-135050263D01*
X216965141Y-135011234D01*
X216968968Y-134947461D01*
X217026111Y-134848487D01*
X217079426Y-134813285D01*
X217118456Y-134802827D01*
X217182228Y-134806655D01*
X99585428Y-126238428D02*
X98985428Y-126238428D01*
X98985428Y-126381285D01*
X99014000Y-126467000D01*
X99071142Y-126524142D01*
X99128285Y-126552714D01*
X99242571Y-126581285D01*
X99328285Y-126581285D01*
X99442571Y-126552714D01*
X99499714Y-126524142D01*
X99556857Y-126467000D01*
X99585428Y-126381285D01*
X99585428Y-126238428D01*
X98985428Y-126781285D02*
X98985428Y-127152714D01*
X99214000Y-126952714D01*
X99214000Y-127038428D01*
X99242571Y-127095571D01*
X99271142Y-127124142D01*
X99328285Y-127152714D01*
X99471142Y-127152714D01*
X99528285Y-127124142D01*
X99556857Y-127095571D01*
X99585428Y-127038428D01*
X99585428Y-126867000D01*
X99556857Y-126809857D01*
X99528285Y-126781285D01*
X98985428Y-127524142D02*
X98985428Y-127581285D01*
X99014000Y-127638428D01*
X99042571Y-127667000D01*
X99099714Y-127695571D01*
X99214000Y-127724142D01*
X99356857Y-127724142D01*
X99471142Y-127695571D01*
X99528285Y-127667000D01*
X99556857Y-127638428D01*
X99585428Y-127581285D01*
X99585428Y-127524142D01*
X99556857Y-127467000D01*
X99528285Y-127438428D01*
X99471142Y-127409857D01*
X99356857Y-127381285D01*
X99214000Y-127381285D01*
X99099714Y-127409857D01*
X99042571Y-127438428D01*
X99014000Y-127467000D01*
X98985428Y-127524142D01*
X121048428Y-126365428D02*
X120448428Y-126365428D01*
X120448428Y-126508285D01*
X120477000Y-126594000D01*
X120534142Y-126651142D01*
X120591285Y-126679714D01*
X120705571Y-126708285D01*
X120791285Y-126708285D01*
X120905571Y-126679714D01*
X120962714Y-126651142D01*
X121019857Y-126594000D01*
X121048428Y-126508285D01*
X121048428Y-126365428D01*
X120448428Y-126908285D02*
X120448428Y-127279714D01*
X120677000Y-127079714D01*
X120677000Y-127165428D01*
X120705571Y-127222571D01*
X120734142Y-127251142D01*
X120791285Y-127279714D01*
X120934142Y-127279714D01*
X120991285Y-127251142D01*
X121019857Y-127222571D01*
X121048428Y-127165428D01*
X121048428Y-126994000D01*
X121019857Y-126936857D01*
X120991285Y-126908285D01*
X121048428Y-127851142D02*
X121048428Y-127508285D01*
X121048428Y-127679714D02*
X120448428Y-127679714D01*
X120534142Y-127622571D01*
X120591285Y-127565428D01*
X120619857Y-127508285D01*
X140225428Y-121932428D02*
X139625428Y-121932428D01*
X139625428Y-122075285D01*
X139654000Y-122161000D01*
X139711142Y-122218142D01*
X139768285Y-122246714D01*
X139882571Y-122275285D01*
X139968285Y-122275285D01*
X140082571Y-122246714D01*
X140139714Y-122218142D01*
X140196857Y-122161000D01*
X140225428Y-122075285D01*
X140225428Y-121932428D01*
X139625428Y-122475285D02*
X139625428Y-122846714D01*
X139854000Y-122646714D01*
X139854000Y-122732428D01*
X139882571Y-122789571D01*
X139911142Y-122818142D01*
X139968285Y-122846714D01*
X140111142Y-122846714D01*
X140168285Y-122818142D01*
X140196857Y-122789571D01*
X140225428Y-122732428D01*
X140225428Y-122561000D01*
X140196857Y-122503857D01*
X140168285Y-122475285D01*
X139682571Y-123075285D02*
X139654000Y-123103857D01*
X139625428Y-123161000D01*
X139625428Y-123303857D01*
X139654000Y-123361000D01*
X139682571Y-123389571D01*
X139739714Y-123418142D01*
X139796857Y-123418142D01*
X139882571Y-123389571D01*
X140225428Y-123046714D01*
X140225428Y-123418142D01*
X159402428Y-119392428D02*
X158802428Y-119392428D01*
X158802428Y-119535285D01*
X158831000Y-119621000D01*
X158888142Y-119678142D01*
X158945285Y-119706714D01*
X159059571Y-119735285D01*
X159145285Y-119735285D01*
X159259571Y-119706714D01*
X159316714Y-119678142D01*
X159373857Y-119621000D01*
X159402428Y-119535285D01*
X159402428Y-119392428D01*
X158802428Y-119935285D02*
X158802428Y-120306714D01*
X159031000Y-120106714D01*
X159031000Y-120192428D01*
X159059571Y-120249571D01*
X159088142Y-120278142D01*
X159145285Y-120306714D01*
X159288142Y-120306714D01*
X159345285Y-120278142D01*
X159373857Y-120249571D01*
X159402428Y-120192428D01*
X159402428Y-120021000D01*
X159373857Y-119963857D01*
X159345285Y-119935285D01*
X158802428Y-120506714D02*
X158802428Y-120878142D01*
X159031000Y-120678142D01*
X159031000Y-120763857D01*
X159059571Y-120821000D01*
X159088142Y-120849571D01*
X159145285Y-120878142D01*
X159288142Y-120878142D01*
X159345285Y-120849571D01*
X159373857Y-120821000D01*
X159402428Y-120763857D01*
X159402428Y-120592428D01*
X159373857Y-120535285D01*
X159345285Y-120506714D01*
X178579428Y-121932428D02*
X177979428Y-121932428D01*
X177979428Y-122075285D01*
X178008000Y-122161000D01*
X178065142Y-122218142D01*
X178122285Y-122246714D01*
X178236571Y-122275285D01*
X178322285Y-122275285D01*
X178436571Y-122246714D01*
X178493714Y-122218142D01*
X178550857Y-122161000D01*
X178579428Y-122075285D01*
X178579428Y-121932428D01*
X177979428Y-122475285D02*
X177979428Y-122846714D01*
X178208000Y-122646714D01*
X178208000Y-122732428D01*
X178236571Y-122789571D01*
X178265142Y-122818142D01*
X178322285Y-122846714D01*
X178465142Y-122846714D01*
X178522285Y-122818142D01*
X178550857Y-122789571D01*
X178579428Y-122732428D01*
X178579428Y-122561000D01*
X178550857Y-122503857D01*
X178522285Y-122475285D01*
X178179428Y-123361000D02*
X178579428Y-123361000D01*
X177950857Y-123218142D02*
X178379428Y-123075285D01*
X178379428Y-123446714D01*
X197502428Y-123837428D02*
X196902428Y-123837428D01*
X196902428Y-123980285D01*
X196931000Y-124066000D01*
X196988142Y-124123142D01*
X197045285Y-124151714D01*
X197159571Y-124180285D01*
X197245285Y-124180285D01*
X197359571Y-124151714D01*
X197416714Y-124123142D01*
X197473857Y-124066000D01*
X197502428Y-123980285D01*
X197502428Y-123837428D01*
X196902428Y-124380285D02*
X196902428Y-124751714D01*
X197131000Y-124551714D01*
X197131000Y-124637428D01*
X197159571Y-124694571D01*
X197188142Y-124723142D01*
X197245285Y-124751714D01*
X197388142Y-124751714D01*
X197445285Y-124723142D01*
X197473857Y-124694571D01*
X197502428Y-124637428D01*
X197502428Y-124466000D01*
X197473857Y-124408857D01*
X197445285Y-124380285D01*
X196902428Y-125294571D02*
X196902428Y-125008857D01*
X197188142Y-124980285D01*
X197159571Y-125008857D01*
X197131000Y-125066000D01*
X197131000Y-125208857D01*
X197159571Y-125266000D01*
X197188142Y-125294571D01*
X197245285Y-125323142D01*
X197388142Y-125323142D01*
X197445285Y-125294571D01*
X197473857Y-125266000D01*
X197502428Y-125208857D01*
X197502428Y-125066000D01*
X197473857Y-125008857D01*
X197445285Y-124980285D01*
X234359349Y-143470483D02*
X233839734Y-143170483D01*
X233768305Y-143294201D01*
X233750192Y-143382718D01*
X233771108Y-143460776D01*
X233806309Y-143514091D01*
X233890998Y-143595978D01*
X233965228Y-143638835D01*
X234078488Y-143671234D01*
X234142261Y-143675062D01*
X234220320Y-143654146D01*
X234287921Y-143594201D01*
X234359349Y-143470483D01*
X233568305Y-143640611D02*
X233382591Y-143962278D01*
X233680540Y-143903359D01*
X233637683Y-143977589D01*
X233633855Y-144041362D01*
X233644313Y-144080392D01*
X233679514Y-144133707D01*
X233803232Y-144205135D01*
X233867005Y-144208963D01*
X233906034Y-144198505D01*
X233959349Y-144163304D01*
X234045064Y-144014842D01*
X234048891Y-143951069D01*
X234038434Y-143912040D01*
X233125448Y-144407663D02*
X233182591Y-144308688D01*
X233235906Y-144273487D01*
X233274935Y-144263029D01*
X233377738Y-144256399D01*
X233490998Y-144288798D01*
X233688946Y-144403084D01*
X233724148Y-144456399D01*
X233734606Y-144495428D01*
X233730778Y-144559201D01*
X233673635Y-144658175D01*
X233620320Y-144693377D01*
X233581291Y-144703835D01*
X233517518Y-144700007D01*
X233393800Y-144628578D01*
X233358598Y-144575263D01*
X233348141Y-144536234D01*
X233351968Y-144472461D01*
X233409111Y-144373487D01*
X233462426Y-144338285D01*
X233501456Y-144327827D01*
X233565228Y-144331655D01*
X102125428Y-145288428D02*
X101525428Y-145288428D01*
X101525428Y-145431285D01*
X101554000Y-145517000D01*
X101611142Y-145574142D01*
X101668285Y-145602714D01*
X101782571Y-145631285D01*
X101868285Y-145631285D01*
X101982571Y-145602714D01*
X102039714Y-145574142D01*
X102096857Y-145517000D01*
X102125428Y-145431285D01*
X102125428Y-145288428D01*
X101725428Y-146145571D02*
X102125428Y-146145571D01*
X101496857Y-146002714D02*
X101925428Y-145859857D01*
X101925428Y-146231285D01*
X101525428Y-146574142D02*
X101525428Y-146631285D01*
X101554000Y-146688428D01*
X101582571Y-146717000D01*
X101639714Y-146745571D01*
X101754000Y-146774142D01*
X101896857Y-146774142D01*
X102011142Y-146745571D01*
X102068285Y-146717000D01*
X102096857Y-146688428D01*
X102125428Y-146631285D01*
X102125428Y-146574142D01*
X102096857Y-146517000D01*
X102068285Y-146488428D01*
X102011142Y-146459857D01*
X101896857Y-146431285D01*
X101754000Y-146431285D01*
X101639714Y-146459857D01*
X101582571Y-146488428D01*
X101554000Y-146517000D01*
X101525428Y-146574142D01*
X121048428Y-145427428D02*
X120448428Y-145427428D01*
X120448428Y-145570285D01*
X120477000Y-145656000D01*
X120534142Y-145713142D01*
X120591285Y-145741714D01*
X120705571Y-145770285D01*
X120791285Y-145770285D01*
X120905571Y-145741714D01*
X120962714Y-145713142D01*
X121019857Y-145656000D01*
X121048428Y-145570285D01*
X121048428Y-145427428D01*
X120648428Y-146284571D02*
X121048428Y-146284571D01*
X120419857Y-146141714D02*
X120848428Y-145998857D01*
X120848428Y-146370285D01*
X121048428Y-146913142D02*
X121048428Y-146570285D01*
X121048428Y-146741714D02*
X120448428Y-146741714D01*
X120534142Y-146684571D01*
X120591285Y-146627428D01*
X120619857Y-146570285D01*
X140479428Y-140970428D02*
X139879428Y-140970428D01*
X139879428Y-141113285D01*
X139908000Y-141199000D01*
X139965142Y-141256142D01*
X140022285Y-141284714D01*
X140136571Y-141313285D01*
X140222285Y-141313285D01*
X140336571Y-141284714D01*
X140393714Y-141256142D01*
X140450857Y-141199000D01*
X140479428Y-141113285D01*
X140479428Y-140970428D01*
X140079428Y-141827571D02*
X140479428Y-141827571D01*
X139850857Y-141684714D02*
X140279428Y-141541857D01*
X140279428Y-141913285D01*
X139936571Y-142113285D02*
X139908000Y-142141857D01*
X139879428Y-142199000D01*
X139879428Y-142341857D01*
X139908000Y-142399000D01*
X139936571Y-142427571D01*
X139993714Y-142456142D01*
X140050857Y-142456142D01*
X140136571Y-142427571D01*
X140479428Y-142084714D01*
X140479428Y-142456142D01*
X159529428Y-138430428D02*
X158929428Y-138430428D01*
X158929428Y-138573285D01*
X158958000Y-138659000D01*
X159015142Y-138716142D01*
X159072285Y-138744714D01*
X159186571Y-138773285D01*
X159272285Y-138773285D01*
X159386571Y-138744714D01*
X159443714Y-138716142D01*
X159500857Y-138659000D01*
X159529428Y-138573285D01*
X159529428Y-138430428D01*
X159129428Y-139287571D02*
X159529428Y-139287571D01*
X158900857Y-139144714D02*
X159329428Y-139001857D01*
X159329428Y-139373285D01*
X158929428Y-139544714D02*
X158929428Y-139916142D01*
X159158000Y-139716142D01*
X159158000Y-139801857D01*
X159186571Y-139859000D01*
X159215142Y-139887571D01*
X159272285Y-139916142D01*
X159415142Y-139916142D01*
X159472285Y-139887571D01*
X159500857Y-139859000D01*
X159529428Y-139801857D01*
X159529428Y-139630428D01*
X159500857Y-139573285D01*
X159472285Y-139544714D01*
X183902559Y-146237504D02*
X183323003Y-146082213D01*
X183286029Y-146220202D01*
X183291442Y-146310391D01*
X183331848Y-146380376D01*
X183379649Y-146422764D01*
X183482646Y-146479941D01*
X183565440Y-146502126D01*
X183683226Y-146504107D01*
X183745817Y-146491299D01*
X183815802Y-146450893D01*
X183865584Y-146375494D01*
X183902559Y-146237504D01*
X183294343Y-146961913D02*
X183680714Y-147065441D01*
X183110534Y-146764765D02*
X183561477Y-146737698D01*
X183465344Y-147096471D01*
X183146447Y-147513871D02*
X183532817Y-147617398D01*
X182962638Y-147316723D02*
X183413580Y-147289656D01*
X183317447Y-147648428D01*
X193587516Y-154476349D02*
X193887516Y-153956734D01*
X193763798Y-153885305D01*
X193675281Y-153867192D01*
X193597223Y-153888108D01*
X193543908Y-153923309D01*
X193462021Y-154007998D01*
X193419164Y-154082228D01*
X193386765Y-154195488D01*
X193382937Y-154259261D01*
X193403853Y-154337320D01*
X193463798Y-154404921D01*
X193587516Y-154476349D01*
X193045208Y-153701368D02*
X192845208Y-154047778D01*
X193283212Y-153574848D02*
X193192644Y-154017430D01*
X192870977Y-153831716D01*
X192625593Y-153228163D02*
X192873029Y-153371020D01*
X192754915Y-153632741D01*
X192744457Y-153593712D01*
X192709256Y-153540397D01*
X192585538Y-153468968D01*
X192521765Y-153465141D01*
X192482736Y-153475598D01*
X192429421Y-153510800D01*
X192357992Y-153634518D01*
X192354164Y-153698291D01*
X192364622Y-153737320D01*
X192399824Y-153790635D01*
X192523542Y-153862064D01*
X192587314Y-153865891D01*
X192626344Y-153855434D01*
X210097516Y-164001349D02*
X210397516Y-163481734D01*
X210273798Y-163410305D01*
X210185281Y-163392192D01*
X210107223Y-163413108D01*
X210053908Y-163448309D01*
X209972021Y-163532998D01*
X209929164Y-163607228D01*
X209896765Y-163720488D01*
X209892937Y-163784261D01*
X209913853Y-163862320D01*
X209973798Y-163929921D01*
X210097516Y-164001349D01*
X209555208Y-163226368D02*
X209355208Y-163572778D01*
X209793212Y-163099848D02*
X209702644Y-163542430D01*
X209380977Y-163356716D01*
X209160336Y-162767448D02*
X209259311Y-162824591D01*
X209294512Y-162877906D01*
X209304970Y-162916935D01*
X209311600Y-163019738D01*
X209279201Y-163132998D01*
X209164915Y-163330946D01*
X209111600Y-163366148D01*
X209072571Y-163376606D01*
X209008798Y-163372778D01*
X208909824Y-163315635D01*
X208874622Y-163262320D01*
X208864164Y-163223291D01*
X208867992Y-163159518D01*
X208939421Y-163035800D01*
X208992736Y-163000598D01*
X209031765Y-162990141D01*
X209095538Y-162993968D01*
X209194512Y-163051111D01*
X209229714Y-163104426D01*
X209240172Y-163143456D01*
X209236344Y-163207228D01*
X92178095Y-70327380D02*
X92178095Y-69327380D01*
X91606666Y-70327380D02*
X92035238Y-69755952D01*
X91606666Y-69327380D02*
X92178095Y-69898809D01*
X90987619Y-69327380D02*
X90892380Y-69327380D01*
X90797142Y-69375000D01*
X90749523Y-69422619D01*
X90701904Y-69517857D01*
X90654285Y-69708333D01*
X90654285Y-69946428D01*
X90701904Y-70136904D01*
X90749523Y-70232142D01*
X90797142Y-70279761D01*
X90892380Y-70327380D01*
X90987619Y-70327380D01*
X91082857Y-70279761D01*
X91130476Y-70232142D01*
X91178095Y-70136904D01*
X91225714Y-69946428D01*
X91225714Y-69708333D01*
X91178095Y-69517857D01*
X91130476Y-69422619D01*
X91082857Y-69375000D01*
X90987619Y-69327380D01*
X92654285Y-89377380D02*
X92654285Y-88377380D01*
X92082857Y-89377380D02*
X92511428Y-88805952D01*
X92082857Y-88377380D02*
X92654285Y-88948809D01*
X91130476Y-89377380D02*
X91701904Y-89377380D01*
X91416190Y-89377380D02*
X91416190Y-88377380D01*
X91511428Y-88520238D01*
X91606666Y-88615476D01*
X91701904Y-88663095D01*
X90511428Y-88377380D02*
X90416190Y-88377380D01*
X90320952Y-88425000D01*
X90273333Y-88472619D01*
X90225714Y-88567857D01*
X90178095Y-88758333D01*
X90178095Y-88996428D01*
X90225714Y-89186904D01*
X90273333Y-89282142D01*
X90320952Y-89329761D01*
X90416190Y-89377380D01*
X90511428Y-89377380D01*
X90606666Y-89329761D01*
X90654285Y-89282142D01*
X90701904Y-89186904D01*
X90749523Y-88996428D01*
X90749523Y-88758333D01*
X90701904Y-88567857D01*
X90654285Y-88472619D01*
X90606666Y-88425000D01*
X90511428Y-88377380D01*
X92654285Y-108427380D02*
X92654285Y-107427380D01*
X92082857Y-108427380D02*
X92511428Y-107855952D01*
X92082857Y-107427380D02*
X92654285Y-107998809D01*
X91701904Y-107522619D02*
X91654285Y-107475000D01*
X91559047Y-107427380D01*
X91320952Y-107427380D01*
X91225714Y-107475000D01*
X91178095Y-107522619D01*
X91130476Y-107617857D01*
X91130476Y-107713095D01*
X91178095Y-107855952D01*
X91749523Y-108427380D01*
X91130476Y-108427380D01*
X90511428Y-107427380D02*
X90416190Y-107427380D01*
X90320952Y-107475000D01*
X90273333Y-107522619D01*
X90225714Y-107617857D01*
X90178095Y-107808333D01*
X90178095Y-108046428D01*
X90225714Y-108236904D01*
X90273333Y-108332142D01*
X90320952Y-108379761D01*
X90416190Y-108427380D01*
X90511428Y-108427380D01*
X90606666Y-108379761D01*
X90654285Y-108332142D01*
X90701904Y-108236904D01*
X90749523Y-108046428D01*
X90749523Y-107808333D01*
X90701904Y-107617857D01*
X90654285Y-107522619D01*
X90606666Y-107475000D01*
X90511428Y-107427380D01*
X92654285Y-127477380D02*
X92654285Y-126477380D01*
X92082857Y-127477380D02*
X92511428Y-126905952D01*
X92082857Y-126477380D02*
X92654285Y-127048809D01*
X91749523Y-126477380D02*
X91130476Y-126477380D01*
X91463809Y-126858333D01*
X91320952Y-126858333D01*
X91225714Y-126905952D01*
X91178095Y-126953571D01*
X91130476Y-127048809D01*
X91130476Y-127286904D01*
X91178095Y-127382142D01*
X91225714Y-127429761D01*
X91320952Y-127477380D01*
X91606666Y-127477380D01*
X91701904Y-127429761D01*
X91749523Y-127382142D01*
X90511428Y-126477380D02*
X90416190Y-126477380D01*
X90320952Y-126525000D01*
X90273333Y-126572619D01*
X90225714Y-126667857D01*
X90178095Y-126858333D01*
X90178095Y-127096428D01*
X90225714Y-127286904D01*
X90273333Y-127382142D01*
X90320952Y-127429761D01*
X90416190Y-127477380D01*
X90511428Y-127477380D01*
X90606666Y-127429761D01*
X90654285Y-127382142D01*
X90701904Y-127286904D01*
X90749523Y-127096428D01*
X90749523Y-126858333D01*
X90701904Y-126667857D01*
X90654285Y-126572619D01*
X90606666Y-126525000D01*
X90511428Y-126477380D01*
X176757604Y-145447209D02*
X177016423Y-144481283D01*
X176205646Y-145299313D02*
X176767511Y-144858277D01*
X176464465Y-144333387D02*
X176868526Y-145033241D01*
X175550256Y-144433517D02*
X175377710Y-145077468D01*
X175878836Y-144127169D02*
X175923947Y-144878740D01*
X175325993Y-144718518D01*
X174630326Y-144187023D02*
X174457780Y-144830973D01*
X174958906Y-143880675D02*
X175004018Y-144632245D01*
X174406064Y-144472024D01*
X83034119Y-74707761D02*
X82986500Y-74612523D01*
X82891261Y-74517285D01*
X82748404Y-74374428D01*
X82700785Y-74279190D01*
X82700785Y-74183952D01*
X82938880Y-74231571D02*
X82891261Y-74136333D01*
X82796023Y-74041095D01*
X82605547Y-73993476D01*
X82272214Y-73993476D01*
X82081738Y-74041095D01*
X81986500Y-74136333D01*
X81938880Y-74231571D01*
X81938880Y-74422047D01*
X81986500Y-74517285D01*
X82081738Y-74612523D01*
X82272214Y-74660142D01*
X82605547Y-74660142D01*
X82796023Y-74612523D01*
X82891261Y-74517285D01*
X82938880Y-74422047D01*
X82938880Y-74231571D01*
X82938880Y-75612523D02*
X82938880Y-75041095D01*
X82938880Y-75326809D02*
X81938880Y-75326809D01*
X82081738Y-75231571D01*
X82176976Y-75136333D01*
X82224595Y-75041095D01*
X83161119Y-93567261D02*
X83113500Y-93472023D01*
X83018261Y-93376785D01*
X82875404Y-93233928D01*
X82827785Y-93138690D01*
X82827785Y-93043452D01*
X83065880Y-93091071D02*
X83018261Y-92995833D01*
X82923023Y-92900595D01*
X82732547Y-92852976D01*
X82399214Y-92852976D01*
X82208738Y-92900595D01*
X82113500Y-92995833D01*
X82065880Y-93091071D01*
X82065880Y-93281547D01*
X82113500Y-93376785D01*
X82208738Y-93472023D01*
X82399214Y-93519642D01*
X82732547Y-93519642D01*
X82923023Y-93472023D01*
X83018261Y-93376785D01*
X83065880Y-93281547D01*
X83065880Y-93091071D01*
X82161119Y-93900595D02*
X82113500Y-93948214D01*
X82065880Y-94043452D01*
X82065880Y-94281547D01*
X82113500Y-94376785D01*
X82161119Y-94424404D01*
X82256357Y-94472023D01*
X82351595Y-94472023D01*
X82494452Y-94424404D01*
X83065880Y-93852976D01*
X83065880Y-94472023D01*
X83224619Y-112934761D02*
X83177000Y-112839523D01*
X83081761Y-112744285D01*
X82938904Y-112601428D01*
X82891285Y-112506190D01*
X82891285Y-112410952D01*
X83129380Y-112458571D02*
X83081761Y-112363333D01*
X82986523Y-112268095D01*
X82796047Y-112220476D01*
X82462714Y-112220476D01*
X82272238Y-112268095D01*
X82177000Y-112363333D01*
X82129380Y-112458571D01*
X82129380Y-112649047D01*
X82177000Y-112744285D01*
X82272238Y-112839523D01*
X82462714Y-112887142D01*
X82796047Y-112887142D01*
X82986523Y-112839523D01*
X83081761Y-112744285D01*
X83129380Y-112649047D01*
X83129380Y-112458571D01*
X82129380Y-113220476D02*
X82129380Y-113839523D01*
X82510333Y-113506190D01*
X82510333Y-113649047D01*
X82557952Y-113744285D01*
X82605571Y-113791904D01*
X82700809Y-113839523D01*
X82938904Y-113839523D01*
X83034142Y-113791904D01*
X83081761Y-113744285D01*
X83129380Y-113649047D01*
X83129380Y-113363333D01*
X83081761Y-113268095D01*
X83034142Y-113220476D01*
X83161119Y-131921261D02*
X83113500Y-131826023D01*
X83018261Y-131730785D01*
X82875404Y-131587928D01*
X82827785Y-131492690D01*
X82827785Y-131397452D01*
X83065880Y-131445071D02*
X83018261Y-131349833D01*
X82923023Y-131254595D01*
X82732547Y-131206976D01*
X82399214Y-131206976D01*
X82208738Y-131254595D01*
X82113500Y-131349833D01*
X82065880Y-131445071D01*
X82065880Y-131635547D01*
X82113500Y-131730785D01*
X82208738Y-131826023D01*
X82399214Y-131873642D01*
X82732547Y-131873642D01*
X82923023Y-131826023D01*
X83018261Y-131730785D01*
X83065880Y-131635547D01*
X83065880Y-131445071D01*
X82399214Y-132730785D02*
X83065880Y-132730785D01*
X82018261Y-132492690D02*
X82732547Y-132254595D01*
X82732547Y-132873642D01*
X89566738Y-145899119D02*
X89661976Y-145851500D01*
X89757214Y-145756261D01*
X89900071Y-145613404D01*
X89995309Y-145565785D01*
X90090547Y-145565785D01*
X90042928Y-145803880D02*
X90138166Y-145756261D01*
X90233404Y-145661023D01*
X90281023Y-145470547D01*
X90281023Y-145137214D01*
X90233404Y-144946738D01*
X90138166Y-144851500D01*
X90042928Y-144803880D01*
X89852452Y-144803880D01*
X89757214Y-144851500D01*
X89661976Y-144946738D01*
X89614357Y-145137214D01*
X89614357Y-145470547D01*
X89661976Y-145661023D01*
X89757214Y-145756261D01*
X89852452Y-145803880D01*
X90042928Y-145803880D01*
X88709595Y-144803880D02*
X89185785Y-144803880D01*
X89233404Y-145280071D01*
X89185785Y-145232452D01*
X89090547Y-145184833D01*
X88852452Y-145184833D01*
X88757214Y-145232452D01*
X88709595Y-145280071D01*
X88661976Y-145375309D01*
X88661976Y-145613404D01*
X88709595Y-145708642D01*
X88757214Y-145756261D01*
X88852452Y-145803880D01*
X89090547Y-145803880D01*
X89185785Y-145756261D01*
X89233404Y-145708642D01*
X97250238Y-54268619D02*
X97345476Y-54221000D01*
X97440714Y-54125761D01*
X97583571Y-53982904D01*
X97678809Y-53935285D01*
X97774047Y-53935285D01*
X97726428Y-54173380D02*
X97821666Y-54125761D01*
X97916904Y-54030523D01*
X97964523Y-53840047D01*
X97964523Y-53506714D01*
X97916904Y-53316238D01*
X97821666Y-53221000D01*
X97726428Y-53173380D01*
X97535952Y-53173380D01*
X97440714Y-53221000D01*
X97345476Y-53316238D01*
X97297857Y-53506714D01*
X97297857Y-53840047D01*
X97345476Y-54030523D01*
X97440714Y-54125761D01*
X97535952Y-54173380D01*
X97726428Y-54173380D01*
X96440714Y-53173380D02*
X96631190Y-53173380D01*
X96726428Y-53221000D01*
X96774047Y-53268619D01*
X96869285Y-53411476D01*
X96916904Y-53601952D01*
X96916904Y-53982904D01*
X96869285Y-54078142D01*
X96821666Y-54125761D01*
X96726428Y-54173380D01*
X96535952Y-54173380D01*
X96440714Y-54125761D01*
X96393095Y-54078142D01*
X96345476Y-53982904D01*
X96345476Y-53744809D01*
X96393095Y-53649571D01*
X96440714Y-53601952D01*
X96535952Y-53554333D01*
X96726428Y-53554333D01*
X96821666Y-53601952D01*
X96869285Y-53649571D01*
X96916904Y-53744809D01*
X108235738Y-54395619D02*
X108330976Y-54348000D01*
X108426214Y-54252761D01*
X108569071Y-54109904D01*
X108664309Y-54062285D01*
X108759547Y-54062285D01*
X108711928Y-54300380D02*
X108807166Y-54252761D01*
X108902404Y-54157523D01*
X108950023Y-53967047D01*
X108950023Y-53633714D01*
X108902404Y-53443238D01*
X108807166Y-53348000D01*
X108711928Y-53300380D01*
X108521452Y-53300380D01*
X108426214Y-53348000D01*
X108330976Y-53443238D01*
X108283357Y-53633714D01*
X108283357Y-53967047D01*
X108330976Y-54157523D01*
X108426214Y-54252761D01*
X108521452Y-54300380D01*
X108711928Y-54300380D01*
X107950023Y-53300380D02*
X107283357Y-53300380D01*
X107711928Y-54300380D01*
X127095238Y-50268119D02*
X127190476Y-50220500D01*
X127285714Y-50125261D01*
X127428571Y-49982404D01*
X127523809Y-49934785D01*
X127619047Y-49934785D01*
X127571428Y-50172880D02*
X127666666Y-50125261D01*
X127761904Y-50030023D01*
X127809523Y-49839547D01*
X127809523Y-49506214D01*
X127761904Y-49315738D01*
X127666666Y-49220500D01*
X127571428Y-49172880D01*
X127380952Y-49172880D01*
X127285714Y-49220500D01*
X127190476Y-49315738D01*
X127142857Y-49506214D01*
X127142857Y-49839547D01*
X127190476Y-50030023D01*
X127285714Y-50125261D01*
X127380952Y-50172880D01*
X127571428Y-50172880D01*
X126571428Y-49601452D02*
X126666666Y-49553833D01*
X126714285Y-49506214D01*
X126761904Y-49410976D01*
X126761904Y-49363357D01*
X126714285Y-49268119D01*
X126666666Y-49220500D01*
X126571428Y-49172880D01*
X126380952Y-49172880D01*
X126285714Y-49220500D01*
X126238095Y-49268119D01*
X126190476Y-49363357D01*
X126190476Y-49410976D01*
X126238095Y-49506214D01*
X126285714Y-49553833D01*
X126380952Y-49601452D01*
X126571428Y-49601452D01*
X126666666Y-49649071D01*
X126714285Y-49696690D01*
X126761904Y-49791928D01*
X126761904Y-49982404D01*
X126714285Y-50077642D01*
X126666666Y-50125261D01*
X126571428Y-50172880D01*
X126380952Y-50172880D01*
X126285714Y-50125261D01*
X126238095Y-50077642D01*
X126190476Y-49982404D01*
X126190476Y-49791928D01*
X126238095Y-49696690D01*
X126285714Y-49649071D01*
X126380952Y-49601452D01*
X165679238Y-132413619D02*
X165774476Y-132366000D01*
X165869714Y-132270761D01*
X166012571Y-132127904D01*
X166107809Y-132080285D01*
X166203047Y-132080285D01*
X166155428Y-132318380D02*
X166250666Y-132270761D01*
X166345904Y-132175523D01*
X166393523Y-131985047D01*
X166393523Y-131651714D01*
X166345904Y-131461238D01*
X166250666Y-131366000D01*
X166155428Y-131318380D01*
X165964952Y-131318380D01*
X165869714Y-131366000D01*
X165774476Y-131461238D01*
X165726857Y-131651714D01*
X165726857Y-131985047D01*
X165774476Y-132175523D01*
X165869714Y-132270761D01*
X165964952Y-132318380D01*
X166155428Y-132318380D01*
X165250666Y-132318380D02*
X165060190Y-132318380D01*
X164964952Y-132270761D01*
X164917333Y-132223142D01*
X164822095Y-132080285D01*
X164774476Y-131889809D01*
X164774476Y-131508857D01*
X164822095Y-131413619D01*
X164869714Y-131366000D01*
X164964952Y-131318380D01*
X165155428Y-131318380D01*
X165250666Y-131366000D01*
X165298285Y-131413619D01*
X165345904Y-131508857D01*
X165345904Y-131746952D01*
X165298285Y-131842190D01*
X165250666Y-131889809D01*
X165155428Y-131937428D01*
X164964952Y-131937428D01*
X164869714Y-131889809D01*
X164822095Y-131842190D01*
X164774476Y-131746952D01*
X196405428Y-134723119D02*
X196500666Y-134675500D01*
X196595904Y-134580261D01*
X196738761Y-134437404D01*
X196834000Y-134389785D01*
X196929238Y-134389785D01*
X196881619Y-134627880D02*
X196976857Y-134580261D01*
X197072095Y-134485023D01*
X197119714Y-134294547D01*
X197119714Y-133961214D01*
X197072095Y-133770738D01*
X196976857Y-133675500D01*
X196881619Y-133627880D01*
X196691142Y-133627880D01*
X196595904Y-133675500D01*
X196500666Y-133770738D01*
X196453047Y-133961214D01*
X196453047Y-134294547D01*
X196500666Y-134485023D01*
X196595904Y-134580261D01*
X196691142Y-134627880D01*
X196881619Y-134627880D01*
X195500666Y-134627880D02*
X196072095Y-134627880D01*
X195786380Y-134627880D02*
X195786380Y-133627880D01*
X195881619Y-133770738D01*
X195976857Y-133865976D01*
X196072095Y-133913595D01*
X194881619Y-133627880D02*
X194786380Y-133627880D01*
X194691142Y-133675500D01*
X194643523Y-133723119D01*
X194595904Y-133818357D01*
X194548285Y-134008833D01*
X194548285Y-134246928D01*
X194595904Y-134437404D01*
X194643523Y-134532642D01*
X194691142Y-134580261D01*
X194786380Y-134627880D01*
X194881619Y-134627880D01*
X194976857Y-134580261D01*
X195024476Y-134532642D01*
X195072095Y-134437404D01*
X195119714Y-134246928D01*
X195119714Y-134008833D01*
X195072095Y-133818357D01*
X195024476Y-133723119D01*
X194976857Y-133675500D01*
X194881619Y-133627880D01*
X203874619Y-117221071D02*
X203827000Y-117125833D01*
X203731761Y-117030595D01*
X203588904Y-116887738D01*
X203541285Y-116792500D01*
X203541285Y-116697261D01*
X203779380Y-116744880D02*
X203731761Y-116649642D01*
X203636523Y-116554404D01*
X203446047Y-116506785D01*
X203112714Y-116506785D01*
X202922238Y-116554404D01*
X202827000Y-116649642D01*
X202779380Y-116744880D01*
X202779380Y-116935357D01*
X202827000Y-117030595D01*
X202922238Y-117125833D01*
X203112714Y-117173452D01*
X203446047Y-117173452D01*
X203636523Y-117125833D01*
X203731761Y-117030595D01*
X203779380Y-116935357D01*
X203779380Y-116744880D01*
X203779380Y-118125833D02*
X203779380Y-117554404D01*
X203779380Y-117840119D02*
X202779380Y-117840119D01*
X202922238Y-117744880D01*
X203017476Y-117649642D01*
X203065095Y-117554404D01*
X203779380Y-119078214D02*
X203779380Y-118506785D01*
X203779380Y-118792500D02*
X202779380Y-118792500D01*
X202922238Y-118697261D01*
X203017476Y-118602023D01*
X203065095Y-118506785D01*
X213463119Y-108013571D02*
X213415500Y-107918333D01*
X213320261Y-107823095D01*
X213177404Y-107680238D01*
X213129785Y-107585000D01*
X213129785Y-107489761D01*
X213367880Y-107537380D02*
X213320261Y-107442142D01*
X213225023Y-107346904D01*
X213034547Y-107299285D01*
X212701214Y-107299285D01*
X212510738Y-107346904D01*
X212415500Y-107442142D01*
X212367880Y-107537380D01*
X212367880Y-107727857D01*
X212415500Y-107823095D01*
X212510738Y-107918333D01*
X212701214Y-107965952D01*
X213034547Y-107965952D01*
X213225023Y-107918333D01*
X213320261Y-107823095D01*
X213367880Y-107727857D01*
X213367880Y-107537380D01*
X213367880Y-108918333D02*
X213367880Y-108346904D01*
X213367880Y-108632619D02*
X212367880Y-108632619D01*
X212510738Y-108537380D01*
X212605976Y-108442142D01*
X212653595Y-108346904D01*
X212463119Y-109299285D02*
X212415500Y-109346904D01*
X212367880Y-109442142D01*
X212367880Y-109680238D01*
X212415500Y-109775476D01*
X212463119Y-109823095D01*
X212558357Y-109870714D01*
X212653595Y-109870714D01*
X212796452Y-109823095D01*
X213367880Y-109251666D01*
X213367880Y-109870714D01*
X212224380Y-52930952D02*
X211224380Y-52930952D01*
X211224380Y-53311904D01*
X211272000Y-53407142D01*
X211319619Y-53454761D01*
X211414857Y-53502380D01*
X211557714Y-53502380D01*
X211652952Y-53454761D01*
X211700571Y-53407142D01*
X211748190Y-53311904D01*
X211748190Y-52930952D01*
X211224380Y-54216666D02*
X211938666Y-54216666D01*
X212081523Y-54169047D01*
X212176761Y-54073809D01*
X212224380Y-53930952D01*
X212224380Y-53835714D01*
X211843428Y-54692857D02*
X211843428Y-55454761D01*
X211224380Y-55835714D02*
X211224380Y-56454761D01*
X211605333Y-56121428D01*
X211605333Y-56264285D01*
X211652952Y-56359523D01*
X211700571Y-56407142D01*
X211795809Y-56454761D01*
X212033904Y-56454761D01*
X212129142Y-56407142D01*
X212176761Y-56359523D01*
X212224380Y-56264285D01*
X212224380Y-55978571D01*
X212176761Y-55883333D01*
X212129142Y-55835714D01*
X211319619Y-56835714D02*
X211272000Y-56883333D01*
X211224380Y-56978571D01*
X211224380Y-57216666D01*
X211272000Y-57311904D01*
X211319619Y-57359523D01*
X211414857Y-57407142D01*
X211510095Y-57407142D01*
X211652952Y-57359523D01*
X212224380Y-56788095D01*
X212224380Y-57407142D01*
X211224380Y-58026190D02*
X211224380Y-58121428D01*
X211272000Y-58216666D01*
X211319619Y-58264285D01*
X211414857Y-58311904D01*
X211605333Y-58359523D01*
X211843428Y-58359523D01*
X212033904Y-58311904D01*
X212129142Y-58264285D01*
X212176761Y-58216666D01*
X212224380Y-58121428D01*
X212224380Y-58026190D01*
X212176761Y-57930952D01*
X212129142Y-57883333D01*
X212033904Y-57835714D01*
X211843428Y-57788095D01*
X211605333Y-57788095D01*
X211414857Y-57835714D01*
X211319619Y-57883333D01*
X211272000Y-57930952D01*
X211224380Y-58026190D01*
X211938666Y-58740476D02*
X211938666Y-59216666D01*
X212224380Y-58645238D02*
X211224380Y-58978571D01*
X212224380Y-59311904D01*
M02*
