M48
; DRILL file {KiCad (5.1.5)-3} date 3/8/2020 4:10:52 PM
; FORMAT={-:-/ absolute / inch / decimal}
; #@! TF.CreationDate,2020-03-08T16:10:52+01:00
; #@! TF.GenerationSoftware,Kicad,Pcbnew,(5.1.5)-3
; #@! TF.FileFunction,NonPlated,1,2,NPTH
FMAT,2
INCH
T1C0.0591
T2C0.0689
T3C0.1181
T4C0.1570
%
G90
G05
T1
X8.0894Y-2.063
X8.0894Y-2.3386
X8.2706Y-2.063
X8.2706Y-2.3386
T2
X3.4Y-2.625
X3.8Y-2.625
X6.5Y-3.2
X6.9Y-3.2
X6.5Y-4.7
X6.9Y-4.7
X7.775Y-6.0232
X7.975Y-5.6768
X8.1768Y-4.925
X8.5232Y-5.125
X3.5Y-5.625
X3.9Y-5.625
X3.4Y-4.125
X3.8Y-4.125
X7.25Y-2.525
X7.65Y-2.525
X5.75Y-3.1
X6.15Y-3.1
X8.2Y-3.65
X8.2Y-4.05
X5.0Y-5.45
X5.4Y-5.45
X8.425Y-6.3982
X8.625Y-6.0518
X5.0Y-3.2
X5.4Y-3.2
X5.75Y-2.35
X6.15Y-2.35
X8.8268Y-5.3
X9.1732Y-5.5
X4.25Y-2.625
X4.65Y-2.625
X6.5Y-3.95
X6.9Y-3.95
X7.25Y-4.025
X7.65Y-4.025
X6.5Y-2.45
X6.9Y-2.45
X7.25Y-3.275
X7.65Y-3.275
X7.25Y-4.775
X7.65Y-4.775
X5.0Y-3.95
X5.4Y-3.95
X3.4Y-3.375
X3.8Y-3.375
X4.25Y-3.375
X4.65Y-3.375
X8.0Y-2.9
X8.4Y-2.9
X4.25Y-4.125
X4.65Y-4.125
X5.0Y-2.45
X5.4Y-2.45
X4.25Y-4.875
X4.65Y-4.875
X5.75Y-3.85
X6.15Y-3.85
X3.4Y-4.875
X3.8Y-4.875
X6.7568Y-5.5232
X7.1432Y-5.6268
X5.75Y-5.35
X6.15Y-5.35
X4.25Y-5.625
X4.65Y-5.625
X5.75Y-4.6
X6.15Y-4.6
X5.0Y-4.7
X5.4Y-4.7
T4
X7.45Y-2.525
X5.95Y-3.1
X8.2Y-3.85
X5.2Y-5.45
X8.525Y-6.225
X5.2Y-3.2
X5.95Y-2.35
X9.0Y-5.4
X4.45Y-2.625
X6.7Y-3.95
X7.45Y-4.025
X6.7Y-2.45
X7.45Y-3.275
X7.45Y-4.775
X5.2Y-3.95
X3.6Y-3.375
X4.45Y-3.375
X8.2Y-2.9
X4.45Y-4.125
X5.2Y-2.45
X4.45Y-4.875
X5.95Y-3.85
X3.6Y-4.875
X6.95Y-5.575
X5.95Y-5.35
X4.45Y-5.625
X5.95Y-4.6
X5.2Y-4.7
X3.6Y-2.625
X6.7Y-3.2
X6.7Y-4.7
X7.875Y-5.85
X8.35Y-5.025
X3.7Y-5.625
X3.6Y-4.125
T3
G00X5.8Y-5.2502
M15
G01X5.85Y-5.1498
M16
G05
G00X6.05Y-5.1498
M15
G01X6.1Y-5.2502
M16
G05
G00X4.3Y-5.5252
M15
G01X4.35Y-5.4248
M16
G05
G00X4.55Y-5.4248
M15
G01X4.6Y-5.5252
M16
G05
G00X5.8Y-4.5002
M15
G01X5.85Y-4.3998
M16
G05
G00X6.05Y-4.3998
M15
G01X6.1Y-4.5002
M16
G05
G00X5.05Y-4.6002
M15
G01X5.1Y-4.4998
M16
G05
G00X5.3Y-4.4998
M15
G01X5.35Y-4.6002
M16
G05
G00X3.45Y-2.5252
M15
G01X3.5Y-2.4248
M16
G05
G00X3.7Y-2.4248
M15
G01X3.75Y-2.5252
M16
G05
G00X6.55Y-3.1002
M15
G01X6.6Y-2.9998
M16
G05
G00X6.8Y-2.9998
M15
G01X6.85Y-3.1002
M16
G05
G00X6.55Y-4.6002
M15
G01X6.6Y-4.4998
M16
G05
G00X6.8Y-4.4998
M15
G01X6.85Y-4.6002
M16
G05
G00X7.9984Y-6.0367
M15
G01X7.8864Y-6.0298
M16
G05
G00X8.0364Y-5.77
M15
G01X8.0984Y-5.8635
M16
G05
G00X8.27Y-4.8636
M15
G01X8.3635Y-4.8016
M16
G05
G00X8.5367Y-4.9016
M15
G01X8.5298Y-5.0136
M16
G05
G00X3.55Y-5.5252
M15
G01X3.6Y-5.4248
M16
G05
G00X3.8Y-5.4248
M15
G01X3.85Y-5.5252
M16
G05
G00X3.45Y-4.0252
M15
G01X3.5Y-3.9248
M16
G05
G00X3.7Y-3.9248
M15
G01X3.75Y-4.0252
M16
G05
G00X7.3Y-2.4252
M15
G01X7.35Y-2.3248
M16
G05
G00X7.55Y-2.3248
M15
G01X7.6Y-2.4252
M16
G05
G00X5.8Y-3.0002
M15
G01X5.85Y-2.8998
M16
G05
G00X6.05Y-2.8998
M15
G01X6.1Y-3.0002
M16
G05
G00X8.2998Y-3.7
M15
G01X8.4002Y-3.75
M16
G05
G00X8.4002Y-3.95
M15
G01X8.2998Y-4.0
M16
G05
G00X5.05Y-5.3502
M15
G01X5.1Y-5.2498
M16
G05
G00X5.3Y-5.2498
M15
G01X5.35Y-5.3502
M16
G05
G00X8.6484Y-6.4117
M15
G01X8.5364Y-6.4048
M16
G05
G00X8.6864Y-6.145
M15
G01X8.7484Y-6.2385
M16
G05
G00X5.05Y-3.1002
M15
G01X5.1Y-2.9998
M16
G05
G00X5.3Y-2.9998
M15
G01X5.35Y-3.1002
M16
G05
G00X5.8Y-2.2502
M15
G01X5.85Y-2.1498
M16
G05
G00X6.05Y-2.1498
M15
G01X6.1Y-2.2502
M16
G05
G00X8.92Y-5.2386
M15
G01X9.0135Y-5.1766
M16
G05
G00X9.1867Y-5.2766
M15
G01X9.1798Y-5.3886
M16
G05
G00X4.3Y-2.5252
M15
G01X4.35Y-2.4248
M16
G05
G00X4.55Y-2.4248
M15
G01X4.6Y-2.5252
M16
G05
G00X6.55Y-3.8502
M15
G01X6.6Y-3.7498
M16
G05
G00X6.8Y-3.7498
M15
G01X6.85Y-3.8502
M16
G05
G00X7.3Y-3.9252
M15
G01X7.35Y-3.8248
M16
G05
G00X7.55Y-3.8248
M15
G01X7.6Y-3.9252
M16
G05
G00X6.55Y-2.3502
M15
G01X6.6Y-2.2498
M16
G05
G00X6.8Y-2.2498
M15
G01X6.85Y-2.3502
M16
G05
G00X7.3Y-3.1752
M15
G01X7.35Y-3.0748
M16
G05
G00X7.55Y-3.0748
M15
G01X7.6Y-3.1752
M16
G05
G00X7.3Y-4.6752
M15
G01X7.35Y-4.5748
M16
G05
G00X7.55Y-4.5748
M15
G01X7.6Y-4.6752
M16
G05
G00X5.05Y-3.8502
M15
G01X5.1Y-3.7498
M16
G05
G00X5.3Y-3.7498
M15
G01X5.35Y-3.8502
M16
G05
G00X3.45Y-3.2752
M15
G01X3.5Y-3.1748
M16
G05
G00X3.7Y-3.1748
M15
G01X3.75Y-3.2752
M16
G05
G00X4.3Y-3.2752
M15
G01X4.35Y-3.1748
M16
G05
G00X4.55Y-3.1748
M15
G01X4.6Y-3.2752
M16
G05
G00X8.05Y-2.8002
M15
G01X8.1Y-2.6998
M16
G05
G00X8.3Y-2.6998
M15
G01X8.35Y-2.8002
M16
G05
G00X4.3Y-4.0252
M15
G01X4.35Y-3.9248
M16
G05
G00X4.55Y-3.9248
M15
G01X4.6Y-4.0252
M16
G05
G00X5.05Y-2.3502
M15
G01X5.1Y-2.2498
M16
G05
G00X5.3Y-2.2498
M15
G01X5.35Y-2.3502
M16
G05
G00X4.3Y-4.7752
M15
G01X4.35Y-4.6748
M16
G05
G00X4.55Y-4.6748
M15
G01X4.6Y-4.7752
M16
G05
G00X5.8Y-3.7502
M15
G01X5.85Y-3.6498
M16
G05
G00X6.05Y-3.6498
M15
G01X6.1Y-3.7502
M16
G05
G00X3.45Y-4.7752
M15
G01X3.5Y-4.6748
M16
G05
G00X3.7Y-4.6748
M15
G01X3.75Y-4.7752
M16
G05
G00X6.8309Y-5.4398
M15
G01X6.9053Y-5.3557
M16
G05
G00X7.0984Y-5.4075
M15
G01X7.1207Y-5.5174
M16
G05
T0
M30
