M48
; DRILL file {KiCad (5.1.5)-3} date 3/8/2020 4:10:52 PM
; FORMAT={-:-/ absolute / inch / decimal}
; #@! TF.CreationDate,2020-03-08T16:10:52+01:00
; #@! TF.GenerationSoftware,Kicad,Pcbnew,(5.1.5)-3
; #@! TF.FileFunction,Plated,1,2,PTH
FMAT,2
INCH
T1C0.0157
T2C0.0276
T3C0.0354
T4C0.0394
T5C0.0433
T6C0.0591
T7C0.1260
%
G90
G05
T1
X3.19Y-5.215
X3.23Y-4.485
X3.24Y-3.715
X3.255Y-2.9575
X3.2775Y-4.5875
X3.28Y-4.12
X3.2825Y-2.635
X3.3125Y-3.085
X3.35Y-5.245
X3.3525Y-2.9325
X3.4175Y-4.2525
X3.44Y-2.8025
X3.4525Y-3.7825
X3.5375Y-5.2525
X3.71Y-4.96
X3.7375Y-4.2075
X3.77Y-3.665
X3.7825Y-4.415
X3.7875Y-2.8925
X3.795Y-3.4725
X3.8125Y-3.06
X3.8225Y-5.285
X3.8375Y-5.7075
X3.8725Y-3.815
X3.88Y-2.3025
X4.0025Y-3.0825
X4.0125Y-2.7
X4.0125Y-2.865
X4.0475Y-2.375
X4.07Y-4.63
X4.0775Y-3.4925
X4.0775Y-4.5475
X4.1175Y-3.63
X4.12Y-4.3775
X4.1825Y-5.8375
X4.2675Y-4.275
X4.2675Y-5.265
X4.275Y-3.55
X4.2775Y-2.805
X4.2875Y-3.805
X4.295Y-2.6925
X4.3875Y-2.0
X4.4625Y-2.5025
X4.57Y-5.69
X4.58Y-2.675
X4.5875Y-4.9625
X4.595Y-3.44
X4.595Y-4.3975
X4.595Y-5.125
X4.62Y-3.6425
X4.625Y-3.0875
X4.6575Y-2.87
X4.8525Y-2.6375
X4.8625Y-3.6475
X4.87Y-3.2275
X4.9725Y-2.615
X4.98Y-3.3075
X5.0075Y-4.105
X5.02Y-5.135
X5.0375Y-3.4625
X5.0525Y-2.515
X5.0575Y-2.6725
X5.095Y-3.565
X5.22Y-3.6721
X5.2625Y-4.3175
X5.31Y-3.4525
X5.315Y-2.6975
X5.33Y-3.27
X5.3325Y-2.505
X5.355Y-2.055
X5.37Y-4.985
X5.3925Y-5.6925
X5.4065Y-2.8522
X5.41Y-2.715
X5.4325Y-3.4275
X5.4325Y-3.5425
X5.475Y-2.615
X5.4975Y-2.8525
X5.5075Y-4.41
X5.5175Y-3.635
X5.625Y-4.03
X5.6675Y-3.425
X5.69Y-3.3175
X5.6975Y-5.6125
X5.7175Y-2.7425
X5.72Y-4.1475
X5.7425Y-4.9075
X5.7475Y-2.51
X5.755Y-3.38
X5.78Y-5.02
X5.785Y-4.27
X5.8025Y-3.2925
X5.8125Y-2.795
X5.96Y-3.565
X5.975Y-5.015
X5.9925Y-3.5725
X6.0075Y-4.715
X6.03Y-3.9675
X6.035Y-5.44
X6.075Y-3.1575
X6.08Y-3.2575
X6.115Y-5.565
X6.1175Y-4.0275
X6.12Y-4.295
X6.17Y-5.42
X6.1725Y-3.325
X6.1775Y-3.44
X6.18Y-3.5475
X6.1975Y-3.945
X6.2025Y-2.695
X6.215Y-3.1625
X6.225Y-4.1775
X6.245Y-5.005
X6.3575Y-4.095
X6.36Y-4.0475
X6.37Y-4.8075
X6.38Y-4.3575
X6.385Y-2.465
X6.3875Y-2.7825
X6.3875Y-3.64
X6.455Y-3.32
X6.47Y-3.605
X6.48Y-2.7
X6.4875Y-5.1475
X6.5Y-3.2725
X6.5125Y-3.5725
X6.545Y-2.6225
X6.565Y-3.2625
X6.5675Y-2.5175
X6.58Y-4.3425
X6.6975Y-5.1225
X6.7Y-3.4775
X6.7174Y-2.8724
X6.8275Y-3.485
X6.835Y-2.5175
X6.8475Y-4.3375
X6.8725Y-3.6625
X6.875Y-4.9375
X6.88Y-2.67
X6.88Y-3.27
X6.8825Y-2.8525
X6.915Y-4.14
X6.9325Y-4.0425
X6.9425Y-3.415
X6.9675Y-3.5425
X6.9925Y-5.4525
X7.05Y-5.8575
X7.0925Y-2.0275
X7.1125Y-3.6775
X7.1225Y-3.3175
X7.1225Y-3.5075
X7.1225Y-4.2425
X7.2025Y-2.96
X7.2325Y-4.2625
X7.2475Y-4.8525
X7.2525Y-2.925
X7.2725Y-3.3775
X7.2825Y-4.9475
X7.29Y-4.0975
X7.2925Y-4.1775
X7.3025Y-4.405
X7.33Y-2.585
X7.34Y-2.945
X7.37Y-5.1075
X7.575Y-4.43
X7.59Y-2.58
X7.59Y-4.085
X7.61Y-4.99
X7.615Y-2.725
X7.63Y-4.135
X7.635Y-3.49
X7.65Y-4.21
X7.675Y-5.9125
X7.7025Y-5.28
X7.7175Y-2.88
X7.7875Y-4.3725
X7.83Y-3.62
X7.8521Y-4.8474
X7.8825Y-3.225
X7.885Y-2.9325
X7.89Y-5.1125
X7.995Y-5.905
X8.075Y-2.9475
X8.12Y-3.97
X8.1475Y-3.38
X8.1825Y-4.475
X8.2375Y-4.97
X8.3125Y-5.565
X8.3625Y-4.2725
X8.3775Y-4.625
X8.3825Y-5.315
X8.425Y-4.91
X8.485Y-3.3575
X8.7281Y-5.6079
X8.9325Y-5.7025
X9.145Y-5.125
X5.6157Y-5.1878
X6.2846Y-5.1898
X4.1157Y-5.4628
X4.7846Y-5.4648
X5.6157Y-4.4378
X6.2846Y-4.4398
X4.8657Y-4.5378
X5.5346Y-4.5398
X5.0591Y-1.9656
X5.0591Y-2.005
X5.0591Y-2.0444
X3.2657Y-2.4628
X3.9346Y-2.4648
X6.3657Y-3.0378
X7.0346Y-3.0398
X6.3657Y-4.5378
X7.0346Y-4.5398
X6.5191Y-5.2506
X6.5191Y-5.29
X6.5191Y-5.3294
X4.1084Y-2.0807
X4.1084Y-2.1201
X4.1084Y-2.1595
X7.8464Y-6.2199
X8.1826Y-5.6416
X8.1416Y-4.7174
X8.7199Y-5.0536
X3.3657Y-5.4628
X4.0346Y-5.4648
X3.2657Y-3.9628
X3.9346Y-3.9648
X3.2132Y-4.2959
X3.2526Y-4.2959
X3.292Y-4.2959
X7.1157Y-2.3628
X7.7846Y-2.3648
X5.6547Y-3.0606
X6.2453Y-3.0646
X8.3602Y-4.1846
X8.3622Y-3.5157
X4.8657Y-5.2878
X5.5346Y-5.2898
X3.2132Y-5.0459
X3.2526Y-5.0459
X3.292Y-5.0459
X3.4556Y-5.8509
X3.495Y-5.8509
X3.5344Y-5.8509
X3.213Y-2.7959
X3.2524Y-2.7959
X3.2918Y-2.7959
X8.4964Y-6.5949
X8.8326Y-6.0166
X4.8657Y-3.0378
X5.5346Y-3.0398
X5.6547Y-2.3106
X6.2453Y-2.3146
X8.7916Y-5.0924
X9.3699Y-5.4286
X4.1157Y-2.4628
X4.7846Y-2.4648
X6.3657Y-3.7878
X7.0346Y-3.7898
X7.1157Y-3.8628
X7.7846Y-3.8648
X3.6724Y-2.0784
X3.6724Y-2.1178
X3.6724Y-2.1571
X3.213Y-3.5459
X3.2524Y-3.5459
X3.2918Y-3.5459
X6.3657Y-2.2878
X7.0346Y-2.2898
X7.1157Y-3.1128
X7.7846Y-3.1148
X7.1157Y-4.6128
X7.7846Y-4.6148
X4.8657Y-3.7878
X5.5346Y-3.7898
X8.3431Y-4.4325
X8.3825Y-4.4325
X8.4219Y-4.4325
X7.54Y-5.2456
X7.54Y-5.285
X7.54Y-5.3244
X3.2657Y-3.2128
X3.9346Y-3.2148
X4.1157Y-3.2128
X4.7846Y-3.2148
X7.8657Y-2.7378
X8.5346Y-2.7398
X4.1157Y-3.9628
X4.7846Y-3.9648
X4.8657Y-2.2878
X5.5346Y-2.2898
X4.1157Y-4.7128
X4.7846Y-4.7148
X5.6547Y-3.8106
X6.2453Y-3.8146
X3.2657Y-4.7128
X3.9346Y-4.7148
X7.9656Y-4.4716
X8.005Y-4.4716
X8.0444Y-4.4716
X6.6691Y-5.3318
X7.3147Y-5.5068
T2
X5.5864Y-2.0
X5.5864Y-2.1
X5.5864Y-2.2
X5.5864Y-2.3
X5.5864Y-2.4
X5.5864Y-2.5
X5.5864Y-2.6
X5.5864Y-2.7
X5.5864Y-2.8
X5.5864Y-2.9
X5.5864Y-3.0
X5.5864Y-3.1
X5.5864Y-3.2
X5.5864Y-3.3
X5.5864Y-3.4
X5.5864Y-3.5
X5.5864Y-3.6
X5.5864Y-3.7
X5.5864Y-3.8
X5.5864Y-3.9
X6.31Y-2.0
X6.31Y-2.1
X6.31Y-2.2
X6.31Y-2.3
X6.31Y-2.4
X6.31Y-2.5
X6.31Y-2.6
X6.31Y-2.7
X6.31Y-2.8
X6.31Y-2.9
X6.31Y-3.0
X6.31Y-3.1
X6.31Y-3.2
X6.31Y-3.3
X6.31Y-3.4
X6.31Y-3.5
X6.31Y-3.6
X6.31Y-3.7
X6.31Y-3.8
X6.31Y-3.9
T4
X4.008Y-5.6129
X4.01Y-5.8845
X9.1352Y-5.7856
X9.2694Y-5.5493
X4.753Y-5.6183
X4.755Y-5.89
X3.928Y-3.3729
X3.93Y-3.6445
X4.753Y-4.1129
X4.755Y-4.3845
X6.365Y-4.9479
X6.367Y-5.2195
X5.0642Y-2.775
X5.3358Y-2.773
X3.5305Y-2.012
X3.8021Y-2.01
X8.4902Y-5.4106
X8.6244Y-5.1743
X7.018Y-4.6933
X7.02Y-4.965
X4.753Y-4.8679
X4.755Y-5.1395
X7.013Y-2.4429
X7.015Y-2.7145
X7.013Y-3.1933
X7.015Y-3.465
X6.375Y-5.3679
X6.377Y-5.6395
X4.753Y-2.6129
X4.755Y-2.8845
X5.2155Y-1.977
X5.4871Y-1.975
X5.508Y-4.6933
X5.51Y-4.965
X5.518Y-5.4429
X5.52Y-5.7145
X3.908Y-4.8629
X3.91Y-5.1345
X3.208Y-3.1179
X3.21Y-3.3895
X4.758Y-3.3655
X4.76Y-3.6371
X5.8142Y-2.675
X6.0858Y-2.673
X4.9229Y-2.11
X5.1945Y-2.108
X3.2105Y-4.615
X3.2125Y-4.8867
X7.763Y-4.7683
X7.765Y-5.04
X5.8142Y-3.425
X6.0858Y-3.423
X8.485Y-4.295
X8.487Y-4.5667
X5.493Y-3.9433
X5.495Y-4.215
X8.2875Y-4.3004
X8.2895Y-4.572
X3.9754Y-2.2275
X4.247Y-2.2255
X7.763Y-4.0133
X7.765Y-4.285
X8.1344Y-6.3652
X8.3707Y-6.4994
X7.9Y-2.2042
X7.902Y-2.4758
X3.193Y-2.3633
X3.195Y-2.635
X5.493Y-3.1929
X5.495Y-3.4645
X3.2105Y-3.8683
X3.2125Y-4.14
X7.763Y-2.5179
X7.765Y-2.7895
X7.4055Y-5.392
X7.6771Y-5.39
X8.108Y-4.3305
X8.11Y-4.6021
X7.4844Y-5.9902
X7.7207Y-6.1244
X8.46Y-2.2042
X8.462Y-2.4758
X7.013Y-3.9383
X7.015Y-4.21
X5.8142Y-4.175
X6.0858Y-4.173
X7.8975Y-4.328
X7.8995Y-4.5996
X7.9305Y-4.165
X8.2021Y-4.163
X3.5379Y-2.227
X3.8095Y-2.225
X3.388Y-5.6529
X3.39Y-5.9245
X7.1874Y-5.9135
X7.2558Y-5.6506
X6.268Y-5.3429
X6.27Y-5.6145
X6.263Y-4.5933
X6.265Y-4.865
X7.763Y-3.2683
X7.765Y-3.54
X3.903Y-4.1179
X3.905Y-4.3895
X7.405Y-5.178
X7.6767Y-5.1761
X8.513Y-2.8929
X8.515Y-3.1645
X3.9654Y-2.0145
X4.237Y-2.0125
X3.903Y-2.6133
X3.905Y-2.885
T5
X4.52Y-2.02
X4.52Y-2.1972
X4.7759Y-2.02
X4.7759Y-2.1972
T6
X3.55Y-2.825
X3.65Y-2.825
X6.65Y-3.4
X6.75Y-3.4
X6.65Y-4.9
X6.75Y-4.9
X7.6768Y-5.7933
X7.7268Y-5.7067
X8.2067Y-5.1732
X8.2933Y-5.2232
X3.65Y-5.825
X3.75Y-5.825
X3.55Y-4.325
X3.65Y-4.325
X7.4Y-2.725
X7.5Y-2.725
X5.9Y-3.3
X6.0Y-3.3
X8.0Y-3.8
X8.0Y-3.9
X5.15Y-5.65
X5.25Y-5.65
X8.3268Y-6.1683
X8.3768Y-6.0817
X5.15Y-3.4
X5.25Y-3.4
X5.9Y-2.55
X6.0Y-2.55
X8.8567Y-5.5482
X8.9433Y-5.5982
X4.4Y-2.825
X4.5Y-2.825
X6.65Y-4.15
X6.75Y-4.15
X7.4Y-4.225
X7.5Y-4.225
X6.65Y-2.65
X6.75Y-2.65
X7.4Y-3.475
X7.5Y-3.475
X7.4Y-4.975
X7.5Y-4.975
X5.15Y-4.15
X5.25Y-4.15
X3.55Y-3.575
X3.65Y-3.575
X4.4Y-3.575
X4.5Y-3.575
X8.15Y-3.1
X8.25Y-3.1
X4.4Y-4.325
X4.5Y-4.325
X5.15Y-2.65
X5.25Y-2.65
X4.4Y-5.075
X4.5Y-5.075
X5.9Y-4.05
X6.0Y-4.05
X3.55Y-5.075
X3.65Y-5.075
X6.8499Y-5.7552
X6.9465Y-5.7811
X5.9Y-5.55
X6.0Y-5.55
X4.4Y-5.825
X4.5Y-5.825
X5.9Y-4.8
X6.0Y-4.8
X5.15Y-4.9
X5.25Y-4.9
T7
X3.375Y-2.125
X7.725Y-2.05
X4.05Y-5.075
X8.4Y-5.68
T3
G00X7.9989Y-2.4331
M15
G01X7.9989Y-2.4567
M16
G05
G00X8.18Y-2.1142
M15
G01X8.18Y-2.1378
M16
G05
G00X8.18Y-2.2323
M15
G01X8.18Y-2.2559
M16
G05
G00X8.18Y-2.3898
M15
G01X8.18Y-2.4134
M16
G05
G00X8.3611Y-2.4331
M15
G01X8.3611Y-2.4567
M16
G05
T0
M30
