M48
; DRILL file {KiCad (5.1.5)-3} date 2/25/2020 7:24:32 PM
; FORMAT={-:-/ absolute / inch / decimal}
; #@! TF.CreationDate,2020-02-25T19:24:32+01:00
; #@! TF.GenerationSoftware,Kicad,Pcbnew,(5.1.5)-3
; #@! TF.FileFunction,Plated,1,2,PTH
FMAT,2
INCH
T1C0.0157
T2C0.0276
T3C0.0354
T4C0.0394
T5C0.0433
%
G90
G05
T1
X3.34Y-2.62
X3.34Y-3.38
X3.34Y-4.11
X3.34Y-4.87
X3.41Y-5.33
X4.095Y-5.965
X4.1885Y-5.3215
X4.19Y-2.66
X4.19Y-3.39
X4.19Y-4.15
X4.19Y-4.9
X4.65Y-2.06
X4.715Y-5.965
X4.855Y-5.895
X4.885Y-3.61
X4.895Y-2.055
X4.94Y-2.47
X4.94Y-3.19
X4.94Y-3.98
X4.94Y-4.75
X5.02Y-3.63
X5.465Y-5.78
X5.49Y-3.19
X5.49Y-3.94
X5.49Y-4.04
X5.63Y-3.345
X5.68Y-3.09
X5.68Y-3.85
X5.68Y-4.6
X5.6869Y-5.0631
X5.69Y-2.41
X5.83Y-3.54
X5.9Y-2.815
X6.155Y-2.43
X6.185Y-3.17
X6.2282Y-3.0918
X6.38Y-2.665
X6.395Y-4.415
X6.43Y-2.45
X6.43Y-3.21
X6.43Y-3.95
X6.43Y-4.7
X6.49Y-3.505
X6.66Y-5.23
X6.965Y-3.39
X6.99Y-2.44
X7.11Y-3.3
X7.17Y-4.77
X7.1899Y-2.5799
X7.19Y-3.3
X7.19Y-4.03
X7.46Y-2.96
X7.57Y-2.89
X7.94Y-2.92
X7.99Y-5.6
X8.14Y-3.56
X8.31Y-4.63
X8.67Y-5.98
X8.73Y-5.24
X9.26Y-5.53
T2
X5.5864Y-2.0
X5.5864Y-2.1
X5.5864Y-2.2
X5.5864Y-2.3
X5.5864Y-2.4
X5.5864Y-2.5
X5.5864Y-2.6
X5.5864Y-2.7
X5.5864Y-2.8
X5.5864Y-2.9
X5.5864Y-3.0
X5.5864Y-3.1
X5.5864Y-3.2
X5.5864Y-3.3
X5.5864Y-3.4
X5.5864Y-3.5
X5.5864Y-3.6
X5.5864Y-3.7
X5.5864Y-3.8
X5.5864Y-3.9
X6.31Y-2.0
X6.31Y-2.1
X6.31Y-2.2
X6.31Y-2.3
X6.31Y-2.4
X6.31Y-2.5
X6.31Y-2.6
X6.31Y-2.7
X6.31Y-2.8
X6.31Y-2.9
X6.31Y-3.0
X6.31Y-3.1
X6.31Y-3.2
X6.31Y-3.3
X6.31Y-3.4
X6.31Y-3.5
X6.31Y-3.6
X6.31Y-3.7
X6.31Y-3.8
X6.31Y-3.9
T4
X4.02Y-4.8865
X4.02Y-5.1935
X8.0465Y-3.225
X8.3535Y-3.225
X4.79Y-3.3865
X4.79Y-3.6935
X6.29Y-4.6265
X6.29Y-4.9335
X5.56Y-4.0165
X5.56Y-4.3235
X5.52Y-4.7265
X5.52Y-5.0335
X7.79Y-2.5365
X7.79Y-2.8435
X4.02Y-3.3965
X4.02Y-3.7035
X4.01Y-4.1365
X4.01Y-4.4435
X4.03Y-5.6265
X4.03Y-5.9335
X4.78Y-5.6265
X4.78Y-5.9335
X5.7965Y-2.675
X6.1035Y-2.675
X8.46Y-2.1865
X8.46Y-2.4935
X4.79Y-4.8965
X4.79Y-5.2035
X5.7965Y-4.175
X6.1035Y-4.175
X4.0Y-2.6365
X4.0Y-2.9435
X6.5465Y-2.775
X6.8535Y-2.775
X8.0465Y-4.25
X8.3535Y-4.25
X4.79Y-2.6365
X4.79Y-2.9435
X6.28Y-5.3465
X6.28Y-5.6535
X7.537Y-6.1232
X7.803Y-6.2768
X8.4732Y-5.473
X8.6268Y-5.207
X5.53Y-5.4465
X5.53Y-5.7535
X5.0465Y-2.775
X5.3535Y-2.775
X7.04Y-3.1965
X7.04Y-3.5035
X7.2703Y-5.9983
X7.3497Y-5.7017
X7.79Y-4.0465
X7.79Y-4.3535
X8.057Y-6.4032
X8.323Y-6.5568
X4.78Y-4.1465
X4.78Y-4.4535
X5.7965Y-3.425
X6.1035Y-3.425
X8.692Y-5.5982
X8.958Y-5.7518
X7.03Y-3.9765
X7.03Y-4.2835
X7.04Y-4.7265
X7.04Y-5.0335
X5.0465Y-3.525
X5.3535Y-3.525
X7.8Y-4.7765
X7.8Y-5.0835
X7.81Y-3.2965
X7.81Y-3.6035
X7.9Y-2.1865
X7.9Y-2.4935
T5
X4.52Y-2.02
X4.52Y-2.1972
X4.7759Y-2.02
X4.7759Y-2.1972
T3
G00X7.9989Y-2.4331
M15
G01X7.9989Y-2.4567
M16
G05
G00X8.18Y-2.1142
M15
G01X8.18Y-2.1378
M16
G05
G00X8.18Y-2.2323
M15
G01X8.18Y-2.2559
M16
G05
G00X8.18Y-2.3898
M15
G01X8.18Y-2.4134
M16
G05
G00X8.3611Y-2.4331
M15
G01X8.3611Y-2.4567
M16
G05
T0
M30
